G04*
G04 #@! TF.GenerationSoftware,Altium Limited,Altium Designer,21.0.9 (235)*
G04*
G04 Layer_Color=128*
%FSLAX44Y44*%
%MOMM*%
G71*
G04*
G04 #@! TF.SameCoordinates,EB6AEE9D-F0A7-4C1E-96F7-12A61246D342*
G04*
G04*
G04 #@! TF.FilePolarity,Positive*
G04*
G01*
G75*
%ADD24C,0.0508*%
D24*
X390158Y-392070D02*
X430158D01*
X410158Y-412070D02*
Y-372070D01*
X138489Y-545138D02*
X178489D01*
X158489Y-565138D02*
Y-525138D01*
X-155911Y-551661D02*
X-115911D01*
X-135911Y-571661D02*
Y-531661D01*
X-413533Y-409797D02*
X-373533D01*
X-393533Y-429797D02*
Y-389797D01*
X-565421Y-157728D02*
X-525421D01*
X-545421Y-177728D02*
Y-137728D01*
X-570637Y135574D02*
X-530637D01*
X-550637Y115574D02*
Y155574D01*
X-429797Y393533D02*
X-389797D01*
X-409797Y373533D02*
Y413533D01*
X-178129Y545708D02*
X-138129D01*
X-158129Y525708D02*
Y565708D01*
X115911Y551661D02*
X155911D01*
X135911Y531661D02*
Y571661D01*
X373533Y409798D02*
X413533D01*
X393533Y389798D02*
Y429797D01*
X524199Y157287D02*
X564199D01*
X544199Y137287D02*
Y177287D01*
X531661Y-135911D02*
X571661D01*
X551661Y-155911D02*
Y-115911D01*
X388250Y-4600D02*
X408250D01*
X398250Y-14600D02*
Y5400D01*
X388250Y-55400D02*
X408250D01*
X398250Y-65400D02*
Y-45400D01*
X256340Y498634D02*
X296340D01*
X276340Y478634D02*
Y518634D01*
X470594Y294361D02*
X510594D01*
X490594Y274362D02*
Y314361D01*
X480594Y-275639D02*
X520594D01*
X500594Y-295638D02*
Y-255639D01*
X275620Y-487933D02*
X315620D01*
X295620Y-507933D02*
Y-467933D01*
X-10000Y-570000D02*
X30000D01*
X10000Y-590000D02*
Y-550000D01*
X-296340Y-498634D02*
X-256340D01*
X-276340Y-518634D02*
Y-478634D01*
X-506675Y-295161D02*
X-466675D01*
X-486675Y-315161D02*
Y-275161D01*
X-588040Y-11501D02*
X-548040D01*
X-568040Y-31501D02*
Y8499D01*
X-516675Y274839D02*
X-476675D01*
X-496675Y254839D02*
Y294839D01*
X-311700Y487134D02*
X-271700D01*
X-291700Y467134D02*
Y507134D01*
X-30000Y570000D02*
X10000D01*
X-10000Y550000D02*
Y590000D01*
X572500Y-51000D02*
X589500D01*
X581000Y-59500D02*
Y-42500D01*
X572500Y51000D02*
X589500D01*
X581000Y42500D02*
Y59500D01*
X470500Y51000D02*
X487500D01*
X479000Y42500D02*
Y59500D01*
X470500Y-51000D02*
X487500D01*
X479000Y-59500D02*
Y-42500D01*
X521500Y0D02*
X538500D01*
X530000Y-8500D02*
Y8500D01*
M02*
