G04*
G04 #@! TF.GenerationSoftware,Altium Limited,Altium Designer,21.0.9 (235)*
G04*
G04 Layer_Color=16711935*
%FSLAX44Y44*%
%MOMM*%
G71*
G04*
G04 #@! TF.SameCoordinates,EB6AEE9D-F0A7-4C1E-96F7-12A61246D342*
G04*
G04*
G04 #@! TF.FilePolarity,Negative*
G04*
G01*
G75*
%ADD10C,3.0000*%
%ADD11C,8.2032*%
%ADD12C,3.2032*%
%ADD13R,3.2032X3.2032*%
%ADD14C,2.7532*%
%ADD19C,5.0000*%
%ADD20C,1.0000*%
%ADD21C,0.6000*%
%ADD22C,0.8000*%
G36*
X7000Y315957D02*
X5730Y315431D01*
X5667Y315494D01*
X4585Y315942D01*
X4000Y316000D01*
X0D01*
X-17819Y412024D01*
X-17007Y413000D01*
X7000D01*
Y315957D01*
D02*
G37*
G36*
X-302147Y54233D02*
Y53640D01*
Y53047D01*
Y52453D01*
Y51860D01*
Y51267D01*
Y50673D01*
X-297993D01*
Y50080D01*
Y49487D01*
Y48893D01*
Y48300D01*
Y47707D01*
Y47113D01*
Y46520D01*
X-302147D01*
Y45927D01*
Y45333D01*
Y44740D01*
Y44147D01*
Y43553D01*
Y42960D01*
Y42367D01*
X-306300D01*
Y42960D01*
Y43553D01*
Y44147D01*
Y44740D01*
Y45333D01*
Y45927D01*
Y46520D01*
X-310453D01*
Y47113D01*
Y47707D01*
Y48300D01*
Y48893D01*
Y49487D01*
Y50080D01*
Y50673D01*
X-314607D01*
Y51267D01*
Y51860D01*
Y52453D01*
Y53047D01*
Y53640D01*
Y54233D01*
Y54827D01*
X-310453D01*
Y54233D01*
Y53640D01*
Y53047D01*
Y52453D01*
Y51860D01*
Y51267D01*
Y50673D01*
X-306300D01*
Y51267D01*
Y51860D01*
Y52453D01*
Y53047D01*
Y53640D01*
Y54233D01*
Y54827D01*
X-302147D01*
Y54233D01*
D02*
G37*
G36*
X-318760D02*
Y53640D01*
Y53047D01*
Y52453D01*
Y51860D01*
Y51267D01*
Y50673D01*
X-314607D01*
Y50080D01*
Y49487D01*
Y48893D01*
Y48300D01*
Y47707D01*
Y47113D01*
Y46520D01*
Y45927D01*
Y45333D01*
Y44740D01*
Y44147D01*
Y43553D01*
Y42960D01*
Y42367D01*
X-306300D01*
Y41773D01*
Y41180D01*
Y40587D01*
Y39993D01*
Y39400D01*
Y38807D01*
Y38213D01*
X-310453D01*
Y37620D01*
Y37027D01*
Y36433D01*
Y35840D01*
Y35247D01*
Y34653D01*
Y34060D01*
X-302147D01*
Y34653D01*
Y35247D01*
Y35840D01*
Y36433D01*
Y37027D01*
Y37620D01*
Y38213D01*
X-297993D01*
Y37620D01*
Y37027D01*
Y36433D01*
Y35840D01*
Y35247D01*
Y34653D01*
Y34060D01*
Y33467D01*
Y32873D01*
Y32280D01*
Y31687D01*
Y31093D01*
Y30500D01*
Y29907D01*
Y29313D01*
Y28720D01*
Y28127D01*
Y27533D01*
Y26940D01*
Y26347D01*
Y25753D01*
X-302147D01*
Y26347D01*
Y26940D01*
Y27533D01*
Y28127D01*
Y28720D01*
Y29313D01*
Y29907D01*
X-306300D01*
Y29313D01*
Y28720D01*
Y28127D01*
Y27533D01*
Y26940D01*
Y26347D01*
Y25753D01*
X-302147D01*
Y25160D01*
Y24567D01*
Y23973D01*
Y23380D01*
Y22787D01*
Y22193D01*
Y21600D01*
X-306300D01*
Y22193D01*
Y22787D01*
Y23380D01*
Y23973D01*
Y24567D01*
Y25160D01*
Y25753D01*
X-310453D01*
Y26347D01*
Y26940D01*
Y27533D01*
Y28127D01*
Y28720D01*
Y29313D01*
Y29907D01*
Y30500D01*
Y31093D01*
Y31687D01*
Y32280D01*
Y32873D01*
Y33467D01*
Y34060D01*
X-318760D01*
Y34653D01*
Y35247D01*
Y35840D01*
Y36433D01*
Y37027D01*
Y37620D01*
Y38213D01*
X-314607D01*
Y38807D01*
Y39400D01*
Y39993D01*
Y40587D01*
Y41180D01*
Y41773D01*
Y42367D01*
X-327067D01*
Y41773D01*
Y41180D01*
Y40587D01*
Y39993D01*
Y39400D01*
Y38807D01*
Y38213D01*
X-331220D01*
Y38807D01*
Y39400D01*
Y39993D01*
Y40587D01*
Y41180D01*
Y41773D01*
Y42367D01*
X-335373D01*
Y42960D01*
Y43553D01*
Y44147D01*
Y44740D01*
Y45333D01*
Y45927D01*
Y46520D01*
X-343680D01*
Y45927D01*
Y45333D01*
Y44740D01*
Y44147D01*
Y43553D01*
Y42960D01*
Y42367D01*
X-335373D01*
Y41773D01*
Y41180D01*
Y40587D01*
Y39993D01*
Y39400D01*
Y38807D01*
Y38213D01*
X-347833D01*
Y37620D01*
Y37027D01*
Y36433D01*
Y35840D01*
Y35247D01*
Y34653D01*
Y34060D01*
X-327067D01*
Y33467D01*
Y32873D01*
Y32280D01*
Y31687D01*
Y31093D01*
Y30500D01*
Y29907D01*
X-322913D01*
Y29313D01*
Y28720D01*
Y28127D01*
Y27533D01*
Y26940D01*
Y26347D01*
Y25753D01*
X-318760D01*
Y26347D01*
Y26940D01*
Y27533D01*
Y28127D01*
Y28720D01*
Y29313D01*
Y29907D01*
X-322913D01*
Y30500D01*
Y31093D01*
Y31687D01*
Y32280D01*
Y32873D01*
Y33467D01*
Y34060D01*
X-318760D01*
Y33467D01*
Y32873D01*
Y32280D01*
Y31687D01*
Y31093D01*
Y30500D01*
Y29907D01*
X-314607D01*
Y29313D01*
Y28720D01*
Y28127D01*
Y27533D01*
Y26940D01*
Y26347D01*
Y25753D01*
X-310453D01*
Y25160D01*
Y24567D01*
Y23973D01*
Y23380D01*
Y22787D01*
Y22193D01*
Y21600D01*
X-306300D01*
Y21007D01*
Y20413D01*
Y19820D01*
Y19227D01*
Y18633D01*
Y18040D01*
Y17447D01*
Y16853D01*
Y16260D01*
Y15667D01*
Y15073D01*
Y14480D01*
Y13887D01*
Y13293D01*
Y12700D01*
Y12107D01*
Y11513D01*
Y10920D01*
Y10327D01*
Y9733D01*
Y9140D01*
X-302147D01*
Y8547D01*
Y7953D01*
Y7360D01*
Y6767D01*
Y6173D01*
Y5580D01*
Y4987D01*
X-293840D01*
Y5580D01*
Y6173D01*
Y6767D01*
Y7360D01*
Y7953D01*
Y8547D01*
Y9140D01*
X-289687D01*
Y8547D01*
Y7953D01*
Y7360D01*
Y6767D01*
Y6173D01*
Y5580D01*
Y4987D01*
Y4393D01*
Y3800D01*
Y3207D01*
Y2613D01*
Y2020D01*
Y1427D01*
Y833D01*
Y240D01*
Y-353D01*
Y-947D01*
Y-1540D01*
Y-2133D01*
Y-2727D01*
Y-3320D01*
X-293840D01*
Y-2727D01*
Y-2133D01*
Y-1540D01*
Y-947D01*
Y-353D01*
Y240D01*
Y833D01*
X-302147D01*
Y1427D01*
Y2020D01*
Y2613D01*
Y3207D01*
Y3800D01*
Y4393D01*
Y4987D01*
X-306300D01*
Y5580D01*
Y6173D01*
Y6767D01*
Y7360D01*
Y7953D01*
Y8547D01*
Y9140D01*
X-310453D01*
Y9733D01*
Y10327D01*
Y10920D01*
Y11513D01*
Y12107D01*
Y12700D01*
Y13293D01*
X-318760D01*
Y12700D01*
Y12107D01*
Y11513D01*
Y10920D01*
Y10327D01*
Y9733D01*
Y9140D01*
X-310453D01*
Y8547D01*
Y7953D01*
Y7360D01*
Y6767D01*
Y6173D01*
Y5580D01*
Y4987D01*
X-314607D01*
Y4393D01*
Y3800D01*
Y3207D01*
Y2613D01*
Y2020D01*
Y1427D01*
Y833D01*
X-310453D01*
Y240D01*
Y-353D01*
Y-947D01*
Y-1540D01*
Y-2133D01*
Y-2727D01*
Y-3320D01*
X-306300D01*
Y-3913D01*
Y-4507D01*
Y-5100D01*
Y-5693D01*
Y-6287D01*
Y-6880D01*
Y-7473D01*
X-302147D01*
Y-8067D01*
Y-8660D01*
Y-9253D01*
Y-9847D01*
Y-10440D01*
Y-11033D01*
Y-11627D01*
X-297993D01*
Y-12220D01*
Y-12813D01*
Y-13407D01*
Y-14000D01*
Y-14593D01*
Y-15187D01*
Y-15780D01*
X-289687D01*
Y-15187D01*
Y-14593D01*
Y-14000D01*
Y-13407D01*
Y-12813D01*
Y-12220D01*
Y-11627D01*
X-293840D01*
Y-11033D01*
Y-10440D01*
Y-9847D01*
Y-9253D01*
Y-8660D01*
Y-8067D01*
Y-7473D01*
X-297993D01*
Y-6880D01*
Y-6287D01*
Y-5693D01*
Y-5100D01*
Y-4507D01*
Y-3913D01*
Y-3320D01*
X-293840D01*
Y-3913D01*
Y-4507D01*
Y-5100D01*
Y-5693D01*
Y-6287D01*
Y-6880D01*
Y-7473D01*
X-289687D01*
Y-8067D01*
Y-8660D01*
Y-9253D01*
Y-9847D01*
Y-10440D01*
Y-11033D01*
Y-11627D01*
X-285533D01*
Y-12220D01*
Y-12813D01*
Y-13407D01*
Y-14000D01*
Y-14593D01*
Y-15187D01*
Y-15780D01*
X-281380D01*
Y-16373D01*
Y-16967D01*
Y-17560D01*
Y-18153D01*
Y-18747D01*
Y-19340D01*
Y-19933D01*
X-277227D01*
Y-20527D01*
Y-21120D01*
Y-21713D01*
Y-22307D01*
Y-22900D01*
Y-23493D01*
Y-24087D01*
X-289687D01*
Y-23493D01*
Y-22900D01*
Y-22307D01*
Y-21713D01*
Y-21120D01*
Y-20527D01*
Y-19933D01*
X-293840D01*
Y-20527D01*
Y-21120D01*
Y-21713D01*
Y-22307D01*
Y-22900D01*
Y-23493D01*
Y-24087D01*
X-289687D01*
Y-24680D01*
Y-25273D01*
Y-25867D01*
Y-26460D01*
Y-27053D01*
Y-27647D01*
Y-28240D01*
X-285533D01*
Y-28833D01*
Y-29427D01*
Y-30020D01*
Y-30613D01*
Y-31207D01*
Y-31800D01*
Y-32393D01*
X-289687D01*
Y-32987D01*
Y-33580D01*
Y-34173D01*
Y-34767D01*
Y-35360D01*
Y-35953D01*
Y-36547D01*
X-293840D01*
Y-37140D01*
Y-37733D01*
Y-38327D01*
Y-38920D01*
Y-39513D01*
Y-40107D01*
Y-40700D01*
X-289687D01*
Y-41293D01*
Y-41887D01*
Y-42480D01*
Y-43073D01*
Y-43667D01*
Y-44260D01*
Y-44853D01*
X-281380D01*
Y-44260D01*
Y-43667D01*
Y-43073D01*
Y-42480D01*
Y-41887D01*
Y-41293D01*
Y-40700D01*
X-285533D01*
Y-40107D01*
Y-39513D01*
Y-38920D01*
Y-38327D01*
Y-37733D01*
Y-37140D01*
Y-36547D01*
X-281380D01*
Y-37140D01*
Y-37733D01*
Y-38327D01*
Y-38920D01*
Y-39513D01*
Y-40107D01*
Y-40700D01*
X-277227D01*
Y-41293D01*
Y-41887D01*
Y-42480D01*
Y-43073D01*
Y-43667D01*
Y-44260D01*
Y-44853D01*
Y-45447D01*
Y-46040D01*
Y-46633D01*
Y-47227D01*
Y-47820D01*
Y-48413D01*
Y-49007D01*
X-273073D01*
Y-49600D01*
Y-50193D01*
Y-50787D01*
Y-51380D01*
Y-51973D01*
Y-52567D01*
Y-53160D01*
X-268920D01*
Y-53753D01*
Y-54347D01*
Y-54940D01*
Y-55533D01*
Y-56127D01*
Y-56720D01*
Y-57313D01*
X-264767D01*
Y-57907D01*
Y-58500D01*
Y-59093D01*
Y-59687D01*
Y-60280D01*
Y-60873D01*
Y-61467D01*
Y-62060D01*
Y-62653D01*
Y-63247D01*
Y-63840D01*
Y-64433D01*
Y-65027D01*
Y-65620D01*
X-268920D01*
Y-65027D01*
Y-64433D01*
Y-63840D01*
Y-63247D01*
Y-62653D01*
Y-62060D01*
Y-61467D01*
Y-60873D01*
Y-60280D01*
Y-59687D01*
Y-59093D01*
Y-58500D01*
Y-57907D01*
Y-57313D01*
X-273073D01*
Y-56720D01*
Y-56127D01*
Y-55533D01*
Y-54940D01*
Y-54347D01*
Y-53753D01*
Y-53160D01*
X-277227D01*
Y-52567D01*
Y-51973D01*
Y-51380D01*
Y-50787D01*
Y-50193D01*
Y-49600D01*
Y-49007D01*
X-281380D01*
Y-49600D01*
Y-50193D01*
Y-50787D01*
Y-51380D01*
Y-51973D01*
Y-52567D01*
Y-53160D01*
Y-53753D01*
Y-54347D01*
Y-54940D01*
Y-55533D01*
Y-56127D01*
Y-56720D01*
Y-57313D01*
X-277227D01*
Y-57907D01*
Y-58500D01*
Y-59093D01*
Y-59687D01*
Y-60280D01*
Y-60873D01*
Y-61467D01*
Y-62060D01*
Y-62653D01*
Y-63247D01*
Y-63840D01*
Y-64433D01*
Y-65027D01*
Y-65620D01*
X-268920D01*
Y-66213D01*
Y-66807D01*
Y-67400D01*
Y-67993D01*
Y-68587D01*
Y-69180D01*
Y-69773D01*
X-281380D01*
Y-69180D01*
Y-68587D01*
Y-67993D01*
Y-67400D01*
Y-66807D01*
Y-66213D01*
Y-65620D01*
X-289687D01*
Y-66213D01*
Y-66807D01*
Y-67400D01*
Y-67993D01*
Y-68587D01*
Y-69180D01*
Y-69773D01*
X-281380D01*
Y-70367D01*
Y-70960D01*
Y-71553D01*
Y-72147D01*
Y-72740D01*
Y-73333D01*
Y-73927D01*
X-264767D01*
Y-74520D01*
Y-75113D01*
Y-75707D01*
Y-76300D01*
Y-76893D01*
Y-77487D01*
Y-78080D01*
X-268920D01*
Y-78673D01*
Y-79267D01*
Y-79860D01*
Y-80453D01*
Y-81047D01*
Y-81640D01*
Y-82233D01*
X-273073D01*
Y-81640D01*
Y-81047D01*
Y-80453D01*
Y-79860D01*
Y-79267D01*
Y-78673D01*
Y-78080D01*
X-277227D01*
Y-78673D01*
Y-79267D01*
Y-79860D01*
Y-80453D01*
Y-81047D01*
Y-81640D01*
Y-82233D01*
X-281380D01*
Y-81640D01*
Y-81047D01*
Y-80453D01*
Y-79860D01*
Y-79267D01*
Y-78673D01*
Y-78080D01*
X-289687D01*
Y-77487D01*
Y-76893D01*
Y-76300D01*
Y-75707D01*
Y-75113D01*
Y-74520D01*
Y-73927D01*
Y-73333D01*
Y-72740D01*
Y-72147D01*
Y-71553D01*
Y-70960D01*
Y-70367D01*
Y-69773D01*
X-293840D01*
Y-70367D01*
Y-70960D01*
Y-71553D01*
Y-72147D01*
Y-72740D01*
Y-73333D01*
Y-73927D01*
X-302147D01*
Y-74520D01*
Y-75113D01*
Y-75707D01*
Y-76300D01*
Y-76893D01*
Y-77487D01*
Y-78080D01*
Y-78673D01*
Y-79267D01*
Y-79860D01*
Y-80453D01*
Y-81047D01*
Y-81640D01*
Y-82233D01*
X-318760D01*
Y-81640D01*
Y-81047D01*
Y-80453D01*
Y-79860D01*
Y-79267D01*
Y-78673D01*
Y-78080D01*
Y-77487D01*
Y-76893D01*
Y-76300D01*
Y-75707D01*
Y-75113D01*
Y-74520D01*
Y-73927D01*
X-322913D01*
Y-73333D01*
Y-72740D01*
Y-72147D01*
Y-71553D01*
Y-70960D01*
Y-70367D01*
Y-69773D01*
X-318760D01*
Y-70367D01*
Y-70960D01*
Y-71553D01*
Y-72147D01*
Y-72740D01*
Y-73333D01*
Y-73927D01*
X-314607D01*
Y-73333D01*
Y-72740D01*
Y-72147D01*
Y-71553D01*
Y-70960D01*
Y-70367D01*
Y-69773D01*
X-318760D01*
Y-69180D01*
Y-68587D01*
Y-67993D01*
Y-67400D01*
Y-66807D01*
Y-66213D01*
Y-65620D01*
Y-65027D01*
Y-64433D01*
Y-63840D01*
Y-63247D01*
Y-62653D01*
Y-62060D01*
Y-61467D01*
Y-60873D01*
Y-60280D01*
Y-59687D01*
Y-59093D01*
Y-58500D01*
Y-57907D01*
Y-57313D01*
X-314607D01*
Y-57907D01*
Y-58500D01*
Y-59093D01*
Y-59687D01*
Y-60280D01*
Y-60873D01*
Y-61467D01*
Y-62060D01*
Y-62653D01*
Y-63247D01*
Y-63840D01*
Y-64433D01*
Y-65027D01*
Y-65620D01*
X-310453D01*
Y-65027D01*
Y-64433D01*
Y-63840D01*
Y-63247D01*
Y-62653D01*
Y-62060D01*
Y-61467D01*
X-306300D01*
Y-62060D01*
Y-62653D01*
Y-63247D01*
Y-63840D01*
Y-64433D01*
Y-65027D01*
Y-65620D01*
X-302147D01*
Y-66213D01*
Y-66807D01*
Y-67400D01*
Y-67993D01*
Y-68587D01*
Y-69180D01*
Y-69773D01*
X-297993D01*
Y-69180D01*
Y-68587D01*
Y-67993D01*
Y-67400D01*
Y-66807D01*
Y-66213D01*
Y-65620D01*
X-302147D01*
Y-65027D01*
Y-64433D01*
Y-63840D01*
Y-63247D01*
Y-62653D01*
Y-62060D01*
Y-61467D01*
Y-60873D01*
Y-60280D01*
Y-59687D01*
Y-59093D01*
Y-58500D01*
Y-57907D01*
Y-57313D01*
X-306300D01*
Y-56720D01*
Y-56127D01*
Y-55533D01*
Y-54940D01*
Y-54347D01*
Y-53753D01*
Y-53160D01*
X-314607D01*
Y-52567D01*
Y-51973D01*
Y-51380D01*
Y-50787D01*
Y-50193D01*
Y-49600D01*
Y-49007D01*
X-318760D01*
Y-48413D01*
Y-47820D01*
Y-47227D01*
Y-46633D01*
Y-46040D01*
Y-45447D01*
Y-44853D01*
X-327067D01*
Y-45447D01*
Y-46040D01*
Y-46633D01*
Y-47227D01*
Y-47820D01*
Y-48413D01*
Y-49007D01*
X-331220D01*
Y-48413D01*
Y-47820D01*
Y-47227D01*
Y-46633D01*
Y-46040D01*
Y-45447D01*
Y-44853D01*
Y-44260D01*
Y-43667D01*
Y-43073D01*
Y-42480D01*
Y-41887D01*
Y-41293D01*
Y-40700D01*
Y-40107D01*
Y-39513D01*
Y-38920D01*
Y-38327D01*
Y-37733D01*
Y-37140D01*
Y-36547D01*
X-335373D01*
Y-35953D01*
Y-35360D01*
Y-34767D01*
Y-34173D01*
Y-33580D01*
Y-32987D01*
Y-32393D01*
X-347833D01*
Y-31800D01*
Y-31207D01*
Y-30613D01*
Y-30020D01*
Y-29427D01*
Y-28833D01*
Y-28240D01*
Y-27647D01*
Y-27053D01*
Y-26460D01*
Y-25867D01*
Y-25273D01*
Y-24680D01*
Y-24087D01*
Y-23493D01*
Y-22900D01*
Y-22307D01*
Y-21713D01*
Y-21120D01*
Y-20527D01*
Y-19933D01*
X-351987D01*
Y-19340D01*
Y-18747D01*
Y-18153D01*
Y-17560D01*
Y-16967D01*
Y-16373D01*
Y-15780D01*
Y-15187D01*
Y-14593D01*
Y-14000D01*
Y-13407D01*
Y-12813D01*
Y-12220D01*
Y-11627D01*
X-356140D01*
Y-12220D01*
Y-12813D01*
Y-13407D01*
Y-14000D01*
Y-14593D01*
Y-15187D01*
Y-15780D01*
X-360293D01*
Y-16373D01*
Y-16967D01*
Y-17560D01*
Y-18153D01*
Y-18747D01*
Y-19340D01*
Y-19933D01*
Y-20527D01*
Y-21120D01*
Y-21713D01*
Y-22307D01*
Y-22900D01*
Y-23493D01*
Y-24087D01*
Y-24680D01*
Y-25273D01*
Y-25867D01*
Y-26460D01*
Y-27053D01*
Y-27647D01*
Y-28240D01*
X-356140D01*
Y-28833D01*
Y-29427D01*
Y-30020D01*
Y-30613D01*
Y-31207D01*
Y-31800D01*
Y-32393D01*
X-360293D01*
Y-31800D01*
Y-31207D01*
Y-30613D01*
Y-30020D01*
Y-29427D01*
Y-28833D01*
Y-28240D01*
X-364447D01*
Y-28833D01*
Y-29427D01*
Y-30020D01*
Y-30613D01*
Y-31207D01*
Y-31800D01*
Y-32393D01*
X-360293D01*
Y-32987D01*
Y-33580D01*
Y-34173D01*
Y-34767D01*
Y-35360D01*
Y-35953D01*
Y-36547D01*
Y-37140D01*
Y-37733D01*
Y-38327D01*
Y-38920D01*
Y-39513D01*
Y-40107D01*
Y-40700D01*
X-368600D01*
Y-41293D01*
Y-41887D01*
Y-42480D01*
Y-43073D01*
Y-43667D01*
Y-44260D01*
Y-44853D01*
X-364447D01*
Y-45447D01*
Y-46040D01*
Y-46633D01*
Y-47227D01*
Y-47820D01*
Y-48413D01*
Y-49007D01*
Y-49600D01*
Y-50193D01*
Y-50787D01*
Y-51380D01*
Y-51973D01*
Y-52567D01*
Y-53160D01*
X-351987D01*
Y-52567D01*
Y-51973D01*
Y-51380D01*
Y-50787D01*
Y-50193D01*
Y-49600D01*
Y-49007D01*
X-347833D01*
Y-49600D01*
Y-50193D01*
Y-50787D01*
Y-51380D01*
Y-51973D01*
Y-52567D01*
Y-53160D01*
X-343680D01*
Y-53753D01*
Y-54347D01*
Y-54940D01*
Y-55533D01*
Y-56127D01*
Y-56720D01*
Y-57313D01*
Y-57907D01*
Y-58500D01*
Y-59093D01*
Y-59687D01*
Y-60280D01*
Y-60873D01*
Y-61467D01*
X-335373D01*
Y-60873D01*
Y-60280D01*
Y-59687D01*
Y-59093D01*
Y-58500D01*
Y-57907D01*
Y-57313D01*
X-331220D01*
Y-56720D01*
Y-56127D01*
Y-55533D01*
Y-54940D01*
Y-54347D01*
Y-53753D01*
Y-53160D01*
X-335373D01*
Y-52567D01*
Y-51973D01*
Y-51380D01*
Y-50787D01*
Y-50193D01*
Y-49600D01*
Y-49007D01*
X-343680D01*
Y-48413D01*
Y-47820D01*
Y-47227D01*
Y-46633D01*
Y-46040D01*
Y-45447D01*
Y-44853D01*
X-335373D01*
Y-45447D01*
Y-46040D01*
Y-46633D01*
Y-47227D01*
Y-47820D01*
Y-48413D01*
Y-49007D01*
X-331220D01*
Y-49600D01*
Y-50193D01*
Y-50787D01*
Y-51380D01*
Y-51973D01*
Y-52567D01*
Y-53160D01*
X-327067D01*
Y-53753D01*
Y-54347D01*
Y-54940D01*
Y-55533D01*
Y-56127D01*
Y-56720D01*
Y-57313D01*
X-322913D01*
Y-57907D01*
Y-58500D01*
Y-59093D01*
Y-59687D01*
Y-60280D01*
Y-60873D01*
Y-61467D01*
X-331220D01*
Y-62060D01*
Y-62653D01*
Y-63247D01*
Y-63840D01*
Y-64433D01*
Y-65027D01*
Y-65620D01*
X-335373D01*
Y-66213D01*
Y-66807D01*
Y-67400D01*
Y-67993D01*
Y-68587D01*
Y-69180D01*
Y-69773D01*
X-339527D01*
Y-70367D01*
Y-70960D01*
Y-71553D01*
Y-72147D01*
Y-72740D01*
Y-73333D01*
Y-73927D01*
X-343680D01*
Y-73333D01*
Y-72740D01*
Y-72147D01*
Y-71553D01*
Y-70960D01*
Y-70367D01*
Y-69773D01*
Y-69180D01*
Y-68587D01*
Y-67993D01*
Y-67400D01*
Y-66807D01*
Y-66213D01*
Y-65620D01*
Y-65027D01*
Y-64433D01*
Y-63840D01*
Y-63247D01*
Y-62653D01*
Y-62060D01*
Y-61467D01*
X-347833D01*
Y-60873D01*
Y-60280D01*
Y-59687D01*
Y-59093D01*
Y-58500D01*
Y-57907D01*
Y-57313D01*
X-356140D01*
Y-57907D01*
Y-58500D01*
Y-59093D01*
Y-59687D01*
Y-60280D01*
Y-60873D01*
Y-61467D01*
Y-62060D01*
Y-62653D01*
Y-63247D01*
Y-63840D01*
Y-64433D01*
Y-65027D01*
Y-65620D01*
X-347833D01*
Y-66213D01*
Y-66807D01*
Y-67400D01*
Y-67993D01*
Y-68587D01*
Y-69180D01*
Y-69773D01*
Y-70367D01*
Y-70960D01*
Y-71553D01*
Y-72147D01*
Y-72740D01*
Y-73333D01*
Y-73927D01*
X-351987D01*
Y-73333D01*
Y-72740D01*
Y-72147D01*
Y-71553D01*
Y-70960D01*
Y-70367D01*
Y-69773D01*
X-356140D01*
Y-69180D01*
Y-68587D01*
Y-67993D01*
Y-67400D01*
Y-66807D01*
Y-66213D01*
Y-65620D01*
X-360293D01*
Y-65027D01*
Y-64433D01*
Y-63840D01*
Y-63247D01*
Y-62653D01*
Y-62060D01*
Y-61467D01*
Y-60873D01*
Y-60280D01*
Y-59687D01*
Y-59093D01*
Y-58500D01*
Y-57907D01*
Y-57313D01*
X-368600D01*
Y-56720D01*
Y-56127D01*
Y-55533D01*
Y-54940D01*
Y-54347D01*
Y-53753D01*
Y-53160D01*
Y-52567D01*
Y-51973D01*
Y-51380D01*
Y-50787D01*
Y-50193D01*
Y-49600D01*
Y-49007D01*
X-385213D01*
Y-48413D01*
Y-47820D01*
Y-47227D01*
Y-46633D01*
Y-46040D01*
Y-45447D01*
Y-44853D01*
X-389367D01*
Y-44260D01*
Y-43667D01*
Y-43073D01*
Y-42480D01*
Y-41887D01*
Y-41293D01*
Y-40700D01*
X-385213D01*
Y-41293D01*
Y-41887D01*
Y-42480D01*
Y-43073D01*
Y-43667D01*
Y-44260D01*
Y-44853D01*
X-372753D01*
Y-44260D01*
Y-43667D01*
Y-43073D01*
Y-42480D01*
Y-41887D01*
Y-41293D01*
Y-40700D01*
X-381060D01*
Y-40107D01*
Y-39513D01*
Y-38920D01*
Y-38327D01*
Y-37733D01*
Y-37140D01*
Y-36547D01*
X-372753D01*
Y-35953D01*
Y-35360D01*
Y-34767D01*
Y-34173D01*
Y-33580D01*
Y-32987D01*
Y-32393D01*
X-376907D01*
Y-31800D01*
Y-31207D01*
Y-30613D01*
Y-30020D01*
Y-29427D01*
Y-28833D01*
Y-28240D01*
X-381060D01*
Y-27647D01*
Y-27053D01*
Y-26460D01*
Y-25867D01*
Y-25273D01*
Y-24680D01*
Y-24087D01*
Y-23493D01*
Y-22900D01*
Y-22307D01*
Y-21713D01*
Y-21120D01*
Y-20527D01*
Y-19933D01*
X-372753D01*
Y-20527D01*
Y-21120D01*
Y-21713D01*
Y-22307D01*
Y-22900D01*
Y-23493D01*
Y-24087D01*
X-368600D01*
Y-23493D01*
Y-22900D01*
Y-22307D01*
Y-21713D01*
Y-21120D01*
Y-20527D01*
Y-19933D01*
X-372753D01*
Y-19340D01*
Y-18747D01*
Y-18153D01*
Y-17560D01*
Y-16967D01*
Y-16373D01*
Y-15780D01*
X-376907D01*
Y-15187D01*
Y-14593D01*
Y-14000D01*
Y-13407D01*
Y-12813D01*
Y-12220D01*
Y-11627D01*
X-372753D01*
Y-12220D01*
Y-12813D01*
Y-13407D01*
Y-14000D01*
Y-14593D01*
Y-15187D01*
Y-15780D01*
X-368600D01*
Y-16373D01*
Y-16967D01*
Y-17560D01*
Y-18153D01*
Y-18747D01*
Y-19340D01*
Y-19933D01*
X-364447D01*
Y-19340D01*
Y-18747D01*
Y-18153D01*
Y-17560D01*
Y-16967D01*
Y-16373D01*
Y-15780D01*
X-368600D01*
Y-15187D01*
Y-14593D01*
Y-14000D01*
Y-13407D01*
Y-12813D01*
Y-12220D01*
Y-11627D01*
X-372753D01*
Y-11033D01*
Y-10440D01*
Y-9847D01*
Y-9253D01*
Y-8660D01*
Y-8067D01*
Y-7473D01*
X-376907D01*
Y-6880D01*
Y-6287D01*
Y-5693D01*
Y-5100D01*
Y-4507D01*
Y-3913D01*
Y-3320D01*
X-372753D01*
Y-3913D01*
Y-4507D01*
Y-5100D01*
Y-5693D01*
Y-6287D01*
Y-6880D01*
Y-7473D01*
X-368600D01*
Y-6880D01*
Y-6287D01*
Y-5693D01*
Y-5100D01*
Y-4507D01*
Y-3913D01*
Y-3320D01*
Y-2727D01*
Y-2133D01*
Y-1540D01*
Y-947D01*
Y-353D01*
Y240D01*
Y833D01*
X-381060D01*
Y1427D01*
Y2020D01*
Y2613D01*
Y3207D01*
Y3800D01*
Y4393D01*
Y4987D01*
X-389367D01*
Y5580D01*
Y6173D01*
Y6767D01*
Y7360D01*
Y7953D01*
Y8547D01*
Y9140D01*
X-393520D01*
Y9733D01*
Y10327D01*
Y10920D01*
Y11513D01*
Y12107D01*
Y12700D01*
Y13293D01*
X-389367D01*
Y12700D01*
Y12107D01*
Y11513D01*
Y10920D01*
Y10327D01*
Y9733D01*
Y9140D01*
X-381060D01*
Y9733D01*
Y10327D01*
Y10920D01*
Y11513D01*
Y12107D01*
Y12700D01*
Y13293D01*
X-372753D01*
Y12700D01*
Y12107D01*
Y11513D01*
Y10920D01*
Y10327D01*
Y9733D01*
Y9140D01*
X-376907D01*
Y8547D01*
Y7953D01*
Y7360D01*
Y6767D01*
Y6173D01*
Y5580D01*
Y4987D01*
X-368600D01*
Y5580D01*
Y6173D01*
Y6767D01*
Y7360D01*
Y7953D01*
Y8547D01*
Y9140D01*
Y9733D01*
Y10327D01*
Y10920D01*
Y11513D01*
Y12107D01*
Y12700D01*
Y13293D01*
X-372753D01*
Y13887D01*
Y14480D01*
Y15073D01*
Y15667D01*
Y16260D01*
Y16853D01*
Y17447D01*
X-376907D01*
Y18040D01*
Y18633D01*
Y19227D01*
Y19820D01*
Y20413D01*
Y21007D01*
Y21600D01*
X-356140D01*
Y21007D01*
Y20413D01*
Y19820D01*
Y19227D01*
Y18633D01*
Y18040D01*
Y17447D01*
X-351987D01*
Y16853D01*
Y16260D01*
Y15667D01*
Y15073D01*
Y14480D01*
Y13887D01*
Y13293D01*
X-343680D01*
Y12700D01*
Y12107D01*
Y11513D01*
Y10920D01*
Y10327D01*
Y9733D01*
Y9140D01*
Y8547D01*
Y7953D01*
Y7360D01*
Y6767D01*
Y6173D01*
Y5580D01*
Y4987D01*
X-335373D01*
Y5580D01*
Y6173D01*
Y6767D01*
Y7360D01*
Y7953D01*
Y8547D01*
Y9140D01*
X-339527D01*
Y9733D01*
Y10327D01*
Y10920D01*
Y11513D01*
Y12107D01*
Y12700D01*
Y13293D01*
X-327067D01*
Y12700D01*
Y12107D01*
Y11513D01*
Y10920D01*
Y10327D01*
Y9733D01*
Y9140D01*
X-331220D01*
Y8547D01*
Y7953D01*
Y7360D01*
Y6767D01*
Y6173D01*
Y5580D01*
Y4987D01*
X-322913D01*
Y4393D01*
Y3800D01*
Y3207D01*
Y2613D01*
Y2020D01*
Y1427D01*
Y833D01*
X-318760D01*
Y1427D01*
Y2020D01*
Y2613D01*
Y3207D01*
Y3800D01*
Y4393D01*
Y4987D01*
X-322913D01*
Y5580D01*
Y6173D01*
Y6767D01*
Y7360D01*
Y7953D01*
Y8547D01*
Y9140D01*
Y9733D01*
Y10327D01*
Y10920D01*
Y11513D01*
Y12107D01*
Y12700D01*
Y13293D01*
X-327067D01*
Y13887D01*
Y14480D01*
Y15073D01*
Y15667D01*
Y16260D01*
Y16853D01*
Y17447D01*
X-318760D01*
Y18040D01*
Y18633D01*
Y19227D01*
Y19820D01*
Y20413D01*
Y21007D01*
Y21600D01*
X-322913D01*
Y22193D01*
Y22787D01*
Y23380D01*
Y23973D01*
Y24567D01*
Y25160D01*
Y25753D01*
X-327067D01*
Y26347D01*
Y26940D01*
Y27533D01*
Y28127D01*
Y28720D01*
Y29313D01*
Y29907D01*
X-331220D01*
Y29313D01*
Y28720D01*
Y28127D01*
Y27533D01*
Y26940D01*
Y26347D01*
Y25753D01*
Y25160D01*
Y24567D01*
Y23973D01*
Y23380D01*
Y22787D01*
Y22193D01*
Y21600D01*
X-335373D01*
Y22193D01*
Y22787D01*
Y23380D01*
Y23973D01*
Y24567D01*
Y25160D01*
Y25753D01*
Y26347D01*
Y26940D01*
Y27533D01*
Y28127D01*
Y28720D01*
Y29313D01*
Y29907D01*
X-339527D01*
Y29313D01*
Y28720D01*
Y28127D01*
Y27533D01*
Y26940D01*
Y26347D01*
Y25753D01*
Y25160D01*
Y24567D01*
Y23973D01*
Y23380D01*
Y22787D01*
Y22193D01*
Y21600D01*
X-335373D01*
Y21007D01*
Y20413D01*
Y19820D01*
Y19227D01*
Y18633D01*
Y18040D01*
Y17447D01*
X-343680D01*
Y18040D01*
Y18633D01*
Y19227D01*
Y19820D01*
Y20413D01*
Y21007D01*
Y21600D01*
Y22193D01*
Y22787D01*
Y23380D01*
Y23973D01*
Y24567D01*
Y25160D01*
Y25753D01*
Y26347D01*
Y26940D01*
Y27533D01*
Y28127D01*
Y28720D01*
Y29313D01*
Y29907D01*
X-347833D01*
Y29313D01*
Y28720D01*
Y28127D01*
Y27533D01*
Y26940D01*
Y26347D01*
Y25753D01*
X-351987D01*
Y26347D01*
Y26940D01*
Y27533D01*
Y28127D01*
Y28720D01*
Y29313D01*
Y29907D01*
Y30500D01*
Y31093D01*
Y31687D01*
Y32280D01*
Y32873D01*
Y33467D01*
Y34060D01*
X-356140D01*
Y34653D01*
Y35247D01*
Y35840D01*
Y36433D01*
Y37027D01*
Y37620D01*
Y38213D01*
X-351987D01*
Y38807D01*
Y39400D01*
Y39993D01*
Y40587D01*
Y41180D01*
Y41773D01*
Y42367D01*
X-356140D01*
Y42960D01*
Y43553D01*
Y44147D01*
Y44740D01*
Y45333D01*
Y45927D01*
Y46520D01*
X-351987D01*
Y45927D01*
Y45333D01*
Y44740D01*
Y44147D01*
Y43553D01*
Y42960D01*
Y42367D01*
X-347833D01*
Y42960D01*
Y43553D01*
Y44147D01*
Y44740D01*
Y45333D01*
Y45927D01*
Y46520D01*
X-351987D01*
Y47113D01*
Y47707D01*
Y48300D01*
Y48893D01*
Y49487D01*
Y50080D01*
Y50673D01*
X-343680D01*
Y51267D01*
Y51860D01*
Y52453D01*
Y53047D01*
Y53640D01*
Y54233D01*
Y54827D01*
X-331220D01*
Y54233D01*
Y53640D01*
Y53047D01*
Y52453D01*
Y51860D01*
Y51267D01*
Y50673D01*
X-322913D01*
Y50080D01*
Y49487D01*
Y48893D01*
Y48300D01*
Y47707D01*
Y47113D01*
Y46520D01*
X-318760D01*
Y47113D01*
Y47707D01*
Y48300D01*
Y48893D01*
Y49487D01*
Y50080D01*
Y50673D01*
X-322913D01*
Y51267D01*
Y51860D01*
Y52453D01*
Y53047D01*
Y53640D01*
Y54233D01*
Y54827D01*
X-318760D01*
Y54233D01*
D02*
G37*
G36*
X-356140D02*
Y53640D01*
Y53047D01*
Y52453D01*
Y51860D01*
Y51267D01*
Y50673D01*
X-360293D01*
Y50080D01*
Y49487D01*
Y48893D01*
Y48300D01*
Y47707D01*
Y47113D01*
Y46520D01*
Y45927D01*
Y45333D01*
Y44740D01*
Y44147D01*
Y43553D01*
Y42960D01*
Y42367D01*
Y41773D01*
Y41180D01*
Y40587D01*
Y39993D01*
Y39400D01*
Y38807D01*
Y38213D01*
X-368600D01*
Y38807D01*
Y39400D01*
Y39993D01*
Y40587D01*
Y41180D01*
Y41773D01*
Y42367D01*
X-364447D01*
Y42960D01*
Y43553D01*
Y44147D01*
Y44740D01*
Y45333D01*
Y45927D01*
Y46520D01*
X-368600D01*
Y47113D01*
Y47707D01*
Y48300D01*
Y48893D01*
Y49487D01*
Y50080D01*
Y50673D01*
X-364447D01*
Y51267D01*
Y51860D01*
Y52453D01*
Y53047D01*
Y53640D01*
Y54233D01*
Y54827D01*
X-356140D01*
Y54233D01*
D02*
G37*
G36*
X-264767D02*
Y53640D01*
Y53047D01*
Y52453D01*
Y51860D01*
Y51267D01*
Y50673D01*
Y50080D01*
Y49487D01*
Y48893D01*
Y48300D01*
Y47707D01*
Y47113D01*
Y46520D01*
Y45927D01*
Y45333D01*
Y44740D01*
Y44147D01*
Y43553D01*
Y42960D01*
Y42367D01*
Y41773D01*
Y41180D01*
Y40587D01*
Y39993D01*
Y39400D01*
Y38807D01*
Y38213D01*
Y37620D01*
Y37027D01*
Y36433D01*
Y35840D01*
Y35247D01*
Y34653D01*
Y34060D01*
Y33467D01*
Y32873D01*
Y32280D01*
Y31687D01*
Y31093D01*
Y30500D01*
Y29907D01*
Y29313D01*
Y28720D01*
Y28127D01*
Y27533D01*
Y26940D01*
Y26347D01*
Y25753D01*
X-293840D01*
Y26347D01*
Y26940D01*
Y27533D01*
Y28127D01*
Y28720D01*
Y29313D01*
Y29907D01*
Y30500D01*
Y31093D01*
Y31687D01*
Y32280D01*
Y32873D01*
Y33467D01*
Y34060D01*
Y34653D01*
Y35247D01*
Y35840D01*
Y36433D01*
Y37027D01*
Y37620D01*
Y38213D01*
Y38807D01*
Y39400D01*
Y39993D01*
Y40587D01*
Y41180D01*
Y41773D01*
Y42367D01*
Y42960D01*
Y43553D01*
Y44147D01*
Y44740D01*
Y45333D01*
Y45927D01*
Y46520D01*
Y47113D01*
Y47707D01*
Y48300D01*
Y48893D01*
Y49487D01*
Y50080D01*
Y50673D01*
Y51267D01*
Y51860D01*
Y52453D01*
Y53047D01*
Y53640D01*
Y54233D01*
Y54827D01*
X-264767D01*
Y54233D01*
D02*
G37*
G36*
X-364447Y33467D02*
Y32873D01*
Y32280D01*
Y31687D01*
Y31093D01*
Y30500D01*
Y29907D01*
Y29313D01*
Y28720D01*
Y28127D01*
Y27533D01*
Y26940D01*
Y26347D01*
Y25753D01*
X-368600D01*
Y26347D01*
Y26940D01*
Y27533D01*
Y28127D01*
Y28720D01*
Y29313D01*
Y29907D01*
Y30500D01*
Y31093D01*
Y31687D01*
Y32280D01*
Y32873D01*
Y33467D01*
Y34060D01*
X-364447D01*
Y33467D01*
D02*
G37*
G36*
X-372753Y54233D02*
Y53640D01*
Y53047D01*
Y52453D01*
Y51860D01*
Y51267D01*
Y50673D01*
Y50080D01*
Y49487D01*
Y48893D01*
Y48300D01*
Y47707D01*
Y47113D01*
Y46520D01*
Y45927D01*
Y45333D01*
Y44740D01*
Y44147D01*
Y43553D01*
Y42960D01*
Y42367D01*
Y41773D01*
Y41180D01*
Y40587D01*
Y39993D01*
Y39400D01*
Y38807D01*
Y38213D01*
Y37620D01*
Y37027D01*
Y36433D01*
Y35840D01*
Y35247D01*
Y34653D01*
Y34060D01*
Y33467D01*
Y32873D01*
Y32280D01*
Y31687D01*
Y31093D01*
Y30500D01*
Y29907D01*
Y29313D01*
Y28720D01*
Y28127D01*
Y27533D01*
Y26940D01*
Y26347D01*
Y25753D01*
X-401827D01*
Y26347D01*
Y26940D01*
Y27533D01*
Y28127D01*
Y28720D01*
Y29313D01*
Y29907D01*
Y30500D01*
Y31093D01*
Y31687D01*
Y32280D01*
Y32873D01*
Y33467D01*
Y34060D01*
Y34653D01*
Y35247D01*
Y35840D01*
Y36433D01*
Y37027D01*
Y37620D01*
Y38213D01*
Y38807D01*
Y39400D01*
Y39993D01*
Y40587D01*
Y41180D01*
Y41773D01*
Y42367D01*
Y42960D01*
Y43553D01*
Y44147D01*
Y44740D01*
Y45333D01*
Y45927D01*
Y46520D01*
Y47113D01*
Y47707D01*
Y48300D01*
Y48893D01*
Y49487D01*
Y50080D01*
Y50673D01*
Y51267D01*
Y51860D01*
Y52453D01*
Y53047D01*
Y53640D01*
Y54233D01*
Y54827D01*
X-372753D01*
Y54233D01*
D02*
G37*
G36*
X-356140Y33467D02*
Y32873D01*
Y32280D01*
Y31687D01*
Y31093D01*
Y30500D01*
Y29907D01*
Y29313D01*
Y28720D01*
Y28127D01*
Y27533D01*
Y26940D01*
Y26347D01*
Y25753D01*
X-351987D01*
Y25160D01*
Y24567D01*
Y23973D01*
Y23380D01*
Y22787D01*
Y22193D01*
Y21600D01*
X-356140D01*
Y22193D01*
Y22787D01*
Y23380D01*
Y23973D01*
Y24567D01*
Y25160D01*
Y25753D01*
X-360293D01*
Y26347D01*
Y26940D01*
Y27533D01*
Y28127D01*
Y28720D01*
Y29313D01*
Y29907D01*
Y30500D01*
Y31093D01*
Y31687D01*
Y32280D01*
Y32873D01*
Y33467D01*
Y34060D01*
X-356140D01*
Y33467D01*
D02*
G37*
G36*
X-268920Y21007D02*
Y20413D01*
Y19820D01*
Y19227D01*
Y18633D01*
Y18040D01*
Y17447D01*
X-273073D01*
Y18040D01*
Y18633D01*
Y19227D01*
Y19820D01*
Y20413D01*
Y21007D01*
Y21600D01*
X-268920D01*
Y21007D01*
D02*
G37*
G36*
X-381060D02*
Y20413D01*
Y19820D01*
Y19227D01*
Y18633D01*
Y18040D01*
Y17447D01*
X-401827D01*
Y18040D01*
Y18633D01*
Y19227D01*
Y19820D01*
Y20413D01*
Y21007D01*
Y21600D01*
X-381060D01*
Y21007D01*
D02*
G37*
G36*
X-277227D02*
Y20413D01*
Y19820D01*
Y19227D01*
Y18633D01*
Y18040D01*
Y17447D01*
X-273073D01*
Y16853D01*
Y16260D01*
Y15667D01*
Y15073D01*
Y14480D01*
Y13887D01*
Y13293D01*
X-268920D01*
Y12700D01*
Y12107D01*
Y11513D01*
Y10920D01*
Y10327D01*
Y9733D01*
Y9140D01*
X-264767D01*
Y8547D01*
Y7953D01*
Y7360D01*
Y6767D01*
Y6173D01*
Y5580D01*
Y4987D01*
X-268920D01*
Y4393D01*
Y3800D01*
Y3207D01*
Y2613D01*
Y2020D01*
Y1427D01*
Y833D01*
X-273073D01*
Y240D01*
Y-353D01*
Y-947D01*
Y-1540D01*
Y-2133D01*
Y-2727D01*
Y-3320D01*
X-268920D01*
Y-3913D01*
Y-4507D01*
Y-5100D01*
Y-5693D01*
Y-6287D01*
Y-6880D01*
Y-7473D01*
X-264767D01*
Y-8067D01*
Y-8660D01*
Y-9253D01*
Y-9847D01*
Y-10440D01*
Y-11033D01*
Y-11627D01*
X-268920D01*
Y-12220D01*
Y-12813D01*
Y-13407D01*
Y-14000D01*
Y-14593D01*
Y-15187D01*
Y-15780D01*
X-273073D01*
Y-15187D01*
Y-14593D01*
Y-14000D01*
Y-13407D01*
Y-12813D01*
Y-12220D01*
Y-11627D01*
X-277227D01*
Y-11033D01*
Y-10440D01*
Y-9847D01*
Y-9253D01*
Y-8660D01*
Y-8067D01*
Y-7473D01*
X-285533D01*
Y-6880D01*
Y-6287D01*
Y-5693D01*
Y-5100D01*
Y-4507D01*
Y-3913D01*
Y-3320D01*
X-281380D01*
Y-2727D01*
Y-2133D01*
Y-1540D01*
Y-947D01*
Y-353D01*
Y240D01*
Y833D01*
X-277227D01*
Y1427D01*
Y2020D01*
Y2613D01*
Y3207D01*
Y3800D01*
Y4393D01*
Y4987D01*
Y5580D01*
Y6173D01*
Y6767D01*
Y7360D01*
Y7953D01*
Y8547D01*
Y9140D01*
X-289687D01*
Y9733D01*
Y10327D01*
Y10920D01*
Y11513D01*
Y12107D01*
Y12700D01*
Y13293D01*
X-293840D01*
Y13887D01*
Y14480D01*
Y15073D01*
Y15667D01*
Y16260D01*
Y16853D01*
Y17447D01*
X-297993D01*
Y18040D01*
Y18633D01*
Y19227D01*
Y19820D01*
Y20413D01*
Y21007D01*
Y21600D01*
X-293840D01*
Y21007D01*
Y20413D01*
Y19820D01*
Y19227D01*
Y18633D01*
Y18040D01*
Y17447D01*
X-289687D01*
Y18040D01*
Y18633D01*
Y19227D01*
Y19820D01*
Y20413D01*
Y21007D01*
Y21600D01*
X-285533D01*
Y21007D01*
Y20413D01*
Y19820D01*
Y19227D01*
Y18633D01*
Y18040D01*
Y17447D01*
Y16853D01*
Y16260D01*
Y15667D01*
Y15073D01*
Y14480D01*
Y13887D01*
Y13293D01*
X-281380D01*
Y13887D01*
Y14480D01*
Y15073D01*
Y15667D01*
Y16260D01*
Y16853D01*
Y17447D01*
Y18040D01*
Y18633D01*
Y19227D01*
Y19820D01*
Y20413D01*
Y21007D01*
Y21600D01*
X-277227D01*
Y21007D01*
D02*
G37*
G36*
X-297993Y16853D02*
Y16260D01*
Y15667D01*
Y15073D01*
Y14480D01*
Y13887D01*
Y13293D01*
Y12700D01*
Y12107D01*
Y11513D01*
Y10920D01*
Y10327D01*
Y9733D01*
Y9140D01*
X-302147D01*
Y9733D01*
Y10327D01*
Y10920D01*
Y11513D01*
Y12107D01*
Y12700D01*
Y13293D01*
Y13887D01*
Y14480D01*
Y15073D01*
Y15667D01*
Y16260D01*
Y16853D01*
Y17447D01*
X-297993D01*
Y16853D01*
D02*
G37*
G36*
X-393520Y8547D02*
Y7953D01*
Y7360D01*
Y6767D01*
Y6173D01*
Y5580D01*
Y4987D01*
X-397673D01*
Y5580D01*
Y6173D01*
Y6767D01*
Y7360D01*
Y7953D01*
Y8547D01*
Y9140D01*
X-393520D01*
Y8547D01*
D02*
G37*
G36*
X-302147Y240D02*
Y-353D01*
Y-947D01*
Y-1540D01*
Y-2133D01*
Y-2727D01*
Y-3320D01*
X-306300D01*
Y-2727D01*
Y-2133D01*
Y-1540D01*
Y-947D01*
Y-353D01*
Y240D01*
Y833D01*
X-302147D01*
Y240D01*
D02*
G37*
G36*
X-277227Y-12220D02*
Y-12813D01*
Y-13407D01*
Y-14000D01*
Y-14593D01*
Y-15187D01*
Y-15780D01*
X-273073D01*
Y-16373D01*
Y-16967D01*
Y-17560D01*
Y-18153D01*
Y-18747D01*
Y-19340D01*
Y-19933D01*
X-277227D01*
Y-19340D01*
Y-18747D01*
Y-18153D01*
Y-17560D01*
Y-16967D01*
Y-16373D01*
Y-15780D01*
X-281380D01*
Y-15187D01*
Y-14593D01*
Y-14000D01*
Y-13407D01*
Y-12813D01*
Y-12220D01*
Y-11627D01*
X-277227D01*
Y-12220D01*
D02*
G37*
G36*
X-389367Y240D02*
Y-353D01*
Y-947D01*
Y-1540D01*
Y-2133D01*
Y-2727D01*
Y-3320D01*
X-385213D01*
Y-3913D01*
Y-4507D01*
Y-5100D01*
Y-5693D01*
Y-6287D01*
Y-6880D01*
Y-7473D01*
X-381060D01*
Y-8067D01*
Y-8660D01*
Y-9253D01*
Y-9847D01*
Y-10440D01*
Y-11033D01*
Y-11627D01*
Y-12220D01*
Y-12813D01*
Y-13407D01*
Y-14000D01*
Y-14593D01*
Y-15187D01*
Y-15780D01*
X-385213D01*
Y-16373D01*
Y-16967D01*
Y-17560D01*
Y-18153D01*
Y-18747D01*
Y-19340D01*
Y-19933D01*
Y-20527D01*
Y-21120D01*
Y-21713D01*
Y-22307D01*
Y-22900D01*
Y-23493D01*
Y-24087D01*
Y-24680D01*
Y-25273D01*
Y-25867D01*
Y-26460D01*
Y-27053D01*
Y-27647D01*
Y-28240D01*
X-393520D01*
Y-28833D01*
Y-29427D01*
Y-30020D01*
Y-30613D01*
Y-31207D01*
Y-31800D01*
Y-32393D01*
X-397673D01*
Y-31800D01*
Y-31207D01*
Y-30613D01*
Y-30020D01*
Y-29427D01*
Y-28833D01*
Y-28240D01*
X-401827D01*
Y-27647D01*
Y-27053D01*
Y-26460D01*
Y-25867D01*
Y-25273D01*
Y-24680D01*
Y-24087D01*
Y-23493D01*
Y-22900D01*
Y-22307D01*
Y-21713D01*
Y-21120D01*
Y-20527D01*
Y-19933D01*
Y-19340D01*
Y-18747D01*
Y-18153D01*
Y-17560D01*
Y-16967D01*
Y-16373D01*
Y-15780D01*
Y-15187D01*
Y-14593D01*
Y-14000D01*
Y-13407D01*
Y-12813D01*
Y-12220D01*
Y-11627D01*
Y-11033D01*
Y-10440D01*
Y-9847D01*
Y-9253D01*
Y-8660D01*
Y-8067D01*
Y-7473D01*
Y-6880D01*
Y-6287D01*
Y-5693D01*
Y-5100D01*
Y-4507D01*
Y-3913D01*
Y-3320D01*
X-397673D01*
Y-3913D01*
Y-4507D01*
Y-5100D01*
Y-5693D01*
Y-6287D01*
Y-6880D01*
Y-7473D01*
X-393520D01*
Y-8067D01*
Y-8660D01*
Y-9253D01*
Y-9847D01*
Y-10440D01*
Y-11033D01*
Y-11627D01*
X-397673D01*
Y-12220D01*
Y-12813D01*
Y-13407D01*
Y-14000D01*
Y-14593D01*
Y-15187D01*
Y-15780D01*
X-393520D01*
Y-16373D01*
Y-16967D01*
Y-17560D01*
Y-18153D01*
Y-18747D01*
Y-19340D01*
Y-19933D01*
X-389367D01*
Y-19340D01*
Y-18747D01*
Y-18153D01*
Y-17560D01*
Y-16967D01*
Y-16373D01*
Y-15780D01*
Y-15187D01*
Y-14593D01*
Y-14000D01*
Y-13407D01*
Y-12813D01*
Y-12220D01*
Y-11627D01*
Y-11033D01*
Y-10440D01*
Y-9847D01*
Y-9253D01*
Y-8660D01*
Y-8067D01*
Y-7473D01*
Y-6880D01*
Y-6287D01*
Y-5693D01*
Y-5100D01*
Y-4507D01*
Y-3913D01*
Y-3320D01*
X-393520D01*
Y-2727D01*
Y-2133D01*
Y-1540D01*
Y-947D01*
Y-353D01*
Y240D01*
Y833D01*
X-389367D01*
Y240D01*
D02*
G37*
G36*
X-264767Y-20527D02*
Y-21120D01*
Y-21713D01*
Y-22307D01*
Y-22900D01*
Y-23493D01*
Y-24087D01*
Y-24680D01*
Y-25273D01*
Y-25867D01*
Y-26460D01*
Y-27053D01*
Y-27647D01*
Y-28240D01*
X-268920D01*
Y-27647D01*
Y-27053D01*
Y-26460D01*
Y-25867D01*
Y-25273D01*
Y-24680D01*
Y-24087D01*
Y-23493D01*
Y-22900D01*
Y-22307D01*
Y-21713D01*
Y-21120D01*
Y-20527D01*
Y-19933D01*
X-264767D01*
Y-20527D01*
D02*
G37*
G36*
X-351987Y-24680D02*
Y-25273D01*
Y-25867D01*
Y-26460D01*
Y-27053D01*
Y-27647D01*
Y-28240D01*
X-356140D01*
Y-27647D01*
Y-27053D01*
Y-26460D01*
Y-25867D01*
Y-25273D01*
Y-24680D01*
Y-24087D01*
X-351987D01*
Y-24680D01*
D02*
G37*
G36*
X-273073Y-32987D02*
Y-33580D01*
Y-34173D01*
Y-34767D01*
Y-35360D01*
Y-35953D01*
Y-36547D01*
X-277227D01*
Y-35953D01*
Y-35360D01*
Y-34767D01*
Y-34173D01*
Y-33580D01*
Y-32987D01*
Y-32393D01*
X-273073D01*
Y-32987D01*
D02*
G37*
G36*
X-268920Y-28833D02*
Y-29427D01*
Y-30020D01*
Y-30613D01*
Y-31207D01*
Y-31800D01*
Y-32393D01*
X-264767D01*
Y-32987D01*
Y-33580D01*
Y-34173D01*
Y-34767D01*
Y-35360D01*
Y-35953D01*
Y-36547D01*
Y-37140D01*
Y-37733D01*
Y-38327D01*
Y-38920D01*
Y-39513D01*
Y-40107D01*
Y-40700D01*
X-268920D01*
Y-40107D01*
Y-39513D01*
Y-38920D01*
Y-38327D01*
Y-37733D01*
Y-37140D01*
Y-36547D01*
Y-35953D01*
Y-35360D01*
Y-34767D01*
Y-34173D01*
Y-33580D01*
Y-32987D01*
Y-32393D01*
X-273073D01*
Y-31800D01*
Y-31207D01*
Y-30613D01*
Y-30020D01*
Y-29427D01*
Y-28833D01*
Y-28240D01*
X-268920D01*
Y-28833D01*
D02*
G37*
G36*
X-339527Y-37140D02*
Y-37733D01*
Y-38327D01*
Y-38920D01*
Y-39513D01*
Y-40107D01*
Y-40700D01*
X-347833D01*
Y-41293D01*
Y-41887D01*
Y-42480D01*
Y-43073D01*
Y-43667D01*
Y-44260D01*
Y-44853D01*
X-356140D01*
Y-44260D01*
Y-43667D01*
Y-43073D01*
Y-42480D01*
Y-41887D01*
Y-41293D01*
Y-40700D01*
Y-40107D01*
Y-39513D01*
Y-38920D01*
Y-38327D01*
Y-37733D01*
Y-37140D01*
Y-36547D01*
X-339527D01*
Y-37140D01*
D02*
G37*
G36*
X-268920Y-45447D02*
Y-46040D01*
Y-46633D01*
Y-47227D01*
Y-47820D01*
Y-48413D01*
Y-49007D01*
X-273073D01*
Y-48413D01*
Y-47820D01*
Y-47227D01*
Y-46633D01*
Y-46040D01*
Y-45447D01*
Y-44853D01*
X-268920D01*
Y-45447D01*
D02*
G37*
G36*
X-356140D02*
Y-46040D01*
Y-46633D01*
Y-47227D01*
Y-47820D01*
Y-48413D01*
Y-49007D01*
X-360293D01*
Y-48413D01*
Y-47820D01*
Y-47227D01*
Y-46633D01*
Y-46040D01*
Y-45447D01*
Y-44853D01*
X-356140D01*
Y-45447D01*
D02*
G37*
G36*
X-389367D02*
Y-46040D01*
Y-46633D01*
Y-47227D01*
Y-47820D01*
Y-48413D01*
Y-49007D01*
X-393520D01*
Y-48413D01*
Y-47820D01*
Y-47227D01*
Y-46633D01*
Y-46040D01*
Y-45447D01*
Y-44853D01*
X-389367D01*
Y-45447D01*
D02*
G37*
G36*
X-397673Y-32987D02*
Y-33580D01*
Y-34173D01*
Y-34767D01*
Y-35360D01*
Y-35953D01*
Y-36547D01*
Y-37140D01*
Y-37733D01*
Y-38327D01*
Y-38920D01*
Y-39513D01*
Y-40107D01*
Y-40700D01*
Y-41293D01*
Y-41887D01*
Y-42480D01*
Y-43073D01*
Y-43667D01*
Y-44260D01*
Y-44853D01*
Y-45447D01*
Y-46040D01*
Y-46633D01*
Y-47227D01*
Y-47820D01*
Y-48413D01*
Y-49007D01*
X-401827D01*
Y-48413D01*
Y-47820D01*
Y-47227D01*
Y-46633D01*
Y-46040D01*
Y-45447D01*
Y-44853D01*
Y-44260D01*
Y-43667D01*
Y-43073D01*
Y-42480D01*
Y-41887D01*
Y-41293D01*
Y-40700D01*
Y-40107D01*
Y-39513D01*
Y-38920D01*
Y-38327D01*
Y-37733D01*
Y-37140D01*
Y-36547D01*
Y-35953D01*
Y-35360D01*
Y-34767D01*
Y-34173D01*
Y-33580D01*
Y-32987D01*
Y-32393D01*
X-397673D01*
Y-32987D01*
D02*
G37*
G36*
X-318760Y-49600D02*
Y-50193D01*
Y-50787D01*
Y-51380D01*
Y-51973D01*
Y-52567D01*
Y-53160D01*
X-322913D01*
Y-52567D01*
Y-51973D01*
Y-51380D01*
Y-50787D01*
Y-50193D01*
Y-49600D01*
Y-49007D01*
X-318760D01*
Y-49600D01*
D02*
G37*
G36*
X-356140Y-70367D02*
Y-70960D01*
Y-71553D01*
Y-72147D01*
Y-72740D01*
Y-73333D01*
Y-73927D01*
Y-74520D01*
Y-75113D01*
Y-75707D01*
Y-76300D01*
Y-76893D01*
Y-77487D01*
Y-78080D01*
X-360293D01*
Y-77487D01*
Y-76893D01*
Y-76300D01*
Y-75707D01*
Y-75113D01*
Y-74520D01*
Y-73927D01*
Y-73333D01*
Y-72740D01*
Y-72147D01*
Y-71553D01*
Y-70960D01*
Y-70367D01*
Y-69773D01*
X-356140D01*
Y-70367D01*
D02*
G37*
G36*
X-289687Y-78673D02*
Y-79267D01*
Y-79860D01*
Y-80453D01*
Y-81047D01*
Y-81640D01*
Y-82233D01*
X-293840D01*
Y-81640D01*
Y-81047D01*
Y-80453D01*
Y-79860D01*
Y-79267D01*
Y-78673D01*
Y-78080D01*
X-289687D01*
Y-78673D01*
D02*
G37*
G36*
X-327067Y-70367D02*
Y-70960D01*
Y-71553D01*
Y-72147D01*
Y-72740D01*
Y-73333D01*
Y-73927D01*
X-322913D01*
Y-74520D01*
Y-75113D01*
Y-75707D01*
Y-76300D01*
Y-76893D01*
Y-77487D01*
Y-78080D01*
Y-78673D01*
Y-79267D01*
Y-79860D01*
Y-80453D01*
Y-81047D01*
Y-81640D01*
Y-82233D01*
X-327067D01*
Y-81640D01*
Y-81047D01*
Y-80453D01*
Y-79860D01*
Y-79267D01*
Y-78673D01*
Y-78080D01*
Y-77487D01*
Y-76893D01*
Y-76300D01*
Y-75707D01*
Y-75113D01*
Y-74520D01*
Y-73927D01*
X-331220D01*
Y-73333D01*
Y-72740D01*
Y-72147D01*
Y-71553D01*
Y-70960D01*
Y-70367D01*
Y-69773D01*
X-327067D01*
Y-70367D01*
D02*
G37*
G36*
X-331220Y-74520D02*
Y-75113D01*
Y-75707D01*
Y-76300D01*
Y-76893D01*
Y-77487D01*
Y-78080D01*
Y-78673D01*
Y-79267D01*
Y-79860D01*
Y-80453D01*
Y-81047D01*
Y-81640D01*
Y-82233D01*
X-339527D01*
Y-81640D01*
Y-81047D01*
Y-80453D01*
Y-79860D01*
Y-79267D01*
Y-78673D01*
Y-78080D01*
X-335373D01*
Y-77487D01*
Y-76893D01*
Y-76300D01*
Y-75707D01*
Y-75113D01*
Y-74520D01*
Y-73927D01*
X-331220D01*
Y-74520D01*
D02*
G37*
G36*
X-343680Y-78673D02*
Y-79267D01*
Y-79860D01*
Y-80453D01*
Y-81047D01*
Y-81640D01*
Y-82233D01*
X-351987D01*
Y-81640D01*
Y-81047D01*
Y-80453D01*
Y-79860D01*
Y-79267D01*
Y-78673D01*
Y-78080D01*
X-343680D01*
Y-78673D01*
D02*
G37*
G36*
X-364447Y-62060D02*
Y-62653D01*
Y-63247D01*
Y-63840D01*
Y-64433D01*
Y-65027D01*
Y-65620D01*
Y-66213D01*
Y-66807D01*
Y-67400D01*
Y-67993D01*
Y-68587D01*
Y-69180D01*
Y-69773D01*
Y-70367D01*
Y-70960D01*
Y-71553D01*
Y-72147D01*
Y-72740D01*
Y-73333D01*
Y-73927D01*
Y-74520D01*
Y-75113D01*
Y-75707D01*
Y-76300D01*
Y-76893D01*
Y-77487D01*
Y-78080D01*
X-360293D01*
Y-78673D01*
Y-79267D01*
Y-79860D01*
Y-80453D01*
Y-81047D01*
Y-81640D01*
Y-82233D01*
X-368600D01*
Y-81640D01*
Y-81047D01*
Y-80453D01*
Y-79860D01*
Y-79267D01*
Y-78673D01*
Y-78080D01*
Y-77487D01*
Y-76893D01*
Y-76300D01*
Y-75707D01*
Y-75113D01*
Y-74520D01*
Y-73927D01*
Y-73333D01*
Y-72740D01*
Y-72147D01*
Y-71553D01*
Y-70960D01*
Y-70367D01*
Y-69773D01*
Y-69180D01*
Y-68587D01*
Y-67993D01*
Y-67400D01*
Y-66807D01*
Y-66213D01*
Y-65620D01*
Y-65027D01*
Y-64433D01*
Y-63840D01*
Y-63247D01*
Y-62653D01*
Y-62060D01*
Y-61467D01*
X-364447D01*
Y-62060D01*
D02*
G37*
G36*
X-372753Y-53753D02*
Y-54347D01*
Y-54940D01*
Y-55533D01*
Y-56127D01*
Y-56720D01*
Y-57313D01*
Y-57907D01*
Y-58500D01*
Y-59093D01*
Y-59687D01*
Y-60280D01*
Y-60873D01*
Y-61467D01*
Y-62060D01*
Y-62653D01*
Y-63247D01*
Y-63840D01*
Y-64433D01*
Y-65027D01*
Y-65620D01*
Y-66213D01*
Y-66807D01*
Y-67400D01*
Y-67993D01*
Y-68587D01*
Y-69180D01*
Y-69773D01*
Y-70367D01*
Y-70960D01*
Y-71553D01*
Y-72147D01*
Y-72740D01*
Y-73333D01*
Y-73927D01*
Y-74520D01*
Y-75113D01*
Y-75707D01*
Y-76300D01*
Y-76893D01*
Y-77487D01*
Y-78080D01*
Y-78673D01*
Y-79267D01*
Y-79860D01*
Y-80453D01*
Y-81047D01*
Y-81640D01*
Y-82233D01*
X-401827D01*
Y-81640D01*
Y-81047D01*
Y-80453D01*
Y-79860D01*
Y-79267D01*
Y-78673D01*
Y-78080D01*
Y-77487D01*
Y-76893D01*
Y-76300D01*
Y-75707D01*
Y-75113D01*
Y-74520D01*
Y-73927D01*
Y-73333D01*
Y-72740D01*
Y-72147D01*
Y-71553D01*
Y-70960D01*
Y-70367D01*
Y-69773D01*
Y-69180D01*
Y-68587D01*
Y-67993D01*
Y-67400D01*
Y-66807D01*
Y-66213D01*
Y-65620D01*
Y-65027D01*
Y-64433D01*
Y-63840D01*
Y-63247D01*
Y-62653D01*
Y-62060D01*
Y-61467D01*
Y-60873D01*
Y-60280D01*
Y-59687D01*
Y-59093D01*
Y-58500D01*
Y-57907D01*
Y-57313D01*
Y-56720D01*
Y-56127D01*
Y-55533D01*
Y-54940D01*
Y-54347D01*
Y-53753D01*
Y-53160D01*
X-372753D01*
Y-53753D01*
D02*
G37*
%LPC*%
G36*
X-331220Y50673D02*
X-335373D01*
Y50080D01*
Y49487D01*
Y48893D01*
Y48300D01*
Y47707D01*
Y47113D01*
Y46520D01*
X-331220D01*
Y47113D01*
Y47707D01*
Y48300D01*
Y48893D01*
Y49487D01*
Y50080D01*
Y50673D01*
D02*
G37*
G36*
X-356140Y17447D02*
X-360293D01*
Y16853D01*
Y16260D01*
Y15667D01*
Y15073D01*
Y14480D01*
Y13887D01*
Y13293D01*
Y12700D01*
Y12107D01*
Y11513D01*
Y10920D01*
Y10327D01*
Y9733D01*
Y9140D01*
X-356140D01*
Y9733D01*
Y10327D01*
Y10920D01*
Y11513D01*
Y12107D01*
Y12700D01*
Y13293D01*
Y13887D01*
Y14480D01*
Y15073D01*
Y15667D01*
Y16260D01*
Y16853D01*
Y17447D01*
D02*
G37*
G36*
X-351987Y4987D02*
X-360293D01*
Y4393D01*
Y3800D01*
Y3207D01*
Y2613D01*
Y2020D01*
Y1427D01*
Y833D01*
X-351987D01*
Y1427D01*
Y2020D01*
Y2613D01*
Y3207D01*
Y3800D01*
Y4393D01*
Y4987D01*
D02*
G37*
G36*
X-347833Y9140D02*
X-351987D01*
Y8547D01*
Y7953D01*
Y7360D01*
Y6767D01*
Y6173D01*
Y5580D01*
Y4987D01*
X-347833D01*
Y4393D01*
Y3800D01*
Y3207D01*
Y2613D01*
Y2020D01*
Y1427D01*
Y833D01*
Y240D01*
Y-353D01*
Y-947D01*
Y-1540D01*
Y-2133D01*
Y-2727D01*
Y-3320D01*
X-343680D01*
Y-2727D01*
Y-2133D01*
Y-1540D01*
Y-947D01*
Y-353D01*
Y240D01*
Y833D01*
Y1427D01*
Y2020D01*
Y2613D01*
Y3207D01*
Y3800D01*
Y4393D01*
Y4987D01*
X-347833D01*
Y5580D01*
Y6173D01*
Y6767D01*
Y7360D01*
Y7953D01*
Y8547D01*
Y9140D01*
D02*
G37*
G36*
X-310453Y-3320D02*
X-318760D01*
Y-3913D01*
Y-4507D01*
Y-5100D01*
Y-5693D01*
Y-6287D01*
Y-6880D01*
Y-7473D01*
X-310453D01*
Y-6880D01*
Y-6287D01*
Y-5693D01*
Y-5100D01*
Y-4507D01*
Y-3913D01*
Y-3320D01*
D02*
G37*
G36*
X-327067Y833D02*
X-331220D01*
Y240D01*
Y-353D01*
Y-947D01*
Y-1540D01*
Y-2133D01*
Y-2727D01*
Y-3320D01*
X-327067D01*
Y-3913D01*
Y-4507D01*
Y-5100D01*
Y-5693D01*
Y-6287D01*
Y-6880D01*
Y-7473D01*
X-322913D01*
Y-6880D01*
Y-6287D01*
Y-5693D01*
Y-5100D01*
Y-4507D01*
Y-3913D01*
Y-3320D01*
X-327067D01*
Y-2727D01*
Y-2133D01*
Y-1540D01*
Y-947D01*
Y-353D01*
Y240D01*
Y833D01*
D02*
G37*
G36*
X-360293D02*
X-364447D01*
Y240D01*
Y-353D01*
Y-947D01*
Y-1540D01*
Y-2133D01*
Y-2727D01*
Y-3320D01*
Y-3913D01*
Y-4507D01*
Y-5100D01*
Y-5693D01*
Y-6287D01*
Y-6880D01*
Y-7473D01*
Y-8067D01*
Y-8660D01*
Y-9253D01*
Y-9847D01*
Y-10440D01*
Y-11033D01*
Y-11627D01*
X-360293D01*
Y-11033D01*
Y-10440D01*
Y-9847D01*
Y-9253D01*
Y-8660D01*
Y-8067D01*
Y-7473D01*
Y-6880D01*
Y-6287D01*
Y-5693D01*
Y-5100D01*
Y-4507D01*
Y-3913D01*
Y-3320D01*
Y-2727D01*
Y-2133D01*
Y-1540D01*
Y-947D01*
Y-353D01*
Y240D01*
Y833D01*
D02*
G37*
G36*
X-347833Y-3320D02*
X-356140D01*
Y-3913D01*
Y-4507D01*
Y-5100D01*
Y-5693D01*
Y-6287D01*
Y-6880D01*
Y-7473D01*
X-351987D01*
Y-8067D01*
Y-8660D01*
Y-9253D01*
Y-9847D01*
Y-10440D01*
Y-11033D01*
Y-11627D01*
X-347833D01*
Y-12220D01*
Y-12813D01*
Y-13407D01*
Y-14000D01*
Y-14593D01*
Y-15187D01*
Y-15780D01*
Y-16373D01*
Y-16967D01*
Y-17560D01*
Y-18153D01*
Y-18747D01*
Y-19340D01*
Y-19933D01*
X-343680D01*
Y-19340D01*
Y-18747D01*
Y-18153D01*
Y-17560D01*
Y-16967D01*
Y-16373D01*
Y-15780D01*
X-339527D01*
Y-16373D01*
Y-16967D01*
Y-17560D01*
Y-18153D01*
Y-18747D01*
Y-19340D01*
Y-19933D01*
X-335373D01*
Y-20527D01*
Y-21120D01*
Y-21713D01*
Y-22307D01*
Y-22900D01*
Y-23493D01*
Y-24087D01*
X-331220D01*
Y-24680D01*
Y-25273D01*
Y-25867D01*
Y-26460D01*
Y-27053D01*
Y-27647D01*
Y-28240D01*
Y-28833D01*
Y-29427D01*
Y-30020D01*
Y-30613D01*
Y-31207D01*
Y-31800D01*
Y-32393D01*
Y-32987D01*
Y-33580D01*
Y-34173D01*
Y-34767D01*
Y-35360D01*
Y-35953D01*
Y-36547D01*
X-318760D01*
Y-37140D01*
Y-37733D01*
Y-38327D01*
Y-38920D01*
Y-39513D01*
Y-40107D01*
Y-40700D01*
Y-41293D01*
Y-41887D01*
Y-42480D01*
Y-43073D01*
Y-43667D01*
Y-44260D01*
Y-44853D01*
X-314607D01*
Y-45447D01*
Y-46040D01*
Y-46633D01*
Y-47227D01*
Y-47820D01*
Y-48413D01*
Y-49007D01*
X-302147D01*
Y-48413D01*
Y-47820D01*
Y-47227D01*
Y-46633D01*
Y-46040D01*
Y-45447D01*
Y-44853D01*
X-314607D01*
Y-44260D01*
Y-43667D01*
Y-43073D01*
Y-42480D01*
Y-41887D01*
Y-41293D01*
Y-40700D01*
X-310453D01*
Y-40107D01*
Y-39513D01*
Y-38920D01*
Y-38327D01*
Y-37733D01*
Y-37140D01*
Y-36547D01*
X-318760D01*
Y-35953D01*
Y-35360D01*
Y-34767D01*
Y-34173D01*
Y-33580D01*
Y-32987D01*
Y-32393D01*
Y-31800D01*
Y-31207D01*
Y-30613D01*
Y-30020D01*
Y-29427D01*
Y-28833D01*
Y-28240D01*
Y-27647D01*
Y-27053D01*
Y-26460D01*
Y-25867D01*
Y-25273D01*
Y-24680D01*
Y-24087D01*
Y-23493D01*
Y-22900D01*
Y-22307D01*
Y-21713D01*
Y-21120D01*
Y-20527D01*
Y-19933D01*
Y-19340D01*
Y-18747D01*
Y-18153D01*
Y-17560D01*
Y-16967D01*
Y-16373D01*
Y-15780D01*
X-310453D01*
Y-16373D01*
Y-16967D01*
Y-17560D01*
Y-18153D01*
Y-18747D01*
Y-19340D01*
Y-19933D01*
X-297993D01*
Y-19340D01*
Y-18747D01*
Y-18153D01*
Y-17560D01*
Y-16967D01*
Y-16373D01*
Y-15780D01*
X-302147D01*
Y-15187D01*
Y-14593D01*
Y-14000D01*
Y-13407D01*
Y-12813D01*
Y-12220D01*
Y-11627D01*
X-327067D01*
Y-11033D01*
Y-10440D01*
Y-9847D01*
Y-9253D01*
Y-8660D01*
Y-8067D01*
Y-7473D01*
X-331220D01*
Y-8067D01*
Y-8660D01*
Y-9253D01*
Y-9847D01*
Y-10440D01*
Y-11033D01*
Y-11627D01*
Y-12220D01*
Y-12813D01*
Y-13407D01*
Y-14000D01*
Y-14593D01*
Y-15187D01*
Y-15780D01*
X-339527D01*
Y-15187D01*
Y-14593D01*
Y-14000D01*
Y-13407D01*
Y-12813D01*
Y-12220D01*
Y-11627D01*
X-335373D01*
Y-11033D01*
Y-10440D01*
Y-9847D01*
Y-9253D01*
Y-8660D01*
Y-8067D01*
Y-7473D01*
X-347833D01*
Y-6880D01*
Y-6287D01*
Y-5693D01*
Y-5100D01*
Y-4507D01*
Y-3913D01*
Y-3320D01*
D02*
G37*
G36*
X-339527Y-24087D02*
X-343680D01*
Y-24680D01*
Y-25273D01*
Y-25867D01*
Y-26460D01*
Y-27053D01*
Y-27647D01*
Y-28240D01*
X-339527D01*
Y-27647D01*
Y-27053D01*
Y-26460D01*
Y-25867D01*
Y-25273D01*
Y-24680D01*
Y-24087D01*
D02*
G37*
G36*
X-372753D02*
X-376907D01*
Y-24680D01*
Y-25273D01*
Y-25867D01*
Y-26460D01*
Y-27053D01*
Y-27647D01*
Y-28240D01*
X-372753D01*
Y-28833D01*
Y-29427D01*
Y-30020D01*
Y-30613D01*
Y-31207D01*
Y-31800D01*
Y-32393D01*
X-368600D01*
Y-31800D01*
Y-31207D01*
Y-30613D01*
Y-30020D01*
Y-29427D01*
Y-28833D01*
Y-28240D01*
X-372753D01*
Y-27647D01*
Y-27053D01*
Y-26460D01*
Y-25867D01*
Y-25273D01*
Y-24680D01*
Y-24087D01*
D02*
G37*
G36*
X-310453Y-19933D02*
X-314607D01*
Y-20527D01*
Y-21120D01*
Y-21713D01*
Y-22307D01*
Y-22900D01*
Y-23493D01*
Y-24087D01*
X-310453D01*
Y-24680D01*
Y-25273D01*
Y-25867D01*
Y-26460D01*
Y-27053D01*
Y-27647D01*
Y-28240D01*
Y-28833D01*
Y-29427D01*
Y-30020D01*
Y-30613D01*
Y-31207D01*
Y-31800D01*
Y-32393D01*
X-306300D01*
Y-32987D01*
Y-33580D01*
Y-34173D01*
Y-34767D01*
Y-35360D01*
Y-35953D01*
Y-36547D01*
X-302147D01*
Y-37140D01*
Y-37733D01*
Y-38327D01*
Y-38920D01*
Y-39513D01*
Y-40107D01*
Y-40700D01*
Y-41293D01*
Y-41887D01*
Y-42480D01*
Y-43073D01*
Y-43667D01*
Y-44260D01*
Y-44853D01*
X-293840D01*
Y-44260D01*
Y-43667D01*
Y-43073D01*
Y-42480D01*
Y-41887D01*
Y-41293D01*
Y-40700D01*
X-297993D01*
Y-40107D01*
Y-39513D01*
Y-38920D01*
Y-38327D01*
Y-37733D01*
Y-37140D01*
Y-36547D01*
X-302147D01*
Y-35953D01*
Y-35360D01*
Y-34767D01*
Y-34173D01*
Y-33580D01*
Y-32987D01*
Y-32393D01*
X-297993D01*
Y-31800D01*
Y-31207D01*
Y-30613D01*
Y-30020D01*
Y-29427D01*
Y-28833D01*
Y-28240D01*
X-293840D01*
Y-27647D01*
Y-27053D01*
Y-26460D01*
Y-25867D01*
Y-25273D01*
Y-24680D01*
Y-24087D01*
X-302147D01*
Y-24680D01*
Y-25273D01*
Y-25867D01*
Y-26460D01*
Y-27053D01*
Y-27647D01*
Y-28240D01*
X-306300D01*
Y-27647D01*
Y-27053D01*
Y-26460D01*
Y-25867D01*
Y-25273D01*
Y-24680D01*
Y-24087D01*
X-310453D01*
Y-23493D01*
Y-22900D01*
Y-22307D01*
Y-21713D01*
Y-21120D01*
Y-20527D01*
Y-19933D01*
D02*
G37*
G36*
X-285533Y-49007D02*
X-297993D01*
Y-49600D01*
Y-50193D01*
Y-50787D01*
Y-51380D01*
Y-51973D01*
Y-52567D01*
Y-53160D01*
Y-53753D01*
Y-54347D01*
Y-54940D01*
Y-55533D01*
Y-56127D01*
Y-56720D01*
Y-57313D01*
Y-57907D01*
Y-58500D01*
Y-59093D01*
Y-59687D01*
Y-60280D01*
Y-60873D01*
Y-61467D01*
X-285533D01*
Y-60873D01*
Y-60280D01*
Y-59687D01*
Y-59093D01*
Y-58500D01*
Y-57907D01*
Y-57313D01*
Y-56720D01*
Y-56127D01*
Y-55533D01*
Y-54940D01*
Y-54347D01*
Y-53753D01*
Y-53160D01*
Y-52567D01*
Y-51973D01*
Y-51380D01*
Y-50787D01*
Y-50193D01*
Y-49600D01*
Y-49007D01*
D02*
G37*
G36*
X-306300Y-73927D02*
X-310453D01*
Y-74520D01*
Y-75113D01*
Y-75707D01*
Y-76300D01*
Y-76893D01*
Y-77487D01*
Y-78080D01*
X-306300D01*
Y-77487D01*
Y-76893D01*
Y-76300D01*
Y-75707D01*
Y-75113D01*
Y-74520D01*
Y-73927D01*
D02*
G37*
%LPD*%
G36*
X-327067Y-20527D02*
Y-21120D01*
Y-21713D01*
Y-22307D01*
Y-22900D01*
Y-23493D01*
Y-24087D01*
X-322913D01*
Y-24680D01*
Y-25273D01*
Y-25867D01*
Y-26460D01*
Y-27053D01*
Y-27647D01*
Y-28240D01*
X-327067D01*
Y-27647D01*
Y-27053D01*
Y-26460D01*
Y-25867D01*
Y-25273D01*
Y-24680D01*
Y-24087D01*
X-331220D01*
Y-23493D01*
Y-22900D01*
Y-22307D01*
Y-21713D01*
Y-21120D01*
Y-20527D01*
Y-19933D01*
X-327067D01*
Y-20527D01*
D02*
G37*
G36*
X-289687Y-53753D02*
Y-54347D01*
Y-54940D01*
Y-55533D01*
Y-56127D01*
Y-56720D01*
Y-57313D01*
X-293840D01*
Y-56720D01*
Y-56127D01*
Y-55533D01*
Y-54940D01*
Y-54347D01*
Y-53753D01*
Y-53160D01*
X-289687D01*
Y-53753D01*
D02*
G37*
%LPC*%
G36*
X-268920Y50673D02*
X-289687D01*
Y50080D01*
Y49487D01*
Y48893D01*
Y48300D01*
Y47707D01*
Y47113D01*
Y46520D01*
Y45927D01*
Y45333D01*
Y44740D01*
Y44147D01*
Y43553D01*
Y42960D01*
Y42367D01*
Y41773D01*
Y41180D01*
Y40587D01*
Y39993D01*
Y39400D01*
Y38807D01*
Y38213D01*
Y37620D01*
Y37027D01*
Y36433D01*
Y35840D01*
Y35247D01*
Y34653D01*
Y34060D01*
Y33467D01*
Y32873D01*
Y32280D01*
Y31687D01*
Y31093D01*
Y30500D01*
Y29907D01*
X-268920D01*
Y30500D01*
Y31093D01*
Y31687D01*
Y32280D01*
Y32873D01*
Y33467D01*
Y34060D01*
Y34653D01*
Y35247D01*
Y35840D01*
Y36433D01*
Y37027D01*
Y37620D01*
Y38213D01*
Y38807D01*
Y39400D01*
Y39993D01*
Y40587D01*
Y41180D01*
Y41773D01*
Y42367D01*
Y42960D01*
Y43553D01*
Y44147D01*
Y44740D01*
Y45333D01*
Y45927D01*
Y46520D01*
Y47113D01*
Y47707D01*
Y48300D01*
Y48893D01*
Y49487D01*
Y50080D01*
Y50673D01*
D02*
G37*
%LPD*%
G36*
X-273073Y45927D02*
Y45333D01*
Y44740D01*
Y44147D01*
Y43553D01*
Y42960D01*
Y42367D01*
Y41773D01*
Y41180D01*
Y40587D01*
Y39993D01*
Y39400D01*
Y38807D01*
Y38213D01*
Y37620D01*
Y37027D01*
Y36433D01*
Y35840D01*
Y35247D01*
Y34653D01*
Y34060D01*
X-285533D01*
Y34653D01*
Y35247D01*
Y35840D01*
Y36433D01*
Y37027D01*
Y37620D01*
Y38213D01*
Y38807D01*
Y39400D01*
Y39993D01*
Y40587D01*
Y41180D01*
Y41773D01*
Y42367D01*
Y42960D01*
Y43553D01*
Y44147D01*
Y44740D01*
Y45333D01*
Y45927D01*
Y46520D01*
X-273073D01*
Y45927D01*
D02*
G37*
%LPC*%
G36*
X-376907Y50673D02*
X-397673D01*
Y50080D01*
Y49487D01*
Y48893D01*
Y48300D01*
Y47707D01*
Y47113D01*
Y46520D01*
Y45927D01*
Y45333D01*
Y44740D01*
Y44147D01*
Y43553D01*
Y42960D01*
Y42367D01*
Y41773D01*
Y41180D01*
Y40587D01*
Y39993D01*
Y39400D01*
Y38807D01*
Y38213D01*
Y37620D01*
Y37027D01*
Y36433D01*
Y35840D01*
Y35247D01*
Y34653D01*
Y34060D01*
Y33467D01*
Y32873D01*
Y32280D01*
Y31687D01*
Y31093D01*
Y30500D01*
Y29907D01*
X-376907D01*
Y30500D01*
Y31093D01*
Y31687D01*
Y32280D01*
Y32873D01*
Y33467D01*
Y34060D01*
Y34653D01*
Y35247D01*
Y35840D01*
Y36433D01*
Y37027D01*
Y37620D01*
Y38213D01*
Y38807D01*
Y39400D01*
Y39993D01*
Y40587D01*
Y41180D01*
Y41773D01*
Y42367D01*
Y42960D01*
Y43553D01*
Y44147D01*
Y44740D01*
Y45333D01*
Y45927D01*
Y46520D01*
Y47113D01*
Y47707D01*
Y48300D01*
Y48893D01*
Y49487D01*
Y50080D01*
Y50673D01*
D02*
G37*
%LPD*%
G36*
X-381060Y45927D02*
Y45333D01*
Y44740D01*
Y44147D01*
Y43553D01*
Y42960D01*
Y42367D01*
Y41773D01*
Y41180D01*
Y40587D01*
Y39993D01*
Y39400D01*
Y38807D01*
Y38213D01*
Y37620D01*
Y37027D01*
Y36433D01*
Y35840D01*
Y35247D01*
Y34653D01*
Y34060D01*
X-393520D01*
Y34653D01*
Y35247D01*
Y35840D01*
Y36433D01*
Y37027D01*
Y37620D01*
Y38213D01*
Y38807D01*
Y39400D01*
Y39993D01*
Y40587D01*
Y41180D01*
Y41773D01*
Y42367D01*
Y42960D01*
Y43553D01*
Y44147D01*
Y44740D01*
Y45333D01*
Y45927D01*
Y46520D01*
X-381060D01*
Y45927D01*
D02*
G37*
%LPC*%
G36*
X-273073Y13293D02*
X-277227D01*
Y12700D01*
Y12107D01*
Y11513D01*
Y10920D01*
Y10327D01*
Y9733D01*
Y9140D01*
X-273073D01*
Y9733D01*
Y10327D01*
Y10920D01*
Y11513D01*
Y12107D01*
Y12700D01*
Y13293D01*
D02*
G37*
G36*
Y-3320D02*
X-277227D01*
Y-3913D01*
Y-4507D01*
Y-5100D01*
Y-5693D01*
Y-6287D01*
Y-6880D01*
Y-7473D01*
X-273073D01*
Y-6880D01*
Y-6287D01*
Y-5693D01*
Y-5100D01*
Y-4507D01*
Y-3913D01*
Y-3320D01*
D02*
G37*
G36*
X-376907Y-57313D02*
X-397673D01*
Y-57907D01*
Y-58500D01*
Y-59093D01*
Y-59687D01*
Y-60280D01*
Y-60873D01*
Y-61467D01*
Y-62060D01*
Y-62653D01*
Y-63247D01*
Y-63840D01*
Y-64433D01*
Y-65027D01*
Y-65620D01*
Y-66213D01*
Y-66807D01*
Y-67400D01*
Y-67993D01*
Y-68587D01*
Y-69180D01*
Y-69773D01*
Y-70367D01*
Y-70960D01*
Y-71553D01*
Y-72147D01*
Y-72740D01*
Y-73333D01*
Y-73927D01*
Y-74520D01*
Y-75113D01*
Y-75707D01*
Y-76300D01*
Y-76893D01*
Y-77487D01*
Y-78080D01*
X-376907D01*
Y-77487D01*
Y-76893D01*
Y-76300D01*
Y-75707D01*
Y-75113D01*
Y-74520D01*
Y-73927D01*
Y-73333D01*
Y-72740D01*
Y-72147D01*
Y-71553D01*
Y-70960D01*
Y-70367D01*
Y-69773D01*
Y-69180D01*
Y-68587D01*
Y-67993D01*
Y-67400D01*
Y-66807D01*
Y-66213D01*
Y-65620D01*
Y-65027D01*
Y-64433D01*
Y-63840D01*
Y-63247D01*
Y-62653D01*
Y-62060D01*
Y-61467D01*
Y-60873D01*
Y-60280D01*
Y-59687D01*
Y-59093D01*
Y-58500D01*
Y-57907D01*
Y-57313D01*
D02*
G37*
%LPD*%
G36*
X-381060Y-62060D02*
Y-62653D01*
Y-63247D01*
Y-63840D01*
Y-64433D01*
Y-65027D01*
Y-65620D01*
Y-66213D01*
Y-66807D01*
Y-67400D01*
Y-67993D01*
Y-68587D01*
Y-69180D01*
Y-69773D01*
Y-70367D01*
Y-70960D01*
Y-71553D01*
Y-72147D01*
Y-72740D01*
Y-73333D01*
Y-73927D01*
X-393520D01*
Y-73333D01*
Y-72740D01*
Y-72147D01*
Y-71553D01*
Y-70960D01*
Y-70367D01*
Y-69773D01*
Y-69180D01*
Y-68587D01*
Y-67993D01*
Y-67400D01*
Y-66807D01*
Y-66213D01*
Y-65620D01*
Y-65027D01*
Y-64433D01*
Y-63840D01*
Y-63247D01*
Y-62653D01*
Y-62060D01*
Y-61467D01*
X-381060D01*
Y-62060D01*
D02*
G37*
D10*
X400500Y-5000D02*
X525000D01*
D11*
X410158Y-392070D02*
D03*
X158489Y-545138D02*
D03*
X-135911Y-551661D02*
D03*
X-393533Y-409797D02*
D03*
X-545421Y-157728D02*
D03*
X-550637Y135574D02*
D03*
X-409797Y393533D02*
D03*
X-158129Y545708D02*
D03*
X135911Y551661D02*
D03*
X393533Y409798D02*
D03*
X544199Y157287D02*
D03*
X551661Y-135911D02*
D03*
X276340Y498634D02*
D03*
X490594Y294361D02*
D03*
X500594Y-275639D02*
D03*
X295620Y-487933D02*
D03*
X10000Y-570000D02*
D03*
X-276340Y-498634D02*
D03*
X-486675Y-295161D02*
D03*
X-568040Y-11501D02*
D03*
X-496675Y274839D02*
D03*
X-291700Y487134D02*
D03*
X-10000Y570000D02*
D03*
D12*
X398250Y-4600D02*
D03*
D13*
Y-55400D02*
D03*
D14*
X581000Y-51000D02*
D03*
Y51000D02*
D03*
X479000D02*
D03*
Y-51000D02*
D03*
X530000Y0D02*
D03*
D19*
X574338Y-842D02*
G03*
X574338Y-842I-575847J0D01*
G01*
X190000Y0D02*
G03*
X190000Y0I-190000J0D01*
G01*
D20*
X-33000Y343000D02*
X-3000Y323000D01*
X-23000Y413000D02*
X-3000Y323000D01*
X-20500Y411000D02*
X-11500Y401000D01*
X-4500Y264000D02*
X4500Y254000D01*
X-6000Y261000D02*
X3000Y251000D01*
X-13000Y413000D02*
X7000D01*
X-23000D02*
X-13000D01*
X-33000Y343000D02*
X-3000Y263000D01*
X-23000Y333000D02*
X-3000Y263000D01*
X-23000Y333000D02*
X7000Y313000D01*
Y413000D01*
X-10000Y470000D02*
X120000Y230000D01*
X-120000D02*
X120000D01*
X-120000D02*
X-10000Y470000D01*
D21*
X-13000Y263000D02*
X-3000Y263000D01*
X7000Y243000D02*
X7000Y263000D01*
X-3000D02*
X7000D01*
X-13000Y263000D02*
X7000Y243000D01*
D22*
X418618Y-234916D02*
Y-279901D01*
X396125D01*
X388628Y-272404D01*
Y-264906D01*
X396125Y-257409D01*
X418618D01*
X396125D01*
X388628Y-249911D01*
Y-242414D01*
X396125Y-234916D01*
X418618D01*
X343642Y-242414D02*
X351140Y-234916D01*
X366135D01*
X373633Y-242414D01*
Y-272404D01*
X366135Y-279901D01*
X351140D01*
X343642Y-272404D01*
X328647Y-234916D02*
X313652D01*
X321149D01*
Y-279901D01*
X328647D01*
X313652D01*
X246174Y-234916D02*
X231178D01*
X238676D01*
Y-279901D01*
X246174D01*
X231178D01*
X208686D02*
Y-234916D01*
X178696Y-279901D01*
Y-234916D01*
X133710D02*
X148705D01*
X141208D01*
Y-272404D01*
X148705Y-279901D01*
X156203D01*
X163700Y-272404D01*
X88724Y-234916D02*
X118715D01*
Y-279901D01*
X88724D01*
X118715Y-257409D02*
X103720D01*
X43739Y-242414D02*
X51237Y-234916D01*
X66232D01*
X73729Y-242414D01*
Y-272404D01*
X66232Y-279901D01*
X51237D01*
X43739Y-272404D01*
X28744Y-234916D02*
X-1246D01*
X13749D01*
Y-279901D01*
X-16242Y-234916D02*
X-31237D01*
X-23739D01*
Y-279901D01*
X-16242D01*
X-31237D01*
X-76222Y-234916D02*
X-61227D01*
X-53729Y-242414D01*
Y-272404D01*
X-61227Y-279901D01*
X-76222D01*
X-83720Y-272404D01*
Y-242414D01*
X-76222Y-234916D01*
X-98715Y-279901D02*
Y-234916D01*
X-128705Y-279901D01*
Y-234916D01*
X-188686Y-279901D02*
Y-234916D01*
X-211178D01*
X-218676Y-242414D01*
Y-257409D01*
X-211178Y-264906D01*
X-188686D01*
X-233671Y-279901D02*
Y-234916D01*
X-256164D01*
X-263662Y-242414D01*
Y-257409D01*
X-256164Y-264906D01*
X-233671D01*
X-248666D02*
X-263662Y-279901D01*
X-301149Y-234916D02*
X-286154D01*
X-278657Y-242414D01*
Y-272404D01*
X-286154Y-279901D01*
X-301149D01*
X-308647Y-272404D01*
Y-242414D01*
X-301149Y-234916D01*
X-323642D02*
Y-279901D01*
X-346135D01*
X-353633Y-272404D01*
Y-264906D01*
X-346135Y-257409D01*
X-323642D01*
X-346135D01*
X-353633Y-249911D01*
Y-242414D01*
X-346135Y-234916D01*
X-323642D01*
X-398618D02*
X-368628D01*
Y-279901D01*
X-398618D01*
X-368628Y-257409D02*
X-383623D01*
X264918Y-315596D02*
X272415Y-308099D01*
X287410D01*
X294908Y-315596D01*
Y-345586D01*
X287410Y-353084D01*
X272415D01*
X264918Y-345586D01*
X249922Y-308099D02*
Y-345586D01*
X242425Y-353084D01*
X227430D01*
X219932Y-345586D01*
Y-308099D01*
X204937Y-353084D02*
Y-308099D01*
X182444D01*
X174947Y-315596D01*
Y-330591D01*
X182444Y-338089D01*
X204937D01*
X189942D02*
X174947Y-353084D01*
X159951D02*
Y-308099D01*
X137459D01*
X129961Y-315596D01*
Y-330591D01*
X137459Y-338089D01*
X159951D01*
X144956D02*
X129961Y-353084D01*
X84976Y-308099D02*
X114966D01*
Y-353084D01*
X84976D01*
X114966Y-330591D02*
X99971D01*
X69981Y-353084D02*
Y-308099D01*
X39990Y-353084D01*
Y-308099D01*
X24995D02*
X-4995D01*
X10000D01*
Y-353084D01*
X-64976D02*
Y-308099D01*
X-87469D01*
X-94966Y-315596D01*
Y-330591D01*
X-87469Y-338089D01*
X-64976D01*
X-109961Y-353084D02*
Y-308099D01*
X-132454D01*
X-139951Y-315596D01*
Y-330591D01*
X-132454Y-338089D01*
X-109961D01*
X-124956D02*
X-139951Y-353084D01*
X-177439Y-308099D02*
X-162444D01*
X-154947Y-315596D01*
Y-345586D01*
X-162444Y-353084D01*
X-177439D01*
X-184937Y-345586D01*
Y-315596D01*
X-177439Y-308099D01*
X-199932D02*
Y-353084D01*
X-222425D01*
X-229923Y-345586D01*
Y-338089D01*
X-222425Y-330591D01*
X-199932D01*
X-222425D01*
X-229923Y-323094D01*
Y-315596D01*
X-222425Y-308099D01*
X-199932D01*
X-274908D02*
X-244918D01*
Y-353084D01*
X-274908D01*
X-244918Y-330591D02*
X-259913D01*
M02*
