%TF.GenerationSoftware,Altium Limited,Altium Designer,21.0.9 (235)*%
G04 Layer_Physical_Order=2*
G04 Layer_Color=16711680*
%FSLAX45Y45*%
%MOMM*%
%TF.SameCoordinates,F7A25A3E-D5AF-42C8-93B9-E033C83BC228*%
%TF.FilePolarity,Positive*%
%TF.FileFunction,Copper,L2,Bot,Signal*%
%TF.Part,Single*%
G01*
G75*
%TA.AperFunction,Conductor*%
%ADD10C,3.00000*%
%TA.AperFunction,ViaPad*%
%ADD11C,8.00000*%
%ADD12C,3.00000*%
%ADD13R,3.00000X3.00000*%
%TA.AperFunction,ComponentPad*%
%ADD14C,2.55000*%
G36*
X101698Y6012411D02*
X339689Y6001143D01*
X577055Y5980540D01*
X813429Y5950634D01*
X1048447Y5911471D01*
X1281745Y5863111D01*
X1512966Y5805630D01*
X1741751Y5739115D01*
X1967749Y5663669D01*
X2190611Y5579409D01*
X2409992Y5486464D01*
X2625556Y5384978D01*
X2836968Y5275108D01*
X3043905Y5157021D01*
X3246046Y5030902D01*
X3443079Y4896944D01*
X3634702Y4755354D01*
X3820617Y4606349D01*
X4000540Y4450161D01*
X4174192Y4287029D01*
X4341306Y4117205D01*
X4501623Y3940952D01*
X4654897Y3758540D01*
X4800892Y3570252D01*
X4939382Y3376377D01*
X5070153Y3177214D01*
X5193005Y2973071D01*
X5307747Y2764261D01*
X5414203Y2551108D01*
X5512209Y2333940D01*
X5601613Y2113092D01*
X5682277Y1888904D01*
X5754078Y1661722D01*
X5816904Y1431897D01*
X5870659Y1199781D01*
X5915260Y965735D01*
X5950637Y730118D01*
X5969991Y554510D01*
X5957428Y552572D01*
X5957024Y554599D01*
X5945498Y582425D01*
X5928765Y607468D01*
X5907468Y628765D01*
X5882425Y645498D01*
X5854599Y657024D01*
X5825059Y662900D01*
X5822700D01*
Y509999D01*
Y357100D01*
X5825059D01*
X5854599Y362976D01*
X5882425Y374502D01*
X5907468Y391235D01*
X5928765Y412532D01*
X5945498Y437575D01*
X5957024Y465401D01*
X5962900Y494941D01*
Y502916D01*
X5975600Y503614D01*
X5976737Y493293D01*
X5993519Y255627D01*
X6000958Y17485D01*
X6000000Y-101640D01*
X5999999Y-101641D01*
X5999452Y-216341D01*
X5989353Y-445524D01*
X5970264Y-674133D01*
X5942215Y-901816D01*
X5905249Y-1128223D01*
X5859422Y-1353004D01*
X5804806Y-1575812D01*
X5741484Y-1796305D01*
X5669555Y-2014141D01*
X5589129Y-2228985D01*
X5500330Y-2440507D01*
X5403296Y-2648379D01*
X5298175Y-2852281D01*
X5185130Y-3051899D01*
X5064335Y-3246925D01*
X4935977Y-3437058D01*
X4800253Y-3622005D01*
X4657373Y-3801482D01*
X4507556Y-3975210D01*
X4351035Y-4142923D01*
X4188050Y-4304361D01*
X4018853Y-4459277D01*
X3843704Y-4607429D01*
X3662873Y-4748592D01*
X3476640Y-4882546D01*
X3285292Y-5009086D01*
X3089123Y-5128016D01*
X2888436Y-5239152D01*
X2683541Y-5342324D01*
X2474753Y-5437372D01*
X2262395Y-5524150D01*
X2046793Y-5602524D01*
X1828281Y-5672373D01*
X1607195Y-5733590D01*
X1383876Y-5786079D01*
X1158668Y-5829761D01*
X931919Y-5864567D01*
X703979Y-5890444D01*
X475198Y-5907352D01*
X245930Y-5915266D01*
X131229Y-5914719D01*
X131229Y-6027345D01*
X14488Y-6030264D01*
X-219038Y-6026932D01*
X-452253Y-6014434D01*
X-684798Y-5992789D01*
X-916315Y-5962032D01*
X-1146444Y-5922209D01*
X-1374834Y-5873382D01*
X-1601130Y-5815626D01*
X-1824984Y-5749030D01*
X-2046051Y-5673697D01*
X-2263990Y-5589743D01*
X-2478465Y-5497298D01*
X-2689145Y-5396504D01*
X-2895706Y-5287516D01*
X-3097829Y-5170502D01*
X-3295201Y-5045644D01*
X-3487520Y-4913133D01*
X-3674488Y-4773173D01*
X-3855818Y-4625982D01*
X-4031228Y-4471785D01*
X-4200450Y-4310819D01*
X-4363222Y-4143335D01*
X-4519293Y-3969589D01*
X-4668422Y-3789850D01*
X-4810380Y-3604395D01*
X-4944947Y-3413510D01*
X-5071917Y-3217488D01*
X-5191093Y-3016633D01*
X-5302291Y-2811254D01*
X-5405341Y-2601667D01*
X-5500083Y-2388197D01*
X-5586371Y-2171171D01*
X-5664072Y-1950926D01*
X-5733067Y-1727799D01*
X-5793248Y-1502136D01*
X-5844523Y-1274284D01*
X-5886814Y-1044595D01*
X-5920054Y-813422D01*
X-5944193Y-581123D01*
X-5959193Y-348055D01*
X-5962112Y-231316D01*
X-5963940Y-101640D01*
X-5963940Y-101640D01*
X-5963941Y-101640D01*
X-5965595Y16789D01*
X-5959604Y253594D01*
X-5944319Y489981D01*
X-5919766Y725587D01*
X-5885982Y960047D01*
X-5843019Y1192999D01*
X-5790944Y1424085D01*
X-5729836Y1652949D01*
X-5659790Y1879237D01*
X-5580914Y2102601D01*
X-5493330Y2322695D01*
X-5397172Y2539182D01*
X-5292589Y2751726D01*
X-5179743Y2960001D01*
X-5058806Y3163685D01*
X-4929966Y3362463D01*
X-4793422Y3556030D01*
X-4649383Y3744088D01*
X-4498072Y3926345D01*
X-4339722Y4102521D01*
X-4174578Y4272345D01*
X-4002894Y4435554D01*
X-3824934Y4591897D01*
X-3640974Y4741133D01*
X-3451297Y4883031D01*
X-3256195Y5017374D01*
X-3055969Y5143953D01*
X-2850927Y5262573D01*
X-2641387Y5373053D01*
X-2427672Y5475220D01*
X-2210109Y5568919D01*
X-1989036Y5654003D01*
X-1764793Y5730343D01*
X-1537726Y5797819D01*
X-1308184Y5856330D01*
X-1076523Y5905783D01*
X-843098Y5946103D01*
X-608271Y5977228D01*
X-372402Y5999110D01*
X-135857Y6011714D01*
X-17428Y6013368D01*
X101698Y6012411D01*
D02*
G37*
%LPC*%
G36*
X4805059Y662900D02*
X4802700D01*
Y522699D01*
X4942900D01*
Y525059D01*
X4937024Y554599D01*
X4925498Y582425D01*
X4908765Y607468D01*
X4887468Y628765D01*
X4862425Y645498D01*
X4834599Y657024D01*
X4805059Y662900D01*
D02*
G37*
G36*
X5797300D02*
X5794941D01*
X5765401Y657024D01*
X5737575Y645498D01*
X5712532Y628765D01*
X5691235Y607468D01*
X5674502Y582425D01*
X5662976Y554599D01*
X5657100Y525059D01*
Y522699D01*
X5797300D01*
Y662900D01*
D02*
G37*
G36*
X4777300D02*
X4774941D01*
X4745401Y657024D01*
X4717575Y645498D01*
X4692532Y628765D01*
X4671235Y607468D01*
X4654502Y582425D01*
X4642976Y554599D01*
X4637100Y525059D01*
Y522699D01*
X4777300D01*
Y662900D01*
D02*
G37*
G36*
X5797300Y497299D02*
X5657100D01*
Y494941D01*
X5662976Y465401D01*
X5674502Y437575D01*
X5691235Y412532D01*
X5712532Y391235D01*
X5737575Y374502D01*
X5765401Y362976D01*
X5794941Y357100D01*
X5797300D01*
Y497299D01*
D02*
G37*
G36*
X4942900D02*
X4802700D01*
Y357100D01*
X4805059D01*
X4834599Y362976D01*
X4862425Y374502D01*
X4887468Y391235D01*
X4908765Y412532D01*
X4925498Y437575D01*
X4937024Y465401D01*
X4942900Y494941D01*
Y497299D01*
D02*
G37*
G36*
X4777300D02*
X4637100D01*
Y494941D01*
X4642976Y465401D01*
X4654502Y437575D01*
X4671235Y412532D01*
X4692532Y391235D01*
X4717575Y374502D01*
X4745401Y362976D01*
X4774941Y357100D01*
X4777300D01*
Y497299D01*
D02*
G37*
G36*
X5321840Y277500D02*
X5278160D01*
X5235019Y270667D01*
X5205044Y260928D01*
X4028250D01*
X3981175Y257223D01*
X3967752Y254000D01*
X3958889D01*
X3912250Y246613D01*
X3867340Y232021D01*
X3825266Y210583D01*
X3787063Y182827D01*
X3753673Y149437D01*
X3725917Y111234D01*
X3704479Y69160D01*
X3689887Y24250D01*
X3682500Y-22389D01*
Y-69610D01*
X3689887Y-116250D01*
X3704479Y-161160D01*
X3725917Y-203234D01*
X3753673Y-241436D01*
X3787063Y-274827D01*
X3825266Y-302583D01*
X3867340Y-324020D01*
X3912250Y-338612D01*
X3958889Y-346000D01*
X4006110D01*
X4038134Y-340927D01*
X5291750D01*
X5338825Y-337223D01*
X5384742Y-326199D01*
X5428368Y-308128D01*
X5468631Y-283455D01*
X5504538Y-252788D01*
X5535205Y-216881D01*
X5559878Y-176618D01*
X5577949Y-132992D01*
X5588973Y-87075D01*
X5592677Y-40000D01*
X5588973Y7075D01*
X5577949Y52992D01*
X5562240Y90918D01*
X5557169Y106523D01*
X5537339Y145442D01*
X5511665Y180779D01*
X5480779Y211665D01*
X5445442Y237339D01*
X5406523Y257169D01*
X5364981Y270667D01*
X5321840Y277500D01*
D02*
G37*
G36*
X5825059Y-357100D02*
X5822700D01*
Y-497301D01*
X5962900D01*
Y-494941D01*
X5957024Y-465401D01*
X5945498Y-437575D01*
X5928765Y-412532D01*
X5907468Y-391235D01*
X5882425Y-374502D01*
X5854599Y-362976D01*
X5825059Y-357100D01*
D02*
G37*
G36*
X4805059D02*
X4802700D01*
Y-497301D01*
X4942900D01*
Y-494941D01*
X4937024Y-465401D01*
X4925498Y-437575D01*
X4908765Y-412532D01*
X4887468Y-391235D01*
X4862425Y-374502D01*
X4834599Y-362976D01*
X4805059Y-357100D01*
D02*
G37*
G36*
X5797300D02*
X5794941D01*
X5765401Y-362976D01*
X5737575Y-374502D01*
X5712532Y-391235D01*
X5691235Y-412532D01*
X5674502Y-437575D01*
X5662976Y-465401D01*
X5657100Y-494941D01*
Y-497301D01*
X5797300D01*
Y-357100D01*
D02*
G37*
G36*
X4777300D02*
X4774941D01*
X4745401Y-362976D01*
X4717575Y-374502D01*
X4692532Y-391235D01*
X4671235Y-412532D01*
X4654502Y-437575D01*
X4642976Y-465401D01*
X4637100Y-494941D01*
Y-497301D01*
X4777300D01*
Y-357100D01*
D02*
G37*
G36*
X4157900Y-378600D02*
X4012500D01*
Y-524000D01*
X4157900D01*
Y-378600D01*
D02*
G37*
G36*
X3952500D02*
X3807100D01*
Y-524000D01*
X3952500D01*
Y-378600D01*
D02*
G37*
G36*
X5962900Y-522701D02*
X5822700D01*
Y-662900D01*
X5825059D01*
X5854599Y-657024D01*
X5882425Y-645498D01*
X5907468Y-628765D01*
X5928765Y-607468D01*
X5945498Y-582425D01*
X5957024Y-554599D01*
X5962900Y-525059D01*
Y-522701D01*
D02*
G37*
G36*
X5797300D02*
X5657100D01*
Y-525059D01*
X5662976Y-554599D01*
X5674502Y-582425D01*
X5691235Y-607468D01*
X5712532Y-628765D01*
X5737575Y-645498D01*
X5765401Y-657024D01*
X5794941Y-662900D01*
X5797300D01*
Y-522701D01*
D02*
G37*
G36*
X4942900D02*
X4802700D01*
Y-662900D01*
X4805059D01*
X4834599Y-657024D01*
X4862425Y-645498D01*
X4887468Y-628765D01*
X4908765Y-607468D01*
X4925498Y-582425D01*
X4937024Y-554599D01*
X4942900Y-525059D01*
Y-522701D01*
D02*
G37*
G36*
X4777300D02*
X4637100D01*
Y-525059D01*
X4642976Y-554599D01*
X4654502Y-582425D01*
X4671235Y-607468D01*
X4692532Y-628765D01*
X4717575Y-645498D01*
X4745401Y-657024D01*
X4774941Y-662900D01*
X4777300D01*
Y-522701D01*
D02*
G37*
G36*
X4157900Y-584000D02*
X4012500D01*
Y-729400D01*
X4157900D01*
Y-584000D01*
D02*
G37*
G36*
X3952500D02*
X3807100D01*
Y-729400D01*
X3952500D01*
Y-584000D01*
D02*
G37*
G36*
X-1426Y1807806D02*
X-119286Y1803826D01*
X-124630Y1803117D01*
X-130020Y1803080D01*
X-247295Y1790702D01*
X-252574Y1789614D01*
X-257948Y1789191D01*
X-374042Y1768479D01*
X-379231Y1767016D01*
X-384560Y1766212D01*
X-498880Y1737271D01*
X-503952Y1735442D01*
X-509210Y1734259D01*
X-621174Y1697235D01*
X-626102Y1695049D01*
X-631262Y1693495D01*
X-740300Y1648578D01*
X-745058Y1646047D01*
X-750097Y1644128D01*
X-855652Y1591547D01*
X-860219Y1588681D01*
X-865105Y1586409D01*
X-966641Y1526431D01*
X-970990Y1523249D01*
X-975704Y1520632D01*
X-1072702Y1453564D01*
X-1076814Y1450078D01*
X-1081328Y1447133D01*
X-1173295Y1373316D01*
X-1177147Y1369546D01*
X-1181440Y1366286D01*
X-1267906Y1286096D01*
X-1271480Y1282062D01*
X-1275529Y1278503D01*
X-1356054Y1192349D01*
X-1359331Y1188070D01*
X-1363116Y1184232D01*
X-1437289Y1092553D01*
X-1440253Y1088050D01*
X-1443754Y1083952D01*
X-1511199Y987215D01*
X-1513834Y982511D01*
X-1517033Y978175D01*
X-1577405Y876874D01*
X-1579697Y871995D01*
X-1582580Y867440D01*
X-1635571Y762090D01*
X-1637509Y757061D01*
X-1640060Y752311D01*
X-1685400Y643449D01*
X-1686975Y638294D01*
X-1689180Y633375D01*
X-1726639Y521555D01*
X-1727842Y516301D01*
X-1729690Y511238D01*
X-1759076Y397031D01*
X-1759901Y391703D01*
X-1761384Y386522D01*
X-1782548Y270509D01*
X-1782991Y265138D01*
X-1784100Y259862D01*
X-1796933Y142635D01*
X-1796992Y137246D01*
X-1797722Y131905D01*
X-1802160Y14062D01*
X-1801834Y8680D01*
X-1802181Y3303D01*
X-1798201Y-114557D01*
X-1797492Y-119901D01*
X-1797454Y-125291D01*
X-1785077Y-242566D01*
X-1783988Y-247845D01*
X-1783566Y-253220D01*
X-1762853Y-369313D01*
X-1761391Y-374502D01*
X-1760587Y-379831D01*
X-1731645Y-494151D01*
X-1729817Y-499222D01*
X-1728634Y-504481D01*
X-1691610Y-616445D01*
X-1689425Y-621372D01*
X-1687870Y-626534D01*
X-1642953Y-735572D01*
X-1640422Y-740330D01*
X-1638503Y-745368D01*
X-1585922Y-850923D01*
X-1583057Y-855489D01*
X-1580783Y-860377D01*
X-1520806Y-961912D01*
X-1517623Y-966263D01*
X-1515007Y-970975D01*
X-1447939Y-1067973D01*
X-1444454Y-1072085D01*
X-1441508Y-1076600D01*
X-1367691Y-1168566D01*
X-1363921Y-1172420D01*
X-1360661Y-1176711D01*
X-1280471Y-1263178D01*
X-1276436Y-1266752D01*
X-1272878Y-1270800D01*
X-1186725Y-1351325D01*
X-1182445Y-1354602D01*
X-1178607Y-1358387D01*
X-1086928Y-1432561D01*
X-1082426Y-1435524D01*
X-1078327Y-1439026D01*
X-981590Y-1506471D01*
X-976888Y-1509105D01*
X-972550Y-1512305D01*
X-871248Y-1572677D01*
X-866370Y-1574969D01*
X-861815Y-1577852D01*
X-756465Y-1630843D01*
X-751437Y-1632781D01*
X-746687Y-1635332D01*
X-637824Y-1680672D01*
X-632669Y-1682247D01*
X-627750Y-1684452D01*
X-515930Y-1721911D01*
X-510676Y-1723114D01*
X-505613Y-1724962D01*
X-391406Y-1754348D01*
X-386078Y-1755174D01*
X-380897Y-1756656D01*
X-264884Y-1777820D01*
X-259512Y-1778263D01*
X-254237Y-1779372D01*
X-137011Y-1792205D01*
X-131622Y-1792264D01*
X-126280Y-1792994D01*
X-8437Y-1797432D01*
X-3056Y-1797106D01*
X2323Y-1797453D01*
X120182Y-1793473D01*
X125526Y-1792764D01*
X130916Y-1792726D01*
X248191Y-1780349D01*
X253470Y-1779260D01*
X258845Y-1778838D01*
X374938Y-1758126D01*
X380127Y-1756663D01*
X385456Y-1755859D01*
X499776Y-1726917D01*
X504848Y-1725088D01*
X510106Y-1723906D01*
X622071Y-1686882D01*
X626998Y-1684696D01*
X632159Y-1683142D01*
X741197Y-1638225D01*
X745955Y-1635694D01*
X750993Y-1633774D01*
X856548Y-1581193D01*
X861115Y-1578328D01*
X866002Y-1576055D01*
X967537Y-1516078D01*
X971887Y-1512895D01*
X976600Y-1510279D01*
X1073599Y-1443211D01*
X1077711Y-1439725D01*
X1082224Y-1436779D01*
X1174191Y-1362962D01*
X1178043Y-1359193D01*
X1182336Y-1355932D01*
X1268802Y-1275743D01*
X1272376Y-1271708D01*
X1276425Y-1268149D01*
X1356950Y-1181996D01*
X1360226Y-1177717D01*
X1364012Y-1173878D01*
X1438186Y-1082199D01*
X1441149Y-1077697D01*
X1444651Y-1073598D01*
X1512096Y-976862D01*
X1514730Y-972159D01*
X1517930Y-967821D01*
X1578302Y-866519D01*
X1580593Y-861642D01*
X1583476Y-857087D01*
X1636467Y-751736D01*
X1638406Y-746707D01*
X1640956Y-741957D01*
X1686297Y-633095D01*
X1687871Y-627940D01*
X1690076Y-623022D01*
X1727535Y-511202D01*
X1728738Y-505948D01*
X1730587Y-500884D01*
X1759973Y-386677D01*
X1760798Y-381349D01*
X1762280Y-376168D01*
X1783444Y-260156D01*
X1783887Y-254785D01*
X1784996Y-249508D01*
X1797830Y-132282D01*
X1797888Y-126892D01*
X1798618Y-121551D01*
X1803056Y-3708D01*
X1802730Y1673D01*
X1803077Y7051D01*
X1799097Y124911D01*
X1798388Y130255D01*
X1798351Y135645D01*
X1785973Y252921D01*
X1784884Y258200D01*
X1784462Y263573D01*
X1763750Y379667D01*
X1762288Y384855D01*
X1761483Y390185D01*
X1732541Y504505D01*
X1730713Y509575D01*
X1729530Y514835D01*
X1692506Y626799D01*
X1690321Y631726D01*
X1688766Y636888D01*
X1643849Y745925D01*
X1641318Y750684D01*
X1639399Y755721D01*
X1586818Y861277D01*
X1583953Y865844D01*
X1581680Y870730D01*
X1521702Y972266D01*
X1518520Y976615D01*
X1515903Y981329D01*
X1448835Y1078327D01*
X1445349Y1082440D01*
X1442404Y1086953D01*
X1368587Y1178920D01*
X1364817Y1182773D01*
X1361557Y1187065D01*
X1281367Y1273531D01*
X1277332Y1277105D01*
X1273774Y1281154D01*
X1187621Y1361679D01*
X1183341Y1364956D01*
X1179503Y1368741D01*
X1087824Y1442915D01*
X1083322Y1445878D01*
X1079223Y1449380D01*
X982486Y1516824D01*
X977782Y1519459D01*
X973446Y1522659D01*
X872145Y1583030D01*
X867266Y1585323D01*
X862711Y1588205D01*
X757361Y1641196D01*
X752332Y1643135D01*
X747583Y1645685D01*
X638720Y1691026D01*
X633564Y1692600D01*
X628646Y1694805D01*
X516827Y1732264D01*
X511574Y1733467D01*
X506509Y1735316D01*
X392302Y1764702D01*
X386975Y1765527D01*
X381793Y1767009D01*
X265781Y1788173D01*
X260407Y1788616D01*
X255134Y1789725D01*
X137907Y1802559D01*
X132519Y1802617D01*
X127177Y1803347D01*
X9333Y1807786D01*
X3952Y1807459D01*
X-1426Y1807806D01*
D02*
G37*
%LPD*%
D10*
X4028250Y-40000D02*
X5291750D01*
D11*
X4101582Y-3920697D02*
D03*
X1584894Y-5451377D02*
D03*
X-1359107Y-5516614D02*
D03*
X-3935328Y-4097974D02*
D03*
X-5454211Y-1577279D02*
D03*
X-5506367Y1355736D02*
D03*
X-4097974Y3935328D02*
D03*
X-1581286Y5457081D02*
D03*
X1359107Y5516614D02*
D03*
X3935328Y4097975D02*
D03*
X5441988Y1572866D02*
D03*
X5516614Y-1359107D02*
D03*
X2763397Y4986345D02*
D03*
X4905943Y2943615D02*
D03*
X5005943Y-2756385D02*
D03*
X2956201Y-4879332D02*
D03*
X100000Y-5700000D02*
D03*
X-2763397Y-4986345D02*
D03*
X-4866747Y-2951611D02*
D03*
X-5680402Y-115008D02*
D03*
X-4966747Y2748389D02*
D03*
X-2917005Y4871337D02*
D03*
X-100000Y5700000D02*
D03*
D12*
X3982500Y-46000D02*
D03*
D13*
Y-554000D02*
D03*
D14*
X5810000Y-510000D02*
D03*
Y510000D02*
D03*
X4790000D02*
D03*
Y-510000D02*
D03*
X5300000Y0D02*
D03*
%TF.MD5,96dbbb3534c6388a61eb35194f003d79*%
M02*
