%TF.GenerationSoftware,Altium Limited,Altium Designer,21.0.9 (235)*%
G04 Layer_Color=2752767*
%FSLAX45Y45*%
%MOMM*%
%TF.SameCoordinates,F7A25A3E-D5AF-42C8-93B9-E033C83BC228*%
%TF.FilePolarity,Positive*%
%TF.FileFunction,Drawing*%
%TF.Part,Single*%
G01*
G75*
%TA.AperFunction,NonConductor*%
%ADD53C,0.12700*%
%ADD54C,0.16933*%
D53*
X4050782Y-3971497D02*
Y-3869897D01*
X4152382D01*
Y-3971497D01*
X4050782D01*
X1534094Y-5502177D02*
Y-5400577D01*
X1635694D01*
Y-5502177D01*
X1534094D01*
X-1409907Y-5567414D02*
Y-5465814D01*
X-1308307D01*
Y-5567414D01*
X-1409907D01*
X-3986128Y-4148774D02*
Y-4047174D01*
X-3884528D01*
Y-4148774D01*
X-3986128D01*
X-5505011Y-1628079D02*
Y-1526479D01*
X-5403411D01*
Y-1628079D01*
X-5505011D01*
X-5557167Y1304936D02*
Y1406536D01*
X-5455567D01*
Y1304936D01*
X-5557167D01*
X-4148774Y3884528D02*
Y3986128D01*
X-4047174D01*
Y3884528D01*
X-4148774D01*
X-1632086Y5406281D02*
Y5507881D01*
X-1530486D01*
Y5406281D01*
X-1632086D01*
X1308307Y5465814D02*
Y5567414D01*
X1409907D01*
Y5465814D01*
X1308307D01*
X3884528Y4047175D02*
Y4148775D01*
X3986128D01*
Y4047175D01*
X3884528D01*
X5391188Y1522066D02*
Y1623666D01*
X5492788D01*
Y1522066D01*
X5391188D01*
X5465814Y-1409907D02*
Y-1308307D01*
X5567414D01*
Y-1409907D01*
X5465814D01*
X2712597Y4935545D02*
Y5037145D01*
X2814197D01*
Y4935545D01*
X2712597D01*
X4855143Y2892815D02*
Y2994415D01*
X4956743D01*
Y2892815D01*
X4855143D01*
X4955143Y-2807185D02*
Y-2705585D01*
X5056743D01*
Y-2807185D01*
X4955143D01*
X2905401Y-4930132D02*
Y-4828532D01*
X3007001D01*
Y-4930132D01*
X2905401D01*
X49200Y-5750800D02*
Y-5649200D01*
X150800D01*
Y-5750800D01*
X49200D01*
X-2814197Y-5037145D02*
Y-4935545D01*
X-2712597D01*
Y-5037145D01*
X-2814197D01*
X-4917547Y-3002411D02*
Y-2900811D01*
X-4815947D01*
Y-3002411D01*
X-4917547D01*
X-5731202Y-165808D02*
Y-64208D01*
X-5629602D01*
Y-165808D01*
X-5731202D01*
X-5017547Y2697589D02*
Y2799189D01*
X-4915947D01*
Y2697589D01*
X-5017547D01*
X-2967805Y4820537D02*
Y4922137D01*
X-2866205D01*
Y4820537D01*
X-2967805D01*
X-150800Y5649200D02*
Y5750800D01*
X-49200D01*
Y5649200D01*
X-150800D01*
X5810000Y-560800D02*
X5759200Y-459200D01*
X5860800D01*
X5810000Y-560800D01*
Y459200D02*
X5759200Y560800D01*
X5860800D01*
X5810000Y459200D01*
X4790000D02*
X4739200Y560800D01*
X4840800D01*
X4790000Y459200D01*
Y-560800D02*
X4739200Y-459200D01*
X4840800D01*
X4790000Y-560800D01*
X5300000Y-50800D02*
X5249200Y50800D01*
X5350800D01*
X5300000Y-50800D01*
D54*
X4033300Y-46000D02*
G03*
X4033300Y-46000I-50800J0D01*
G01*
Y-554000D02*
G03*
X4033300Y-554000I-50800J0D01*
G01*
%TF.MD5,809e7c9670b3a11a5648917e43786fb5*%
M02*
