%TF.GenerationSoftware,Altium Limited,Altium Designer,21.0.9 (235)*%
G04 Layer_Color=128*
%FSLAX45Y45*%
%MOMM*%
%TF.SameCoordinates,F7A25A3E-D5AF-42C8-93B9-E033C83BC228*%
%TF.FilePolarity,Positive*%
%TF.FileFunction,Drillmap*%
%TF.Part,Single*%
G01*
G75*
%TA.AperFunction,NonConductor*%
%ADD53C,0.12700*%
D53*
X3901582Y-3920697D02*
X4301582D01*
X4101582Y-4120697D02*
Y-3720697D01*
X1384894Y-5451377D02*
X1784894D01*
X1584894Y-5651377D02*
Y-5251377D01*
X-1559107Y-5516614D02*
X-1159107D01*
X-1359107Y-5716613D02*
Y-5316614D01*
X-4135328Y-4097974D02*
X-3735328D01*
X-3935328Y-4297974D02*
Y-3897974D01*
X-5654211Y-1577279D02*
X-5254211D01*
X-5454211Y-1777279D02*
Y-1377279D01*
X-5706367Y1355736D02*
X-5306367D01*
X-5506367Y1155736D02*
Y1555736D01*
X-4297974Y3935328D02*
X-3897974D01*
X-4097974Y3735328D02*
Y4135328D01*
X-1781286Y5457081D02*
X-1381286D01*
X-1581286Y5257081D02*
Y5657081D01*
X1159107Y5516614D02*
X1559107D01*
X1359107Y5316614D02*
Y5716614D01*
X3735328Y4097975D02*
X4135328D01*
X3935328Y3897975D02*
Y4297974D01*
X5241988Y1572866D02*
X5641987D01*
X5441988Y1372866D02*
Y1772866D01*
X5316614Y-1359107D02*
X5716614D01*
X5516614Y-1559106D02*
Y-1159107D01*
X3882500Y-46000D02*
X4082500D01*
X3982500Y-146000D02*
Y54000D01*
X3882500Y-554000D02*
X4082500D01*
X3982500Y-654000D02*
Y-454000D01*
X2563397Y4986345D02*
X2963397D01*
X2763397Y4786345D02*
Y5186345D01*
X4705943Y2943615D02*
X5105943D01*
X4905943Y2743616D02*
Y3143615D01*
X4805943Y-2756385D02*
X5205943D01*
X5005943Y-2956384D02*
Y-2556385D01*
X2756201Y-4879332D02*
X3156200D01*
X2956201Y-5079332D02*
Y-4679332D01*
X-100000Y-5700000D02*
X300000D01*
X100000Y-5900000D02*
Y-5500000D01*
X-2963397Y-4986345D02*
X-2563397D01*
X-2763397Y-5186345D02*
Y-4786345D01*
X-5066747Y-2951611D02*
X-4666747D01*
X-4866747Y-3151611D02*
Y-2751611D01*
X-5880402Y-115008D02*
X-5480402D01*
X-5680402Y-315008D02*
Y84992D01*
X-5166747Y2748389D02*
X-4766747D01*
X-4966747Y2548389D02*
Y2948389D01*
X-3117005Y4871337D02*
X-2717005D01*
X-2917005Y4671337D02*
Y5071337D01*
X-300000Y5700000D02*
X100000D01*
X-100000Y5500000D02*
Y5900000D01*
X5725000Y-510000D02*
X5895000D01*
X5810000Y-595000D02*
Y-425000D01*
X5725000Y510000D02*
X5895000D01*
X5810000Y425000D02*
Y595000D01*
X4705000Y510000D02*
X4875000D01*
X4790000Y425000D02*
Y595000D01*
X4705000Y-510000D02*
X4875000D01*
X4790000Y-595000D02*
Y-425000D01*
X5215000Y0D02*
X5385000D01*
X5300000Y-85000D02*
Y85000D01*
%TF.MD5,be8c0daf6205431ff82229cb8041f634*%
M02*
