%TF.GenerationSoftware,Altium Limited,Altium Designer,21.0.9 (235)*%
G04 Layer_Color=16711935*
%FSLAX45Y45*%
%MOMM*%
%TF.SameCoordinates,F7A25A3E-D5AF-42C8-93B9-E033C83BC228*%
%TF.FilePolarity,Negative*%
%TF.FileFunction,Soldermask,Bot*%
%TF.Part,Single*%
G01*
G75*
%TA.AperFunction,NonConductor*%
%ADD15C,5.00000*%
%ADD16C,1.00000*%
%ADD17C,3.00000*%
%ADD18C,0.60000*%
%ADD19C,0.80000*%
%TA.AperFunction,ViaPad*%
%ADD20C,8.20320*%
%ADD21C,3.20320*%
%ADD22R,3.20320X3.20320*%
%TA.AperFunction,ComponentPad*%
%ADD23C,2.75320*%
G36*
X70000Y3159571D02*
X57300Y3154311D01*
X56667Y3154944D01*
X45853Y3159423D01*
X40000Y3160000D01*
X0D01*
X-178188Y4120235D01*
X-170068Y4130000D01*
X70000D01*
Y3159571D01*
D02*
G37*
G36*
X-3021467Y542333D02*
Y536400D01*
Y530467D01*
Y524533D01*
Y518600D01*
Y512667D01*
Y506733D01*
X-2979933D01*
Y500800D01*
Y494867D01*
Y488933D01*
Y483000D01*
Y477067D01*
Y471133D01*
Y465200D01*
X-3021467D01*
Y459267D01*
Y453333D01*
Y447400D01*
Y441467D01*
Y435533D01*
Y429600D01*
Y423667D01*
X-3063000D01*
Y429600D01*
Y435533D01*
Y441467D01*
Y447400D01*
Y453333D01*
Y459267D01*
Y465200D01*
X-3104533D01*
Y471133D01*
Y477067D01*
Y483000D01*
Y488933D01*
Y494867D01*
Y500800D01*
Y506733D01*
X-3146067D01*
Y512667D01*
Y518600D01*
Y524533D01*
Y530467D01*
Y536400D01*
Y542333D01*
Y548267D01*
X-3104533D01*
Y542333D01*
Y536400D01*
Y530467D01*
Y524533D01*
Y518600D01*
Y512667D01*
Y506733D01*
X-3063000D01*
Y512667D01*
Y518600D01*
Y524533D01*
Y530467D01*
Y536400D01*
Y542333D01*
Y548267D01*
X-3021467D01*
Y542333D01*
D02*
G37*
G36*
X-3187600D02*
Y536400D01*
Y530467D01*
Y524533D01*
Y518600D01*
Y512667D01*
Y506733D01*
X-3146067D01*
Y500800D01*
Y494867D01*
Y488933D01*
Y483000D01*
Y477067D01*
Y471133D01*
Y465200D01*
Y459267D01*
Y453333D01*
Y447400D01*
Y441467D01*
Y435533D01*
Y429600D01*
Y423667D01*
X-3063000D01*
Y417733D01*
Y411800D01*
Y405867D01*
Y399933D01*
Y394000D01*
Y388067D01*
Y382133D01*
X-3104533D01*
Y376200D01*
Y370267D01*
Y364333D01*
Y358400D01*
Y352467D01*
Y346533D01*
Y340600D01*
X-3021467D01*
Y346533D01*
Y352467D01*
Y358400D01*
Y364333D01*
Y370267D01*
Y376200D01*
Y382133D01*
X-2979933D01*
Y376200D01*
Y370267D01*
Y364333D01*
Y358400D01*
Y352467D01*
Y346533D01*
Y340600D01*
Y334667D01*
Y328733D01*
Y322800D01*
Y316867D01*
Y310933D01*
Y305000D01*
Y299067D01*
Y293133D01*
Y287200D01*
Y281267D01*
Y275333D01*
Y269400D01*
Y263467D01*
Y257533D01*
X-3021467D01*
Y263467D01*
Y269400D01*
Y275333D01*
Y281267D01*
Y287200D01*
Y293133D01*
Y299067D01*
X-3063000D01*
Y293133D01*
Y287200D01*
Y281267D01*
Y275333D01*
Y269400D01*
Y263467D01*
Y257533D01*
X-3021467D01*
Y251600D01*
Y245667D01*
Y239733D01*
Y233800D01*
Y227867D01*
Y221933D01*
Y216000D01*
X-3063000D01*
Y221933D01*
Y227867D01*
Y233800D01*
Y239733D01*
Y245667D01*
Y251600D01*
Y257533D01*
X-3104533D01*
Y263467D01*
Y269400D01*
Y275333D01*
Y281267D01*
Y287200D01*
Y293133D01*
Y299067D01*
Y305000D01*
Y310933D01*
Y316867D01*
Y322800D01*
Y328733D01*
Y334667D01*
Y340600D01*
X-3187600D01*
Y346533D01*
Y352467D01*
Y358400D01*
Y364333D01*
Y370267D01*
Y376200D01*
Y382133D01*
X-3146067D01*
Y388067D01*
Y394000D01*
Y399933D01*
Y405867D01*
Y411800D01*
Y417733D01*
Y423667D01*
X-3270667D01*
Y417733D01*
Y411800D01*
Y405867D01*
Y399933D01*
Y394000D01*
Y388067D01*
Y382133D01*
X-3312200D01*
Y388067D01*
Y394000D01*
Y399933D01*
Y405867D01*
Y411800D01*
Y417733D01*
Y423667D01*
X-3353733D01*
Y429600D01*
Y435533D01*
Y441467D01*
Y447400D01*
Y453333D01*
Y459267D01*
Y465200D01*
X-3436800D01*
Y459267D01*
Y453333D01*
Y447400D01*
Y441467D01*
Y435533D01*
Y429600D01*
Y423667D01*
X-3353733D01*
Y417733D01*
Y411800D01*
Y405867D01*
Y399933D01*
Y394000D01*
Y388067D01*
Y382133D01*
X-3478333D01*
Y376200D01*
Y370267D01*
Y364333D01*
Y358400D01*
Y352467D01*
Y346533D01*
Y340600D01*
X-3270667D01*
Y334667D01*
Y328733D01*
Y322800D01*
Y316867D01*
Y310933D01*
Y305000D01*
Y299067D01*
X-3229133D01*
Y293133D01*
Y287200D01*
Y281267D01*
Y275333D01*
Y269400D01*
Y263467D01*
Y257533D01*
X-3187600D01*
Y263467D01*
Y269400D01*
Y275333D01*
Y281267D01*
Y287200D01*
Y293133D01*
Y299067D01*
X-3229133D01*
Y305000D01*
Y310933D01*
Y316867D01*
Y322800D01*
Y328733D01*
Y334667D01*
Y340600D01*
X-3187600D01*
Y334667D01*
Y328733D01*
Y322800D01*
Y316867D01*
Y310933D01*
Y305000D01*
Y299067D01*
X-3146067D01*
Y293133D01*
Y287200D01*
Y281267D01*
Y275333D01*
Y269400D01*
Y263467D01*
Y257533D01*
X-3104533D01*
Y251600D01*
Y245667D01*
Y239733D01*
Y233800D01*
Y227867D01*
Y221933D01*
Y216000D01*
X-3063000D01*
Y210067D01*
Y204133D01*
Y198200D01*
Y192267D01*
Y186333D01*
Y180400D01*
Y174467D01*
Y168533D01*
Y162600D01*
Y156667D01*
Y150733D01*
Y144800D01*
Y138867D01*
Y132933D01*
Y127000D01*
Y121067D01*
Y115133D01*
Y109200D01*
Y103267D01*
Y97333D01*
Y91400D01*
X-3021467D01*
Y85467D01*
Y79533D01*
Y73600D01*
Y67667D01*
Y61733D01*
Y55800D01*
Y49867D01*
X-2938400D01*
Y55800D01*
Y61733D01*
Y67667D01*
Y73600D01*
Y79533D01*
Y85467D01*
Y91400D01*
X-2896867D01*
Y85467D01*
Y79533D01*
Y73600D01*
Y67667D01*
Y61733D01*
Y55800D01*
Y49867D01*
Y43933D01*
Y38000D01*
Y32067D01*
Y26133D01*
Y20200D01*
Y14267D01*
Y8333D01*
Y2400D01*
Y-3533D01*
Y-9467D01*
Y-15400D01*
Y-21333D01*
Y-27267D01*
Y-33200D01*
X-2938400D01*
Y-27267D01*
Y-21333D01*
Y-15400D01*
Y-9467D01*
Y-3533D01*
Y2400D01*
Y8333D01*
X-3021467D01*
Y14267D01*
Y20200D01*
Y26133D01*
Y32067D01*
Y38000D01*
Y43933D01*
Y49867D01*
X-3063000D01*
Y55800D01*
Y61733D01*
Y67667D01*
Y73600D01*
Y79533D01*
Y85467D01*
Y91400D01*
X-3104533D01*
Y97333D01*
Y103267D01*
Y109200D01*
Y115133D01*
Y121067D01*
Y127000D01*
Y132933D01*
X-3187600D01*
Y127000D01*
Y121067D01*
Y115133D01*
Y109200D01*
Y103267D01*
Y97333D01*
Y91400D01*
X-3104533D01*
Y85467D01*
Y79533D01*
Y73600D01*
Y67667D01*
Y61733D01*
Y55800D01*
Y49867D01*
X-3146067D01*
Y43933D01*
Y38000D01*
Y32067D01*
Y26133D01*
Y20200D01*
Y14267D01*
Y8333D01*
X-3104533D01*
Y2400D01*
Y-3533D01*
Y-9467D01*
Y-15400D01*
Y-21333D01*
Y-27267D01*
Y-33200D01*
X-3063000D01*
Y-39133D01*
Y-45067D01*
Y-51000D01*
Y-56933D01*
Y-62867D01*
Y-68800D01*
Y-74733D01*
X-3021467D01*
Y-80667D01*
Y-86600D01*
Y-92533D01*
Y-98467D01*
Y-104400D01*
Y-110333D01*
Y-116267D01*
X-2979933D01*
Y-122200D01*
Y-128133D01*
Y-134067D01*
Y-140000D01*
Y-145933D01*
Y-151867D01*
Y-157800D01*
X-2896867D01*
Y-151867D01*
Y-145933D01*
Y-140000D01*
Y-134067D01*
Y-128133D01*
Y-122200D01*
Y-116267D01*
X-2938400D01*
Y-110333D01*
Y-104400D01*
Y-98467D01*
Y-92533D01*
Y-86600D01*
Y-80667D01*
Y-74733D01*
X-2979933D01*
Y-68800D01*
Y-62867D01*
Y-56933D01*
Y-51000D01*
Y-45067D01*
Y-39133D01*
Y-33200D01*
X-2938400D01*
Y-39133D01*
Y-45067D01*
Y-51000D01*
Y-56933D01*
Y-62867D01*
Y-68800D01*
Y-74733D01*
X-2896867D01*
Y-80667D01*
Y-86600D01*
Y-92533D01*
Y-98467D01*
Y-104400D01*
Y-110333D01*
Y-116267D01*
X-2855333D01*
Y-122200D01*
Y-128133D01*
Y-134067D01*
Y-140000D01*
Y-145933D01*
Y-151867D01*
Y-157800D01*
X-2813800D01*
Y-163733D01*
Y-169667D01*
Y-175600D01*
Y-181533D01*
Y-187467D01*
Y-193400D01*
Y-199333D01*
X-2772266D01*
Y-205267D01*
Y-211200D01*
Y-217133D01*
Y-223067D01*
Y-229000D01*
Y-234933D01*
Y-240867D01*
X-2896867D01*
Y-234933D01*
Y-229000D01*
Y-223067D01*
Y-217133D01*
Y-211200D01*
Y-205267D01*
Y-199333D01*
X-2938400D01*
Y-205267D01*
Y-211200D01*
Y-217133D01*
Y-223067D01*
Y-229000D01*
Y-234933D01*
Y-240867D01*
X-2896867D01*
Y-246800D01*
Y-252733D01*
Y-258667D01*
Y-264600D01*
Y-270533D01*
Y-276467D01*
Y-282400D01*
X-2855333D01*
Y-288333D01*
Y-294267D01*
Y-300200D01*
Y-306133D01*
Y-312067D01*
Y-318000D01*
Y-323933D01*
X-2896867D01*
Y-329867D01*
Y-335800D01*
Y-341733D01*
Y-347667D01*
Y-353600D01*
Y-359533D01*
Y-365467D01*
X-2938400D01*
Y-371400D01*
Y-377333D01*
Y-383267D01*
Y-389200D01*
Y-395133D01*
Y-401067D01*
Y-407000D01*
X-2896867D01*
Y-412933D01*
Y-418867D01*
Y-424800D01*
Y-430733D01*
Y-436667D01*
Y-442600D01*
Y-448533D01*
X-2813800D01*
Y-442600D01*
Y-436667D01*
Y-430733D01*
Y-424800D01*
Y-418867D01*
Y-412933D01*
Y-407000D01*
X-2855333D01*
Y-401067D01*
Y-395133D01*
Y-389200D01*
Y-383267D01*
Y-377333D01*
Y-371400D01*
Y-365467D01*
X-2813800D01*
Y-371400D01*
Y-377333D01*
Y-383267D01*
Y-389200D01*
Y-395133D01*
Y-401067D01*
Y-407000D01*
X-2772266D01*
Y-412933D01*
Y-418867D01*
Y-424800D01*
Y-430733D01*
Y-436667D01*
Y-442600D01*
Y-448533D01*
Y-454467D01*
Y-460400D01*
Y-466333D01*
Y-472267D01*
Y-478200D01*
Y-484133D01*
Y-490067D01*
X-2730733D01*
Y-496000D01*
Y-501933D01*
Y-507867D01*
Y-513800D01*
Y-519733D01*
Y-525667D01*
Y-531600D01*
X-2689200D01*
Y-537533D01*
Y-543467D01*
Y-549400D01*
Y-555333D01*
Y-561267D01*
Y-567200D01*
Y-573133D01*
X-2647667D01*
Y-579067D01*
Y-585000D01*
Y-590933D01*
Y-596867D01*
Y-602800D01*
Y-608733D01*
Y-614667D01*
Y-620600D01*
Y-626533D01*
Y-632467D01*
Y-638400D01*
Y-644333D01*
Y-650267D01*
Y-656200D01*
X-2689200D01*
Y-650267D01*
Y-644333D01*
Y-638400D01*
Y-632467D01*
Y-626533D01*
Y-620600D01*
Y-614667D01*
Y-608733D01*
Y-602800D01*
Y-596867D01*
Y-590933D01*
Y-585000D01*
Y-579067D01*
Y-573133D01*
X-2730733D01*
Y-567200D01*
Y-561267D01*
Y-555333D01*
Y-549400D01*
Y-543467D01*
Y-537533D01*
Y-531600D01*
X-2772266D01*
Y-525667D01*
Y-519733D01*
Y-513800D01*
Y-507867D01*
Y-501933D01*
Y-496000D01*
Y-490067D01*
X-2813800D01*
Y-496000D01*
Y-501933D01*
Y-507867D01*
Y-513800D01*
Y-519733D01*
Y-525667D01*
Y-531600D01*
Y-537533D01*
Y-543467D01*
Y-549400D01*
Y-555333D01*
Y-561267D01*
Y-567200D01*
Y-573133D01*
X-2772266D01*
Y-579067D01*
Y-585000D01*
Y-590933D01*
Y-596867D01*
Y-602800D01*
Y-608733D01*
Y-614667D01*
Y-620600D01*
Y-626533D01*
Y-632467D01*
Y-638400D01*
Y-644333D01*
Y-650267D01*
Y-656200D01*
X-2689200D01*
Y-662133D01*
Y-668067D01*
Y-674000D01*
Y-679933D01*
Y-685867D01*
Y-691800D01*
Y-697733D01*
X-2813800D01*
Y-691800D01*
Y-685867D01*
Y-679933D01*
Y-674000D01*
Y-668067D01*
Y-662133D01*
Y-656200D01*
X-2896867D01*
Y-662133D01*
Y-668067D01*
Y-674000D01*
Y-679933D01*
Y-685867D01*
Y-691800D01*
Y-697733D01*
X-2813800D01*
Y-703667D01*
Y-709600D01*
Y-715533D01*
Y-721467D01*
Y-727400D01*
Y-733333D01*
Y-739267D01*
X-2647667D01*
Y-745200D01*
Y-751133D01*
Y-757067D01*
Y-763000D01*
Y-768933D01*
Y-774867D01*
Y-780800D01*
X-2689200D01*
Y-786733D01*
Y-792667D01*
Y-798600D01*
Y-804533D01*
Y-810467D01*
Y-816400D01*
Y-822333D01*
X-2730733D01*
Y-816400D01*
Y-810467D01*
Y-804533D01*
Y-798600D01*
Y-792667D01*
Y-786733D01*
Y-780800D01*
X-2772266D01*
Y-786733D01*
Y-792667D01*
Y-798600D01*
Y-804533D01*
Y-810467D01*
Y-816400D01*
Y-822333D01*
X-2813800D01*
Y-816400D01*
Y-810467D01*
Y-804533D01*
Y-798600D01*
Y-792667D01*
Y-786733D01*
Y-780800D01*
X-2896867D01*
Y-774867D01*
Y-768933D01*
Y-763000D01*
Y-757067D01*
Y-751133D01*
Y-745200D01*
Y-739267D01*
Y-733333D01*
Y-727400D01*
Y-721467D01*
Y-715533D01*
Y-709600D01*
Y-703667D01*
Y-697733D01*
X-2938400D01*
Y-703667D01*
Y-709600D01*
Y-715533D01*
Y-721467D01*
Y-727400D01*
Y-733333D01*
Y-739267D01*
X-3021467D01*
Y-745200D01*
Y-751133D01*
Y-757067D01*
Y-763000D01*
Y-768933D01*
Y-774867D01*
Y-780800D01*
Y-786733D01*
Y-792667D01*
Y-798600D01*
Y-804533D01*
Y-810467D01*
Y-816400D01*
Y-822333D01*
X-3187600D01*
Y-816400D01*
Y-810467D01*
Y-804533D01*
Y-798600D01*
Y-792667D01*
Y-786733D01*
Y-780800D01*
Y-774867D01*
Y-768933D01*
Y-763000D01*
Y-757067D01*
Y-751133D01*
Y-745200D01*
Y-739267D01*
X-3229133D01*
Y-733333D01*
Y-727400D01*
Y-721467D01*
Y-715533D01*
Y-709600D01*
Y-703667D01*
Y-697733D01*
X-3187600D01*
Y-703667D01*
Y-709600D01*
Y-715533D01*
Y-721467D01*
Y-727400D01*
Y-733333D01*
Y-739267D01*
X-3146067D01*
Y-733333D01*
Y-727400D01*
Y-721467D01*
Y-715533D01*
Y-709600D01*
Y-703667D01*
Y-697733D01*
X-3187600D01*
Y-691800D01*
Y-685867D01*
Y-679933D01*
Y-674000D01*
Y-668067D01*
Y-662133D01*
Y-656200D01*
Y-650267D01*
Y-644333D01*
Y-638400D01*
Y-632467D01*
Y-626533D01*
Y-620600D01*
Y-614667D01*
Y-608733D01*
Y-602800D01*
Y-596867D01*
Y-590933D01*
Y-585000D01*
Y-579067D01*
Y-573133D01*
X-3146067D01*
Y-579067D01*
Y-585000D01*
Y-590933D01*
Y-596867D01*
Y-602800D01*
Y-608733D01*
Y-614667D01*
Y-620600D01*
Y-626533D01*
Y-632467D01*
Y-638400D01*
Y-644333D01*
Y-650267D01*
Y-656200D01*
X-3104533D01*
Y-650267D01*
Y-644333D01*
Y-638400D01*
Y-632467D01*
Y-626533D01*
Y-620600D01*
Y-614667D01*
X-3063000D01*
Y-620600D01*
Y-626533D01*
Y-632467D01*
Y-638400D01*
Y-644333D01*
Y-650267D01*
Y-656200D01*
X-3021467D01*
Y-662133D01*
Y-668067D01*
Y-674000D01*
Y-679933D01*
Y-685867D01*
Y-691800D01*
Y-697733D01*
X-2979933D01*
Y-691800D01*
Y-685867D01*
Y-679933D01*
Y-674000D01*
Y-668067D01*
Y-662133D01*
Y-656200D01*
X-3021467D01*
Y-650267D01*
Y-644333D01*
Y-638400D01*
Y-632467D01*
Y-626533D01*
Y-620600D01*
Y-614667D01*
Y-608733D01*
Y-602800D01*
Y-596867D01*
Y-590933D01*
Y-585000D01*
Y-579067D01*
Y-573133D01*
X-3063000D01*
Y-567200D01*
Y-561267D01*
Y-555333D01*
Y-549400D01*
Y-543467D01*
Y-537533D01*
Y-531600D01*
X-3146067D01*
Y-525667D01*
Y-519733D01*
Y-513800D01*
Y-507867D01*
Y-501933D01*
Y-496000D01*
Y-490067D01*
X-3187600D01*
Y-484133D01*
Y-478200D01*
Y-472267D01*
Y-466333D01*
Y-460400D01*
Y-454467D01*
Y-448533D01*
X-3270667D01*
Y-454467D01*
Y-460400D01*
Y-466333D01*
Y-472267D01*
Y-478200D01*
Y-484133D01*
Y-490067D01*
X-3312200D01*
Y-484133D01*
Y-478200D01*
Y-472267D01*
Y-466333D01*
Y-460400D01*
Y-454467D01*
Y-448533D01*
Y-442600D01*
Y-436667D01*
Y-430733D01*
Y-424800D01*
Y-418867D01*
Y-412933D01*
Y-407000D01*
Y-401067D01*
Y-395133D01*
Y-389200D01*
Y-383267D01*
Y-377333D01*
Y-371400D01*
Y-365467D01*
X-3353733D01*
Y-359533D01*
Y-353600D01*
Y-347667D01*
Y-341733D01*
Y-335800D01*
Y-329867D01*
Y-323933D01*
X-3478333D01*
Y-318000D01*
Y-312067D01*
Y-306133D01*
Y-300200D01*
Y-294267D01*
Y-288333D01*
Y-282400D01*
Y-276467D01*
Y-270533D01*
Y-264600D01*
Y-258667D01*
Y-252733D01*
Y-246800D01*
Y-240867D01*
Y-234933D01*
Y-229000D01*
Y-223067D01*
Y-217133D01*
Y-211200D01*
Y-205267D01*
Y-199333D01*
X-3519867D01*
Y-193400D01*
Y-187467D01*
Y-181533D01*
Y-175600D01*
Y-169667D01*
Y-163733D01*
Y-157800D01*
Y-151867D01*
Y-145933D01*
Y-140000D01*
Y-134067D01*
Y-128133D01*
Y-122200D01*
Y-116267D01*
X-3561400D01*
Y-122200D01*
Y-128133D01*
Y-134067D01*
Y-140000D01*
Y-145933D01*
Y-151867D01*
Y-157800D01*
X-3602933D01*
Y-163733D01*
Y-169667D01*
Y-175600D01*
Y-181533D01*
Y-187467D01*
Y-193400D01*
Y-199333D01*
Y-205267D01*
Y-211200D01*
Y-217133D01*
Y-223067D01*
Y-229000D01*
Y-234933D01*
Y-240867D01*
Y-246800D01*
Y-252733D01*
Y-258667D01*
Y-264600D01*
Y-270533D01*
Y-276467D01*
Y-282400D01*
X-3561400D01*
Y-288333D01*
Y-294267D01*
Y-300200D01*
Y-306133D01*
Y-312067D01*
Y-318000D01*
Y-323933D01*
X-3602933D01*
Y-318000D01*
Y-312067D01*
Y-306133D01*
Y-300200D01*
Y-294267D01*
Y-288333D01*
Y-282400D01*
X-3644467D01*
Y-288333D01*
Y-294267D01*
Y-300200D01*
Y-306133D01*
Y-312067D01*
Y-318000D01*
Y-323933D01*
X-3602933D01*
Y-329867D01*
Y-335800D01*
Y-341733D01*
Y-347667D01*
Y-353600D01*
Y-359533D01*
Y-365467D01*
Y-371400D01*
Y-377333D01*
Y-383267D01*
Y-389200D01*
Y-395133D01*
Y-401067D01*
Y-407000D01*
X-3686000D01*
Y-412933D01*
Y-418867D01*
Y-424800D01*
Y-430733D01*
Y-436667D01*
Y-442600D01*
Y-448533D01*
X-3644467D01*
Y-454467D01*
Y-460400D01*
Y-466333D01*
Y-472267D01*
Y-478200D01*
Y-484133D01*
Y-490067D01*
Y-496000D01*
Y-501933D01*
Y-507867D01*
Y-513800D01*
Y-519733D01*
Y-525667D01*
Y-531600D01*
X-3519867D01*
Y-525667D01*
Y-519733D01*
Y-513800D01*
Y-507867D01*
Y-501933D01*
Y-496000D01*
Y-490067D01*
X-3478333D01*
Y-496000D01*
Y-501933D01*
Y-507867D01*
Y-513800D01*
Y-519733D01*
Y-525667D01*
Y-531600D01*
X-3436800D01*
Y-537533D01*
Y-543467D01*
Y-549400D01*
Y-555333D01*
Y-561267D01*
Y-567200D01*
Y-573133D01*
Y-579067D01*
Y-585000D01*
Y-590933D01*
Y-596867D01*
Y-602800D01*
Y-608733D01*
Y-614667D01*
X-3353733D01*
Y-608733D01*
Y-602800D01*
Y-596867D01*
Y-590933D01*
Y-585000D01*
Y-579067D01*
Y-573133D01*
X-3312200D01*
Y-567200D01*
Y-561267D01*
Y-555333D01*
Y-549400D01*
Y-543467D01*
Y-537533D01*
Y-531600D01*
X-3353733D01*
Y-525667D01*
Y-519733D01*
Y-513800D01*
Y-507867D01*
Y-501933D01*
Y-496000D01*
Y-490067D01*
X-3436800D01*
Y-484133D01*
Y-478200D01*
Y-472267D01*
Y-466333D01*
Y-460400D01*
Y-454467D01*
Y-448533D01*
X-3353733D01*
Y-454467D01*
Y-460400D01*
Y-466333D01*
Y-472267D01*
Y-478200D01*
Y-484133D01*
Y-490067D01*
X-3312200D01*
Y-496000D01*
Y-501933D01*
Y-507867D01*
Y-513800D01*
Y-519733D01*
Y-525667D01*
Y-531600D01*
X-3270667D01*
Y-537533D01*
Y-543467D01*
Y-549400D01*
Y-555333D01*
Y-561267D01*
Y-567200D01*
Y-573133D01*
X-3229133D01*
Y-579067D01*
Y-585000D01*
Y-590933D01*
Y-596867D01*
Y-602800D01*
Y-608733D01*
Y-614667D01*
X-3312200D01*
Y-620600D01*
Y-626533D01*
Y-632467D01*
Y-638400D01*
Y-644333D01*
Y-650267D01*
Y-656200D01*
X-3353733D01*
Y-662133D01*
Y-668067D01*
Y-674000D01*
Y-679933D01*
Y-685867D01*
Y-691800D01*
Y-697733D01*
X-3395267D01*
Y-703667D01*
Y-709600D01*
Y-715533D01*
Y-721467D01*
Y-727400D01*
Y-733333D01*
Y-739267D01*
X-3436800D01*
Y-733333D01*
Y-727400D01*
Y-721467D01*
Y-715533D01*
Y-709600D01*
Y-703667D01*
Y-697733D01*
Y-691800D01*
Y-685867D01*
Y-679933D01*
Y-674000D01*
Y-668067D01*
Y-662133D01*
Y-656200D01*
Y-650267D01*
Y-644333D01*
Y-638400D01*
Y-632467D01*
Y-626533D01*
Y-620600D01*
Y-614667D01*
X-3478333D01*
Y-608733D01*
Y-602800D01*
Y-596867D01*
Y-590933D01*
Y-585000D01*
Y-579067D01*
Y-573133D01*
X-3561400D01*
Y-579067D01*
Y-585000D01*
Y-590933D01*
Y-596867D01*
Y-602800D01*
Y-608733D01*
Y-614667D01*
Y-620600D01*
Y-626533D01*
Y-632467D01*
Y-638400D01*
Y-644333D01*
Y-650267D01*
Y-656200D01*
X-3478333D01*
Y-662133D01*
Y-668067D01*
Y-674000D01*
Y-679933D01*
Y-685867D01*
Y-691800D01*
Y-697733D01*
Y-703667D01*
Y-709600D01*
Y-715533D01*
Y-721467D01*
Y-727400D01*
Y-733333D01*
Y-739267D01*
X-3519867D01*
Y-733333D01*
Y-727400D01*
Y-721467D01*
Y-715533D01*
Y-709600D01*
Y-703667D01*
Y-697733D01*
X-3561400D01*
Y-691800D01*
Y-685867D01*
Y-679933D01*
Y-674000D01*
Y-668067D01*
Y-662133D01*
Y-656200D01*
X-3602933D01*
Y-650267D01*
Y-644333D01*
Y-638400D01*
Y-632467D01*
Y-626533D01*
Y-620600D01*
Y-614667D01*
Y-608733D01*
Y-602800D01*
Y-596867D01*
Y-590933D01*
Y-585000D01*
Y-579067D01*
Y-573133D01*
X-3686000D01*
Y-567200D01*
Y-561267D01*
Y-555333D01*
Y-549400D01*
Y-543467D01*
Y-537533D01*
Y-531600D01*
Y-525667D01*
Y-519733D01*
Y-513800D01*
Y-507867D01*
Y-501933D01*
Y-496000D01*
Y-490067D01*
X-3852133D01*
Y-484133D01*
Y-478200D01*
Y-472267D01*
Y-466333D01*
Y-460400D01*
Y-454467D01*
Y-448533D01*
X-3893667D01*
Y-442600D01*
Y-436667D01*
Y-430733D01*
Y-424800D01*
Y-418867D01*
Y-412933D01*
Y-407000D01*
X-3852133D01*
Y-412933D01*
Y-418867D01*
Y-424800D01*
Y-430733D01*
Y-436667D01*
Y-442600D01*
Y-448533D01*
X-3727533D01*
Y-442600D01*
Y-436667D01*
Y-430733D01*
Y-424800D01*
Y-418867D01*
Y-412933D01*
Y-407000D01*
X-3810600D01*
Y-401067D01*
Y-395133D01*
Y-389200D01*
Y-383267D01*
Y-377333D01*
Y-371400D01*
Y-365467D01*
X-3727533D01*
Y-359533D01*
Y-353600D01*
Y-347667D01*
Y-341733D01*
Y-335800D01*
Y-329867D01*
Y-323933D01*
X-3769067D01*
Y-318000D01*
Y-312067D01*
Y-306133D01*
Y-300200D01*
Y-294267D01*
Y-288333D01*
Y-282400D01*
X-3810600D01*
Y-276467D01*
Y-270533D01*
Y-264600D01*
Y-258667D01*
Y-252733D01*
Y-246800D01*
Y-240867D01*
Y-234933D01*
Y-229000D01*
Y-223067D01*
Y-217133D01*
Y-211200D01*
Y-205267D01*
Y-199333D01*
X-3727533D01*
Y-205267D01*
Y-211200D01*
Y-217133D01*
Y-223067D01*
Y-229000D01*
Y-234933D01*
Y-240867D01*
X-3686000D01*
Y-234933D01*
Y-229000D01*
Y-223067D01*
Y-217133D01*
Y-211200D01*
Y-205267D01*
Y-199333D01*
X-3727533D01*
Y-193400D01*
Y-187467D01*
Y-181533D01*
Y-175600D01*
Y-169667D01*
Y-163733D01*
Y-157800D01*
X-3769067D01*
Y-151867D01*
Y-145933D01*
Y-140000D01*
Y-134067D01*
Y-128133D01*
Y-122200D01*
Y-116267D01*
X-3727533D01*
Y-122200D01*
Y-128133D01*
Y-134067D01*
Y-140000D01*
Y-145933D01*
Y-151867D01*
Y-157800D01*
X-3686000D01*
Y-163733D01*
Y-169667D01*
Y-175600D01*
Y-181533D01*
Y-187467D01*
Y-193400D01*
Y-199333D01*
X-3644467D01*
Y-193400D01*
Y-187467D01*
Y-181533D01*
Y-175600D01*
Y-169667D01*
Y-163733D01*
Y-157800D01*
X-3686000D01*
Y-151867D01*
Y-145933D01*
Y-140000D01*
Y-134067D01*
Y-128133D01*
Y-122200D01*
Y-116267D01*
X-3727533D01*
Y-110333D01*
Y-104400D01*
Y-98467D01*
Y-92533D01*
Y-86600D01*
Y-80667D01*
Y-74733D01*
X-3769067D01*
Y-68800D01*
Y-62867D01*
Y-56933D01*
Y-51000D01*
Y-45067D01*
Y-39133D01*
Y-33200D01*
X-3727533D01*
Y-39133D01*
Y-45067D01*
Y-51000D01*
Y-56933D01*
Y-62867D01*
Y-68800D01*
Y-74733D01*
X-3686000D01*
Y-68800D01*
Y-62867D01*
Y-56933D01*
Y-51000D01*
Y-45067D01*
Y-39133D01*
Y-33200D01*
Y-27267D01*
Y-21333D01*
Y-15400D01*
Y-9467D01*
Y-3533D01*
Y2400D01*
Y8333D01*
X-3810600D01*
Y14267D01*
Y20200D01*
Y26133D01*
Y32067D01*
Y38000D01*
Y43933D01*
Y49867D01*
X-3893667D01*
Y55800D01*
Y61733D01*
Y67667D01*
Y73600D01*
Y79533D01*
Y85467D01*
Y91400D01*
X-3935200D01*
Y97333D01*
Y103267D01*
Y109200D01*
Y115133D01*
Y121067D01*
Y127000D01*
Y132933D01*
X-3893667D01*
Y127000D01*
Y121067D01*
Y115133D01*
Y109200D01*
Y103267D01*
Y97333D01*
Y91400D01*
X-3810600D01*
Y97333D01*
Y103267D01*
Y109200D01*
Y115133D01*
Y121067D01*
Y127000D01*
Y132933D01*
X-3727533D01*
Y127000D01*
Y121067D01*
Y115133D01*
Y109200D01*
Y103267D01*
Y97333D01*
Y91400D01*
X-3769067D01*
Y85467D01*
Y79533D01*
Y73600D01*
Y67667D01*
Y61733D01*
Y55800D01*
Y49867D01*
X-3686000D01*
Y55800D01*
Y61733D01*
Y67667D01*
Y73600D01*
Y79533D01*
Y85467D01*
Y91400D01*
Y97333D01*
Y103267D01*
Y109200D01*
Y115133D01*
Y121067D01*
Y127000D01*
Y132933D01*
X-3727533D01*
Y138867D01*
Y144800D01*
Y150733D01*
Y156667D01*
Y162600D01*
Y168533D01*
Y174467D01*
X-3769067D01*
Y180400D01*
Y186333D01*
Y192267D01*
Y198200D01*
Y204133D01*
Y210067D01*
Y216000D01*
X-3561400D01*
Y210067D01*
Y204133D01*
Y198200D01*
Y192267D01*
Y186333D01*
Y180400D01*
Y174467D01*
X-3519867D01*
Y168533D01*
Y162600D01*
Y156667D01*
Y150733D01*
Y144800D01*
Y138867D01*
Y132933D01*
X-3436800D01*
Y127000D01*
Y121067D01*
Y115133D01*
Y109200D01*
Y103267D01*
Y97333D01*
Y91400D01*
Y85467D01*
Y79533D01*
Y73600D01*
Y67667D01*
Y61733D01*
Y55800D01*
Y49867D01*
X-3353733D01*
Y55800D01*
Y61733D01*
Y67667D01*
Y73600D01*
Y79533D01*
Y85467D01*
Y91400D01*
X-3395267D01*
Y97333D01*
Y103267D01*
Y109200D01*
Y115133D01*
Y121067D01*
Y127000D01*
Y132933D01*
X-3270667D01*
Y127000D01*
Y121067D01*
Y115133D01*
Y109200D01*
Y103267D01*
Y97333D01*
Y91400D01*
X-3312200D01*
Y85467D01*
Y79533D01*
Y73600D01*
Y67667D01*
Y61733D01*
Y55800D01*
Y49867D01*
X-3229133D01*
Y43933D01*
Y38000D01*
Y32067D01*
Y26133D01*
Y20200D01*
Y14267D01*
Y8333D01*
X-3187600D01*
Y14267D01*
Y20200D01*
Y26133D01*
Y32067D01*
Y38000D01*
Y43933D01*
Y49867D01*
X-3229133D01*
Y55800D01*
Y61733D01*
Y67667D01*
Y73600D01*
Y79533D01*
Y85467D01*
Y91400D01*
Y97333D01*
Y103267D01*
Y109200D01*
Y115133D01*
Y121067D01*
Y127000D01*
Y132933D01*
X-3270667D01*
Y138867D01*
Y144800D01*
Y150733D01*
Y156667D01*
Y162600D01*
Y168533D01*
Y174467D01*
X-3187600D01*
Y180400D01*
Y186333D01*
Y192267D01*
Y198200D01*
Y204133D01*
Y210067D01*
Y216000D01*
X-3229133D01*
Y221933D01*
Y227867D01*
Y233800D01*
Y239733D01*
Y245667D01*
Y251600D01*
Y257533D01*
X-3270667D01*
Y263467D01*
Y269400D01*
Y275333D01*
Y281267D01*
Y287200D01*
Y293133D01*
Y299067D01*
X-3312200D01*
Y293133D01*
Y287200D01*
Y281267D01*
Y275333D01*
Y269400D01*
Y263467D01*
Y257533D01*
Y251600D01*
Y245667D01*
Y239733D01*
Y233800D01*
Y227867D01*
Y221933D01*
Y216000D01*
X-3353733D01*
Y221933D01*
Y227867D01*
Y233800D01*
Y239733D01*
Y245667D01*
Y251600D01*
Y257533D01*
Y263467D01*
Y269400D01*
Y275333D01*
Y281267D01*
Y287200D01*
Y293133D01*
Y299067D01*
X-3395267D01*
Y293133D01*
Y287200D01*
Y281267D01*
Y275333D01*
Y269400D01*
Y263467D01*
Y257533D01*
Y251600D01*
Y245667D01*
Y239733D01*
Y233800D01*
Y227867D01*
Y221933D01*
Y216000D01*
X-3353733D01*
Y210067D01*
Y204133D01*
Y198200D01*
Y192267D01*
Y186333D01*
Y180400D01*
Y174467D01*
X-3436800D01*
Y180400D01*
Y186333D01*
Y192267D01*
Y198200D01*
Y204133D01*
Y210067D01*
Y216000D01*
Y221933D01*
Y227867D01*
Y233800D01*
Y239733D01*
Y245667D01*
Y251600D01*
Y257533D01*
Y263467D01*
Y269400D01*
Y275333D01*
Y281267D01*
Y287200D01*
Y293133D01*
Y299067D01*
X-3478333D01*
Y293133D01*
Y287200D01*
Y281267D01*
Y275333D01*
Y269400D01*
Y263467D01*
Y257533D01*
X-3519867D01*
Y263467D01*
Y269400D01*
Y275333D01*
Y281267D01*
Y287200D01*
Y293133D01*
Y299067D01*
Y305000D01*
Y310933D01*
Y316867D01*
Y322800D01*
Y328733D01*
Y334667D01*
Y340600D01*
X-3561400D01*
Y346533D01*
Y352467D01*
Y358400D01*
Y364333D01*
Y370267D01*
Y376200D01*
Y382133D01*
X-3519867D01*
Y388067D01*
Y394000D01*
Y399933D01*
Y405867D01*
Y411800D01*
Y417733D01*
Y423667D01*
X-3561400D01*
Y429600D01*
Y435533D01*
Y441467D01*
Y447400D01*
Y453333D01*
Y459267D01*
Y465200D01*
X-3519867D01*
Y459267D01*
Y453333D01*
Y447400D01*
Y441467D01*
Y435533D01*
Y429600D01*
Y423667D01*
X-3478333D01*
Y429600D01*
Y435533D01*
Y441467D01*
Y447400D01*
Y453333D01*
Y459267D01*
Y465200D01*
X-3519867D01*
Y471133D01*
Y477067D01*
Y483000D01*
Y488933D01*
Y494867D01*
Y500800D01*
Y506733D01*
X-3436800D01*
Y512667D01*
Y518600D01*
Y524533D01*
Y530467D01*
Y536400D01*
Y542333D01*
Y548267D01*
X-3312200D01*
Y542333D01*
Y536400D01*
Y530467D01*
Y524533D01*
Y518600D01*
Y512667D01*
Y506733D01*
X-3229133D01*
Y500800D01*
Y494867D01*
Y488933D01*
Y483000D01*
Y477067D01*
Y471133D01*
Y465200D01*
X-3187600D01*
Y471133D01*
Y477067D01*
Y483000D01*
Y488933D01*
Y494867D01*
Y500800D01*
Y506733D01*
X-3229133D01*
Y512667D01*
Y518600D01*
Y524533D01*
Y530467D01*
Y536400D01*
Y542333D01*
Y548267D01*
X-3187600D01*
Y542333D01*
D02*
G37*
G36*
X-3561400D02*
Y536400D01*
Y530467D01*
Y524533D01*
Y518600D01*
Y512667D01*
Y506733D01*
X-3602933D01*
Y500800D01*
Y494867D01*
Y488933D01*
Y483000D01*
Y477067D01*
Y471133D01*
Y465200D01*
Y459267D01*
Y453333D01*
Y447400D01*
Y441467D01*
Y435533D01*
Y429600D01*
Y423667D01*
Y417733D01*
Y411800D01*
Y405867D01*
Y399933D01*
Y394000D01*
Y388067D01*
Y382133D01*
X-3686000D01*
Y388067D01*
Y394000D01*
Y399933D01*
Y405867D01*
Y411800D01*
Y417733D01*
Y423667D01*
X-3644467D01*
Y429600D01*
Y435533D01*
Y441467D01*
Y447400D01*
Y453333D01*
Y459267D01*
Y465200D01*
X-3686000D01*
Y471133D01*
Y477067D01*
Y483000D01*
Y488933D01*
Y494867D01*
Y500800D01*
Y506733D01*
X-3644467D01*
Y512667D01*
Y518600D01*
Y524533D01*
Y530467D01*
Y536400D01*
Y542333D01*
Y548267D01*
X-3561400D01*
Y542333D01*
D02*
G37*
G36*
X-2647667D02*
Y536400D01*
Y530467D01*
Y524533D01*
Y518600D01*
Y512667D01*
Y506733D01*
Y500800D01*
Y494867D01*
Y488933D01*
Y483000D01*
Y477067D01*
Y471133D01*
Y465200D01*
Y459267D01*
Y453333D01*
Y447400D01*
Y441467D01*
Y435533D01*
Y429600D01*
Y423667D01*
Y417733D01*
Y411800D01*
Y405867D01*
Y399933D01*
Y394000D01*
Y388067D01*
Y382133D01*
Y376200D01*
Y370267D01*
Y364333D01*
Y358400D01*
Y352467D01*
Y346533D01*
Y340600D01*
Y334667D01*
Y328733D01*
Y322800D01*
Y316867D01*
Y310933D01*
Y305000D01*
Y299067D01*
Y293133D01*
Y287200D01*
Y281267D01*
Y275333D01*
Y269400D01*
Y263467D01*
Y257533D01*
X-2938400D01*
Y263467D01*
Y269400D01*
Y275333D01*
Y281267D01*
Y287200D01*
Y293133D01*
Y299067D01*
Y305000D01*
Y310933D01*
Y316867D01*
Y322800D01*
Y328733D01*
Y334667D01*
Y340600D01*
Y346533D01*
Y352467D01*
Y358400D01*
Y364333D01*
Y370267D01*
Y376200D01*
Y382133D01*
Y388067D01*
Y394000D01*
Y399933D01*
Y405867D01*
Y411800D01*
Y417733D01*
Y423667D01*
Y429600D01*
Y435533D01*
Y441467D01*
Y447400D01*
Y453333D01*
Y459267D01*
Y465200D01*
Y471133D01*
Y477067D01*
Y483000D01*
Y488933D01*
Y494867D01*
Y500800D01*
Y506733D01*
Y512667D01*
Y518600D01*
Y524533D01*
Y530467D01*
Y536400D01*
Y542333D01*
Y548267D01*
X-2647667D01*
Y542333D01*
D02*
G37*
G36*
X-3644467Y334667D02*
Y328733D01*
Y322800D01*
Y316867D01*
Y310933D01*
Y305000D01*
Y299067D01*
Y293133D01*
Y287200D01*
Y281267D01*
Y275333D01*
Y269400D01*
Y263467D01*
Y257533D01*
X-3686000D01*
Y263467D01*
Y269400D01*
Y275333D01*
Y281267D01*
Y287200D01*
Y293133D01*
Y299067D01*
Y305000D01*
Y310933D01*
Y316867D01*
Y322800D01*
Y328733D01*
Y334667D01*
Y340600D01*
X-3644467D01*
Y334667D01*
D02*
G37*
G36*
X-3727533Y542333D02*
Y536400D01*
Y530467D01*
Y524533D01*
Y518600D01*
Y512667D01*
Y506733D01*
Y500800D01*
Y494867D01*
Y488933D01*
Y483000D01*
Y477067D01*
Y471133D01*
Y465200D01*
Y459267D01*
Y453333D01*
Y447400D01*
Y441467D01*
Y435533D01*
Y429600D01*
Y423667D01*
Y417733D01*
Y411800D01*
Y405867D01*
Y399933D01*
Y394000D01*
Y388067D01*
Y382133D01*
Y376200D01*
Y370267D01*
Y364333D01*
Y358400D01*
Y352467D01*
Y346533D01*
Y340600D01*
Y334667D01*
Y328733D01*
Y322800D01*
Y316867D01*
Y310933D01*
Y305000D01*
Y299067D01*
Y293133D01*
Y287200D01*
Y281267D01*
Y275333D01*
Y269400D01*
Y263467D01*
Y257533D01*
X-4018267D01*
Y263467D01*
Y269400D01*
Y275333D01*
Y281267D01*
Y287200D01*
Y293133D01*
Y299067D01*
Y305000D01*
Y310933D01*
Y316867D01*
Y322800D01*
Y328733D01*
Y334667D01*
Y340600D01*
Y346533D01*
Y352467D01*
Y358400D01*
Y364333D01*
Y370267D01*
Y376200D01*
Y382133D01*
Y388067D01*
Y394000D01*
Y399933D01*
Y405867D01*
Y411800D01*
Y417733D01*
Y423667D01*
Y429600D01*
Y435533D01*
Y441467D01*
Y447400D01*
Y453333D01*
Y459267D01*
Y465200D01*
Y471133D01*
Y477067D01*
Y483000D01*
Y488933D01*
Y494867D01*
Y500800D01*
Y506733D01*
Y512667D01*
Y518600D01*
Y524533D01*
Y530467D01*
Y536400D01*
Y542333D01*
Y548267D01*
X-3727533D01*
Y542333D01*
D02*
G37*
G36*
X-3561400Y334667D02*
Y328733D01*
Y322800D01*
Y316867D01*
Y310933D01*
Y305000D01*
Y299067D01*
Y293133D01*
Y287200D01*
Y281267D01*
Y275333D01*
Y269400D01*
Y263467D01*
Y257533D01*
X-3519867D01*
Y251600D01*
Y245667D01*
Y239733D01*
Y233800D01*
Y227867D01*
Y221933D01*
Y216000D01*
X-3561400D01*
Y221933D01*
Y227867D01*
Y233800D01*
Y239733D01*
Y245667D01*
Y251600D01*
Y257533D01*
X-3602933D01*
Y263467D01*
Y269400D01*
Y275333D01*
Y281267D01*
Y287200D01*
Y293133D01*
Y299067D01*
Y305000D01*
Y310933D01*
Y316867D01*
Y322800D01*
Y328733D01*
Y334667D01*
Y340600D01*
X-3561400D01*
Y334667D01*
D02*
G37*
G36*
X-2689200Y210067D02*
Y204133D01*
Y198200D01*
Y192267D01*
Y186333D01*
Y180400D01*
Y174467D01*
X-2730733D01*
Y180400D01*
Y186333D01*
Y192267D01*
Y198200D01*
Y204133D01*
Y210067D01*
Y216000D01*
X-2689200D01*
Y210067D01*
D02*
G37*
G36*
X-3810600D02*
Y204133D01*
Y198200D01*
Y192267D01*
Y186333D01*
Y180400D01*
Y174467D01*
X-4018267D01*
Y180400D01*
Y186333D01*
Y192267D01*
Y198200D01*
Y204133D01*
Y210067D01*
Y216000D01*
X-3810600D01*
Y210067D01*
D02*
G37*
G36*
X-2772266D02*
Y204133D01*
Y198200D01*
Y192267D01*
Y186333D01*
Y180400D01*
Y174467D01*
X-2730733D01*
Y168533D01*
Y162600D01*
Y156667D01*
Y150733D01*
Y144800D01*
Y138867D01*
Y132933D01*
X-2689200D01*
Y127000D01*
Y121067D01*
Y115133D01*
Y109200D01*
Y103267D01*
Y97333D01*
Y91400D01*
X-2647667D01*
Y85467D01*
Y79533D01*
Y73600D01*
Y67667D01*
Y61733D01*
Y55800D01*
Y49867D01*
X-2689200D01*
Y43933D01*
Y38000D01*
Y32067D01*
Y26133D01*
Y20200D01*
Y14267D01*
Y8333D01*
X-2730733D01*
Y2400D01*
Y-3533D01*
Y-9467D01*
Y-15400D01*
Y-21333D01*
Y-27267D01*
Y-33200D01*
X-2689200D01*
Y-39133D01*
Y-45067D01*
Y-51000D01*
Y-56933D01*
Y-62867D01*
Y-68800D01*
Y-74733D01*
X-2647667D01*
Y-80667D01*
Y-86600D01*
Y-92533D01*
Y-98467D01*
Y-104400D01*
Y-110333D01*
Y-116267D01*
X-2689200D01*
Y-122200D01*
Y-128133D01*
Y-134067D01*
Y-140000D01*
Y-145933D01*
Y-151867D01*
Y-157800D01*
X-2730733D01*
Y-151867D01*
Y-145933D01*
Y-140000D01*
Y-134067D01*
Y-128133D01*
Y-122200D01*
Y-116267D01*
X-2772266D01*
Y-110333D01*
Y-104400D01*
Y-98467D01*
Y-92533D01*
Y-86600D01*
Y-80667D01*
Y-74733D01*
X-2855333D01*
Y-68800D01*
Y-62867D01*
Y-56933D01*
Y-51000D01*
Y-45067D01*
Y-39133D01*
Y-33200D01*
X-2813800D01*
Y-27267D01*
Y-21333D01*
Y-15400D01*
Y-9467D01*
Y-3533D01*
Y2400D01*
Y8333D01*
X-2772266D01*
Y14267D01*
Y20200D01*
Y26133D01*
Y32067D01*
Y38000D01*
Y43933D01*
Y49867D01*
Y55800D01*
Y61733D01*
Y67667D01*
Y73600D01*
Y79533D01*
Y85467D01*
Y91400D01*
X-2896867D01*
Y97333D01*
Y103267D01*
Y109200D01*
Y115133D01*
Y121067D01*
Y127000D01*
Y132933D01*
X-2938400D01*
Y138867D01*
Y144800D01*
Y150733D01*
Y156667D01*
Y162600D01*
Y168533D01*
Y174467D01*
X-2979933D01*
Y180400D01*
Y186333D01*
Y192267D01*
Y198200D01*
Y204133D01*
Y210067D01*
Y216000D01*
X-2938400D01*
Y210067D01*
Y204133D01*
Y198200D01*
Y192267D01*
Y186333D01*
Y180400D01*
Y174467D01*
X-2896867D01*
Y180400D01*
Y186333D01*
Y192267D01*
Y198200D01*
Y204133D01*
Y210067D01*
Y216000D01*
X-2855333D01*
Y210067D01*
Y204133D01*
Y198200D01*
Y192267D01*
Y186333D01*
Y180400D01*
Y174467D01*
Y168533D01*
Y162600D01*
Y156667D01*
Y150733D01*
Y144800D01*
Y138867D01*
Y132933D01*
X-2813800D01*
Y138867D01*
Y144800D01*
Y150733D01*
Y156667D01*
Y162600D01*
Y168533D01*
Y174467D01*
Y180400D01*
Y186333D01*
Y192267D01*
Y198200D01*
Y204133D01*
Y210067D01*
Y216000D01*
X-2772266D01*
Y210067D01*
D02*
G37*
G36*
X-2979933Y168533D02*
Y162600D01*
Y156667D01*
Y150733D01*
Y144800D01*
Y138867D01*
Y132933D01*
Y127000D01*
Y121067D01*
Y115133D01*
Y109200D01*
Y103267D01*
Y97333D01*
Y91400D01*
X-3021467D01*
Y97333D01*
Y103267D01*
Y109200D01*
Y115133D01*
Y121067D01*
Y127000D01*
Y132933D01*
Y138867D01*
Y144800D01*
Y150733D01*
Y156667D01*
Y162600D01*
Y168533D01*
Y174467D01*
X-2979933D01*
Y168533D01*
D02*
G37*
G36*
X-3935200Y85467D02*
Y79533D01*
Y73600D01*
Y67667D01*
Y61733D01*
Y55800D01*
Y49867D01*
X-3976733D01*
Y55800D01*
Y61733D01*
Y67667D01*
Y73600D01*
Y79533D01*
Y85467D01*
Y91400D01*
X-3935200D01*
Y85467D01*
D02*
G37*
G36*
X-3021467Y2400D02*
Y-3533D01*
Y-9467D01*
Y-15400D01*
Y-21333D01*
Y-27267D01*
Y-33200D01*
X-3063000D01*
Y-27267D01*
Y-21333D01*
Y-15400D01*
Y-9467D01*
Y-3533D01*
Y2400D01*
Y8333D01*
X-3021467D01*
Y2400D01*
D02*
G37*
G36*
X-2772266Y-122200D02*
Y-128133D01*
Y-134067D01*
Y-140000D01*
Y-145933D01*
Y-151867D01*
Y-157800D01*
X-2730733D01*
Y-163733D01*
Y-169667D01*
Y-175600D01*
Y-181533D01*
Y-187467D01*
Y-193400D01*
Y-199333D01*
X-2772266D01*
Y-193400D01*
Y-187467D01*
Y-181533D01*
Y-175600D01*
Y-169667D01*
Y-163733D01*
Y-157800D01*
X-2813800D01*
Y-151867D01*
Y-145933D01*
Y-140000D01*
Y-134067D01*
Y-128133D01*
Y-122200D01*
Y-116267D01*
X-2772266D01*
Y-122200D01*
D02*
G37*
G36*
X-3893667Y2400D02*
Y-3533D01*
Y-9467D01*
Y-15400D01*
Y-21333D01*
Y-27267D01*
Y-33200D01*
X-3852133D01*
Y-39133D01*
Y-45067D01*
Y-51000D01*
Y-56933D01*
Y-62867D01*
Y-68800D01*
Y-74733D01*
X-3810600D01*
Y-80667D01*
Y-86600D01*
Y-92533D01*
Y-98467D01*
Y-104400D01*
Y-110333D01*
Y-116267D01*
Y-122200D01*
Y-128133D01*
Y-134067D01*
Y-140000D01*
Y-145933D01*
Y-151867D01*
Y-157800D01*
X-3852133D01*
Y-163733D01*
Y-169667D01*
Y-175600D01*
Y-181533D01*
Y-187467D01*
Y-193400D01*
Y-199333D01*
Y-205267D01*
Y-211200D01*
Y-217133D01*
Y-223067D01*
Y-229000D01*
Y-234933D01*
Y-240867D01*
Y-246800D01*
Y-252733D01*
Y-258667D01*
Y-264600D01*
Y-270533D01*
Y-276467D01*
Y-282400D01*
X-3935200D01*
Y-288333D01*
Y-294267D01*
Y-300200D01*
Y-306133D01*
Y-312067D01*
Y-318000D01*
Y-323933D01*
X-3976733D01*
Y-318000D01*
Y-312067D01*
Y-306133D01*
Y-300200D01*
Y-294267D01*
Y-288333D01*
Y-282400D01*
X-4018267D01*
Y-276467D01*
Y-270533D01*
Y-264600D01*
Y-258667D01*
Y-252733D01*
Y-246800D01*
Y-240867D01*
Y-234933D01*
Y-229000D01*
Y-223067D01*
Y-217133D01*
Y-211200D01*
Y-205267D01*
Y-199333D01*
Y-193400D01*
Y-187467D01*
Y-181533D01*
Y-175600D01*
Y-169667D01*
Y-163733D01*
Y-157800D01*
Y-151867D01*
Y-145933D01*
Y-140000D01*
Y-134067D01*
Y-128133D01*
Y-122200D01*
Y-116267D01*
Y-110333D01*
Y-104400D01*
Y-98467D01*
Y-92533D01*
Y-86600D01*
Y-80667D01*
Y-74733D01*
Y-68800D01*
Y-62867D01*
Y-56933D01*
Y-51000D01*
Y-45067D01*
Y-39133D01*
Y-33200D01*
X-3976733D01*
Y-39133D01*
Y-45067D01*
Y-51000D01*
Y-56933D01*
Y-62867D01*
Y-68800D01*
Y-74733D01*
X-3935200D01*
Y-80667D01*
Y-86600D01*
Y-92533D01*
Y-98467D01*
Y-104400D01*
Y-110333D01*
Y-116267D01*
X-3976733D01*
Y-122200D01*
Y-128133D01*
Y-134067D01*
Y-140000D01*
Y-145933D01*
Y-151867D01*
Y-157800D01*
X-3935200D01*
Y-163733D01*
Y-169667D01*
Y-175600D01*
Y-181533D01*
Y-187467D01*
Y-193400D01*
Y-199333D01*
X-3893667D01*
Y-193400D01*
Y-187467D01*
Y-181533D01*
Y-175600D01*
Y-169667D01*
Y-163733D01*
Y-157800D01*
Y-151867D01*
Y-145933D01*
Y-140000D01*
Y-134067D01*
Y-128133D01*
Y-122200D01*
Y-116267D01*
Y-110333D01*
Y-104400D01*
Y-98467D01*
Y-92533D01*
Y-86600D01*
Y-80667D01*
Y-74733D01*
Y-68800D01*
Y-62867D01*
Y-56933D01*
Y-51000D01*
Y-45067D01*
Y-39133D01*
Y-33200D01*
X-3935200D01*
Y-27267D01*
Y-21333D01*
Y-15400D01*
Y-9467D01*
Y-3533D01*
Y2400D01*
Y8333D01*
X-3893667D01*
Y2400D01*
D02*
G37*
G36*
X-2647667Y-205267D02*
Y-211200D01*
Y-217133D01*
Y-223067D01*
Y-229000D01*
Y-234933D01*
Y-240867D01*
Y-246800D01*
Y-252733D01*
Y-258667D01*
Y-264600D01*
Y-270533D01*
Y-276467D01*
Y-282400D01*
X-2689200D01*
Y-276467D01*
Y-270533D01*
Y-264600D01*
Y-258667D01*
Y-252733D01*
Y-246800D01*
Y-240867D01*
Y-234933D01*
Y-229000D01*
Y-223067D01*
Y-217133D01*
Y-211200D01*
Y-205267D01*
Y-199333D01*
X-2647667D01*
Y-205267D01*
D02*
G37*
G36*
X-3519867Y-246800D02*
Y-252733D01*
Y-258667D01*
Y-264600D01*
Y-270533D01*
Y-276467D01*
Y-282400D01*
X-3561400D01*
Y-276467D01*
Y-270533D01*
Y-264600D01*
Y-258667D01*
Y-252733D01*
Y-246800D01*
Y-240867D01*
X-3519867D01*
Y-246800D01*
D02*
G37*
G36*
X-2730733Y-329867D02*
Y-335800D01*
Y-341733D01*
Y-347667D01*
Y-353600D01*
Y-359533D01*
Y-365467D01*
X-2772266D01*
Y-359533D01*
Y-353600D01*
Y-347667D01*
Y-341733D01*
Y-335800D01*
Y-329867D01*
Y-323933D01*
X-2730733D01*
Y-329867D01*
D02*
G37*
G36*
X-2689200Y-288333D02*
Y-294267D01*
Y-300200D01*
Y-306133D01*
Y-312067D01*
Y-318000D01*
Y-323933D01*
X-2647667D01*
Y-329867D01*
Y-335800D01*
Y-341733D01*
Y-347667D01*
Y-353600D01*
Y-359533D01*
Y-365467D01*
Y-371400D01*
Y-377333D01*
Y-383267D01*
Y-389200D01*
Y-395133D01*
Y-401067D01*
Y-407000D01*
X-2689200D01*
Y-401067D01*
Y-395133D01*
Y-389200D01*
Y-383267D01*
Y-377333D01*
Y-371400D01*
Y-365467D01*
Y-359533D01*
Y-353600D01*
Y-347667D01*
Y-341733D01*
Y-335800D01*
Y-329867D01*
Y-323933D01*
X-2730733D01*
Y-318000D01*
Y-312067D01*
Y-306133D01*
Y-300200D01*
Y-294267D01*
Y-288333D01*
Y-282400D01*
X-2689200D01*
Y-288333D01*
D02*
G37*
G36*
X-3395267Y-371400D02*
Y-377333D01*
Y-383267D01*
Y-389200D01*
Y-395133D01*
Y-401067D01*
Y-407000D01*
X-3478333D01*
Y-412933D01*
Y-418867D01*
Y-424800D01*
Y-430733D01*
Y-436667D01*
Y-442600D01*
Y-448533D01*
X-3561400D01*
Y-442600D01*
Y-436667D01*
Y-430733D01*
Y-424800D01*
Y-418867D01*
Y-412933D01*
Y-407000D01*
Y-401067D01*
Y-395133D01*
Y-389200D01*
Y-383267D01*
Y-377333D01*
Y-371400D01*
Y-365467D01*
X-3395267D01*
Y-371400D01*
D02*
G37*
G36*
X-2689200Y-454467D02*
Y-460400D01*
Y-466333D01*
Y-472267D01*
Y-478200D01*
Y-484133D01*
Y-490067D01*
X-2730733D01*
Y-484133D01*
Y-478200D01*
Y-472267D01*
Y-466333D01*
Y-460400D01*
Y-454467D01*
Y-448533D01*
X-2689200D01*
Y-454467D01*
D02*
G37*
G36*
X-3561400D02*
Y-460400D01*
Y-466333D01*
Y-472267D01*
Y-478200D01*
Y-484133D01*
Y-490067D01*
X-3602933D01*
Y-484133D01*
Y-478200D01*
Y-472267D01*
Y-466333D01*
Y-460400D01*
Y-454467D01*
Y-448533D01*
X-3561400D01*
Y-454467D01*
D02*
G37*
G36*
X-3893667D02*
Y-460400D01*
Y-466333D01*
Y-472267D01*
Y-478200D01*
Y-484133D01*
Y-490067D01*
X-3935200D01*
Y-484133D01*
Y-478200D01*
Y-472267D01*
Y-466333D01*
Y-460400D01*
Y-454467D01*
Y-448533D01*
X-3893667D01*
Y-454467D01*
D02*
G37*
G36*
X-3976733Y-329867D02*
Y-335800D01*
Y-341733D01*
Y-347667D01*
Y-353600D01*
Y-359533D01*
Y-365467D01*
Y-371400D01*
Y-377333D01*
Y-383267D01*
Y-389200D01*
Y-395133D01*
Y-401067D01*
Y-407000D01*
Y-412933D01*
Y-418867D01*
Y-424800D01*
Y-430733D01*
Y-436667D01*
Y-442600D01*
Y-448533D01*
Y-454467D01*
Y-460400D01*
Y-466333D01*
Y-472267D01*
Y-478200D01*
Y-484133D01*
Y-490067D01*
X-4018267D01*
Y-484133D01*
Y-478200D01*
Y-472267D01*
Y-466333D01*
Y-460400D01*
Y-454467D01*
Y-448533D01*
Y-442600D01*
Y-436667D01*
Y-430733D01*
Y-424800D01*
Y-418867D01*
Y-412933D01*
Y-407000D01*
Y-401067D01*
Y-395133D01*
Y-389200D01*
Y-383267D01*
Y-377333D01*
Y-371400D01*
Y-365467D01*
Y-359533D01*
Y-353600D01*
Y-347667D01*
Y-341733D01*
Y-335800D01*
Y-329867D01*
Y-323933D01*
X-3976733D01*
Y-329867D01*
D02*
G37*
G36*
X-3187600Y-496000D02*
Y-501933D01*
Y-507867D01*
Y-513800D01*
Y-519733D01*
Y-525667D01*
Y-531600D01*
X-3229133D01*
Y-525667D01*
Y-519733D01*
Y-513800D01*
Y-507867D01*
Y-501933D01*
Y-496000D01*
Y-490067D01*
X-3187600D01*
Y-496000D01*
D02*
G37*
G36*
X-3561400Y-703667D02*
Y-709600D01*
Y-715533D01*
Y-721467D01*
Y-727400D01*
Y-733333D01*
Y-739267D01*
Y-745200D01*
Y-751133D01*
Y-757067D01*
Y-763000D01*
Y-768933D01*
Y-774867D01*
Y-780800D01*
X-3602933D01*
Y-774867D01*
Y-768933D01*
Y-763000D01*
Y-757067D01*
Y-751133D01*
Y-745200D01*
Y-739267D01*
Y-733333D01*
Y-727400D01*
Y-721467D01*
Y-715533D01*
Y-709600D01*
Y-703667D01*
Y-697733D01*
X-3561400D01*
Y-703667D01*
D02*
G37*
G36*
X-2896867Y-786733D02*
Y-792667D01*
Y-798600D01*
Y-804533D01*
Y-810467D01*
Y-816400D01*
Y-822333D01*
X-2938400D01*
Y-816400D01*
Y-810467D01*
Y-804533D01*
Y-798600D01*
Y-792667D01*
Y-786733D01*
Y-780800D01*
X-2896867D01*
Y-786733D01*
D02*
G37*
G36*
X-3270667Y-703667D02*
Y-709600D01*
Y-715533D01*
Y-721467D01*
Y-727400D01*
Y-733333D01*
Y-739267D01*
X-3229133D01*
Y-745200D01*
Y-751133D01*
Y-757067D01*
Y-763000D01*
Y-768933D01*
Y-774867D01*
Y-780800D01*
Y-786733D01*
Y-792667D01*
Y-798600D01*
Y-804533D01*
Y-810467D01*
Y-816400D01*
Y-822333D01*
X-3270667D01*
Y-816400D01*
Y-810467D01*
Y-804533D01*
Y-798600D01*
Y-792667D01*
Y-786733D01*
Y-780800D01*
Y-774867D01*
Y-768933D01*
Y-763000D01*
Y-757067D01*
Y-751133D01*
Y-745200D01*
Y-739267D01*
X-3312200D01*
Y-733333D01*
Y-727400D01*
Y-721467D01*
Y-715533D01*
Y-709600D01*
Y-703667D01*
Y-697733D01*
X-3270667D01*
Y-703667D01*
D02*
G37*
G36*
X-3312200Y-745200D02*
Y-751133D01*
Y-757067D01*
Y-763000D01*
Y-768933D01*
Y-774867D01*
Y-780800D01*
Y-786733D01*
Y-792667D01*
Y-798600D01*
Y-804533D01*
Y-810467D01*
Y-816400D01*
Y-822333D01*
X-3395267D01*
Y-816400D01*
Y-810467D01*
Y-804533D01*
Y-798600D01*
Y-792667D01*
Y-786733D01*
Y-780800D01*
X-3353733D01*
Y-774867D01*
Y-768933D01*
Y-763000D01*
Y-757067D01*
Y-751133D01*
Y-745200D01*
Y-739267D01*
X-3312200D01*
Y-745200D01*
D02*
G37*
G36*
X-3436800Y-786733D02*
Y-792667D01*
Y-798600D01*
Y-804533D01*
Y-810467D01*
Y-816400D01*
Y-822333D01*
X-3519867D01*
Y-816400D01*
Y-810467D01*
Y-804533D01*
Y-798600D01*
Y-792667D01*
Y-786733D01*
Y-780800D01*
X-3436800D01*
Y-786733D01*
D02*
G37*
G36*
X-3644467Y-620600D02*
Y-626533D01*
Y-632467D01*
Y-638400D01*
Y-644333D01*
Y-650267D01*
Y-656200D01*
Y-662133D01*
Y-668067D01*
Y-674000D01*
Y-679933D01*
Y-685867D01*
Y-691800D01*
Y-697733D01*
Y-703667D01*
Y-709600D01*
Y-715533D01*
Y-721467D01*
Y-727400D01*
Y-733333D01*
Y-739267D01*
Y-745200D01*
Y-751133D01*
Y-757067D01*
Y-763000D01*
Y-768933D01*
Y-774867D01*
Y-780800D01*
X-3602933D01*
Y-786733D01*
Y-792667D01*
Y-798600D01*
Y-804533D01*
Y-810467D01*
Y-816400D01*
Y-822333D01*
X-3686000D01*
Y-816400D01*
Y-810467D01*
Y-804533D01*
Y-798600D01*
Y-792667D01*
Y-786733D01*
Y-780800D01*
Y-774867D01*
Y-768933D01*
Y-763000D01*
Y-757067D01*
Y-751133D01*
Y-745200D01*
Y-739267D01*
Y-733333D01*
Y-727400D01*
Y-721467D01*
Y-715533D01*
Y-709600D01*
Y-703667D01*
Y-697733D01*
Y-691800D01*
Y-685867D01*
Y-679933D01*
Y-674000D01*
Y-668067D01*
Y-662133D01*
Y-656200D01*
Y-650267D01*
Y-644333D01*
Y-638400D01*
Y-632467D01*
Y-626533D01*
Y-620600D01*
Y-614667D01*
X-3644467D01*
Y-620600D01*
D02*
G37*
G36*
X-3727533Y-537533D02*
Y-543467D01*
Y-549400D01*
Y-555333D01*
Y-561267D01*
Y-567200D01*
Y-573133D01*
Y-579067D01*
Y-585000D01*
Y-590933D01*
Y-596867D01*
Y-602800D01*
Y-608733D01*
Y-614667D01*
Y-620600D01*
Y-626533D01*
Y-632467D01*
Y-638400D01*
Y-644333D01*
Y-650267D01*
Y-656200D01*
Y-662133D01*
Y-668067D01*
Y-674000D01*
Y-679933D01*
Y-685867D01*
Y-691800D01*
Y-697733D01*
Y-703667D01*
Y-709600D01*
Y-715533D01*
Y-721467D01*
Y-727400D01*
Y-733333D01*
Y-739267D01*
Y-745200D01*
Y-751133D01*
Y-757067D01*
Y-763000D01*
Y-768933D01*
Y-774867D01*
Y-780800D01*
Y-786733D01*
Y-792667D01*
Y-798600D01*
Y-804533D01*
Y-810467D01*
Y-816400D01*
Y-822333D01*
X-4018267D01*
Y-816400D01*
Y-810467D01*
Y-804533D01*
Y-798600D01*
Y-792667D01*
Y-786733D01*
Y-780800D01*
Y-774867D01*
Y-768933D01*
Y-763000D01*
Y-757067D01*
Y-751133D01*
Y-745200D01*
Y-739267D01*
Y-733333D01*
Y-727400D01*
Y-721467D01*
Y-715533D01*
Y-709600D01*
Y-703667D01*
Y-697733D01*
Y-691800D01*
Y-685867D01*
Y-679933D01*
Y-674000D01*
Y-668067D01*
Y-662133D01*
Y-656200D01*
Y-650267D01*
Y-644333D01*
Y-638400D01*
Y-632467D01*
Y-626533D01*
Y-620600D01*
Y-614667D01*
Y-608733D01*
Y-602800D01*
Y-596867D01*
Y-590933D01*
Y-585000D01*
Y-579067D01*
Y-573133D01*
Y-567200D01*
Y-561267D01*
Y-555333D01*
Y-549400D01*
Y-543467D01*
Y-537533D01*
Y-531600D01*
X-3727533D01*
Y-537533D01*
D02*
G37*
%LPC*%
G36*
X-3312200Y506733D02*
X-3353733D01*
Y500800D01*
Y494867D01*
Y488933D01*
Y483000D01*
Y477067D01*
Y471133D01*
Y465200D01*
X-3312200D01*
Y471133D01*
Y477067D01*
Y483000D01*
Y488933D01*
Y494867D01*
Y500800D01*
Y506733D01*
D02*
G37*
G36*
X-3561400Y174467D02*
X-3602933D01*
Y168533D01*
Y162600D01*
Y156667D01*
Y150733D01*
Y144800D01*
Y138867D01*
Y132933D01*
Y127000D01*
Y121067D01*
Y115133D01*
Y109200D01*
Y103267D01*
Y97333D01*
Y91400D01*
X-3561400D01*
Y97333D01*
Y103267D01*
Y109200D01*
Y115133D01*
Y121067D01*
Y127000D01*
Y132933D01*
Y138867D01*
Y144800D01*
Y150733D01*
Y156667D01*
Y162600D01*
Y168533D01*
Y174467D01*
D02*
G37*
G36*
X-3519867Y49867D02*
X-3602933D01*
Y43933D01*
Y38000D01*
Y32067D01*
Y26133D01*
Y20200D01*
Y14267D01*
Y8333D01*
X-3519867D01*
Y14267D01*
Y20200D01*
Y26133D01*
Y32067D01*
Y38000D01*
Y43933D01*
Y49867D01*
D02*
G37*
G36*
X-3478333Y91400D02*
X-3519867D01*
Y85467D01*
Y79533D01*
Y73600D01*
Y67667D01*
Y61733D01*
Y55800D01*
Y49867D01*
X-3478333D01*
Y43933D01*
Y38000D01*
Y32067D01*
Y26133D01*
Y20200D01*
Y14267D01*
Y8333D01*
Y2400D01*
Y-3533D01*
Y-9467D01*
Y-15400D01*
Y-21333D01*
Y-27267D01*
Y-33200D01*
X-3436800D01*
Y-27267D01*
Y-21333D01*
Y-15400D01*
Y-9467D01*
Y-3533D01*
Y2400D01*
Y8333D01*
Y14267D01*
Y20200D01*
Y26133D01*
Y32067D01*
Y38000D01*
Y43933D01*
Y49867D01*
X-3478333D01*
Y55800D01*
Y61733D01*
Y67667D01*
Y73600D01*
Y79533D01*
Y85467D01*
Y91400D01*
D02*
G37*
G36*
X-3104533Y-33200D02*
X-3187600D01*
Y-39133D01*
Y-45067D01*
Y-51000D01*
Y-56933D01*
Y-62867D01*
Y-68800D01*
Y-74733D01*
X-3104533D01*
Y-68800D01*
Y-62867D01*
Y-56933D01*
Y-51000D01*
Y-45067D01*
Y-39133D01*
Y-33200D01*
D02*
G37*
G36*
X-3270667Y8333D02*
X-3312200D01*
Y2400D01*
Y-3533D01*
Y-9467D01*
Y-15400D01*
Y-21333D01*
Y-27267D01*
Y-33200D01*
X-3270667D01*
Y-39133D01*
Y-45067D01*
Y-51000D01*
Y-56933D01*
Y-62867D01*
Y-68800D01*
Y-74733D01*
X-3229133D01*
Y-68800D01*
Y-62867D01*
Y-56933D01*
Y-51000D01*
Y-45067D01*
Y-39133D01*
Y-33200D01*
X-3270667D01*
Y-27267D01*
Y-21333D01*
Y-15400D01*
Y-9467D01*
Y-3533D01*
Y2400D01*
Y8333D01*
D02*
G37*
G36*
X-3602933D02*
X-3644467D01*
Y2400D01*
Y-3533D01*
Y-9467D01*
Y-15400D01*
Y-21333D01*
Y-27267D01*
Y-33200D01*
Y-39133D01*
Y-45067D01*
Y-51000D01*
Y-56933D01*
Y-62867D01*
Y-68800D01*
Y-74733D01*
Y-80667D01*
Y-86600D01*
Y-92533D01*
Y-98467D01*
Y-104400D01*
Y-110333D01*
Y-116267D01*
X-3602933D01*
Y-110333D01*
Y-104400D01*
Y-98467D01*
Y-92533D01*
Y-86600D01*
Y-80667D01*
Y-74733D01*
Y-68800D01*
Y-62867D01*
Y-56933D01*
Y-51000D01*
Y-45067D01*
Y-39133D01*
Y-33200D01*
Y-27267D01*
Y-21333D01*
Y-15400D01*
Y-9467D01*
Y-3533D01*
Y2400D01*
Y8333D01*
D02*
G37*
G36*
X-3478333Y-33200D02*
X-3561400D01*
Y-39133D01*
Y-45067D01*
Y-51000D01*
Y-56933D01*
Y-62867D01*
Y-68800D01*
Y-74733D01*
X-3519867D01*
Y-80667D01*
Y-86600D01*
Y-92533D01*
Y-98467D01*
Y-104400D01*
Y-110333D01*
Y-116267D01*
X-3478333D01*
Y-122200D01*
Y-128133D01*
Y-134067D01*
Y-140000D01*
Y-145933D01*
Y-151867D01*
Y-157800D01*
Y-163733D01*
Y-169667D01*
Y-175600D01*
Y-181533D01*
Y-187467D01*
Y-193400D01*
Y-199333D01*
X-3436800D01*
Y-193400D01*
Y-187467D01*
Y-181533D01*
Y-175600D01*
Y-169667D01*
Y-163733D01*
Y-157800D01*
X-3395267D01*
Y-163733D01*
Y-169667D01*
Y-175600D01*
Y-181533D01*
Y-187467D01*
Y-193400D01*
Y-199333D01*
X-3353733D01*
Y-205267D01*
Y-211200D01*
Y-217133D01*
Y-223067D01*
Y-229000D01*
Y-234933D01*
Y-240867D01*
X-3312200D01*
Y-246800D01*
Y-252733D01*
Y-258667D01*
Y-264600D01*
Y-270533D01*
Y-276467D01*
Y-282400D01*
Y-288333D01*
Y-294267D01*
Y-300200D01*
Y-306133D01*
Y-312067D01*
Y-318000D01*
Y-323933D01*
Y-329867D01*
Y-335800D01*
Y-341733D01*
Y-347667D01*
Y-353600D01*
Y-359533D01*
Y-365467D01*
X-3187600D01*
Y-371400D01*
Y-377333D01*
Y-383267D01*
Y-389200D01*
Y-395133D01*
Y-401067D01*
Y-407000D01*
Y-412933D01*
Y-418867D01*
Y-424800D01*
Y-430733D01*
Y-436667D01*
Y-442600D01*
Y-448533D01*
X-3146067D01*
Y-454467D01*
Y-460400D01*
Y-466333D01*
Y-472267D01*
Y-478200D01*
Y-484133D01*
Y-490067D01*
X-3021467D01*
Y-484133D01*
Y-478200D01*
Y-472267D01*
Y-466333D01*
Y-460400D01*
Y-454467D01*
Y-448533D01*
X-3146067D01*
Y-442600D01*
Y-436667D01*
Y-430733D01*
Y-424800D01*
Y-418867D01*
Y-412933D01*
Y-407000D01*
X-3104533D01*
Y-401067D01*
Y-395133D01*
Y-389200D01*
Y-383267D01*
Y-377333D01*
Y-371400D01*
Y-365467D01*
X-3187600D01*
Y-359533D01*
Y-353600D01*
Y-347667D01*
Y-341733D01*
Y-335800D01*
Y-329867D01*
Y-323933D01*
Y-318000D01*
Y-312067D01*
Y-306133D01*
Y-300200D01*
Y-294267D01*
Y-288333D01*
Y-282400D01*
Y-276467D01*
Y-270533D01*
Y-264600D01*
Y-258667D01*
Y-252733D01*
Y-246800D01*
Y-240867D01*
Y-234933D01*
Y-229000D01*
Y-223067D01*
Y-217133D01*
Y-211200D01*
Y-205267D01*
Y-199333D01*
Y-193400D01*
Y-187467D01*
Y-181533D01*
Y-175600D01*
Y-169667D01*
Y-163733D01*
Y-157800D01*
X-3104533D01*
Y-163733D01*
Y-169667D01*
Y-175600D01*
Y-181533D01*
Y-187467D01*
Y-193400D01*
Y-199333D01*
X-2979933D01*
Y-193400D01*
Y-187467D01*
Y-181533D01*
Y-175600D01*
Y-169667D01*
Y-163733D01*
Y-157800D01*
X-3021467D01*
Y-151867D01*
Y-145933D01*
Y-140000D01*
Y-134067D01*
Y-128133D01*
Y-122200D01*
Y-116267D01*
X-3270667D01*
Y-110333D01*
Y-104400D01*
Y-98467D01*
Y-92533D01*
Y-86600D01*
Y-80667D01*
Y-74733D01*
X-3312200D01*
Y-80667D01*
Y-86600D01*
Y-92533D01*
Y-98467D01*
Y-104400D01*
Y-110333D01*
Y-116267D01*
Y-122200D01*
Y-128133D01*
Y-134067D01*
Y-140000D01*
Y-145933D01*
Y-151867D01*
Y-157800D01*
X-3395267D01*
Y-151867D01*
Y-145933D01*
Y-140000D01*
Y-134067D01*
Y-128133D01*
Y-122200D01*
Y-116267D01*
X-3353733D01*
Y-110333D01*
Y-104400D01*
Y-98467D01*
Y-92533D01*
Y-86600D01*
Y-80667D01*
Y-74733D01*
X-3478333D01*
Y-68800D01*
Y-62867D01*
Y-56933D01*
Y-51000D01*
Y-45067D01*
Y-39133D01*
Y-33200D01*
D02*
G37*
G36*
X-3395267Y-240867D02*
X-3436800D01*
Y-246800D01*
Y-252733D01*
Y-258667D01*
Y-264600D01*
Y-270533D01*
Y-276467D01*
Y-282400D01*
X-3395267D01*
Y-276467D01*
Y-270533D01*
Y-264600D01*
Y-258667D01*
Y-252733D01*
Y-246800D01*
Y-240867D01*
D02*
G37*
G36*
X-3727533D02*
X-3769067D01*
Y-246800D01*
Y-252733D01*
Y-258667D01*
Y-264600D01*
Y-270533D01*
Y-276467D01*
Y-282400D01*
X-3727533D01*
Y-288333D01*
Y-294267D01*
Y-300200D01*
Y-306133D01*
Y-312067D01*
Y-318000D01*
Y-323933D01*
X-3686000D01*
Y-318000D01*
Y-312067D01*
Y-306133D01*
Y-300200D01*
Y-294267D01*
Y-288333D01*
Y-282400D01*
X-3727533D01*
Y-276467D01*
Y-270533D01*
Y-264600D01*
Y-258667D01*
Y-252733D01*
Y-246800D01*
Y-240867D01*
D02*
G37*
G36*
X-3104533Y-199333D02*
X-3146067D01*
Y-205267D01*
Y-211200D01*
Y-217133D01*
Y-223067D01*
Y-229000D01*
Y-234933D01*
Y-240867D01*
X-3104533D01*
Y-246800D01*
Y-252733D01*
Y-258667D01*
Y-264600D01*
Y-270533D01*
Y-276467D01*
Y-282400D01*
Y-288333D01*
Y-294267D01*
Y-300200D01*
Y-306133D01*
Y-312067D01*
Y-318000D01*
Y-323933D01*
X-3063000D01*
Y-329867D01*
Y-335800D01*
Y-341733D01*
Y-347667D01*
Y-353600D01*
Y-359533D01*
Y-365467D01*
X-3021467D01*
Y-371400D01*
Y-377333D01*
Y-383267D01*
Y-389200D01*
Y-395133D01*
Y-401067D01*
Y-407000D01*
Y-412933D01*
Y-418867D01*
Y-424800D01*
Y-430733D01*
Y-436667D01*
Y-442600D01*
Y-448533D01*
X-2938400D01*
Y-442600D01*
Y-436667D01*
Y-430733D01*
Y-424800D01*
Y-418867D01*
Y-412933D01*
Y-407000D01*
X-2979933D01*
Y-401067D01*
Y-395133D01*
Y-389200D01*
Y-383267D01*
Y-377333D01*
Y-371400D01*
Y-365467D01*
X-3021467D01*
Y-359533D01*
Y-353600D01*
Y-347667D01*
Y-341733D01*
Y-335800D01*
Y-329867D01*
Y-323933D01*
X-2979933D01*
Y-318000D01*
Y-312067D01*
Y-306133D01*
Y-300200D01*
Y-294267D01*
Y-288333D01*
Y-282400D01*
X-2938400D01*
Y-276467D01*
Y-270533D01*
Y-264600D01*
Y-258667D01*
Y-252733D01*
Y-246800D01*
Y-240867D01*
X-3021467D01*
Y-246800D01*
Y-252733D01*
Y-258667D01*
Y-264600D01*
Y-270533D01*
Y-276467D01*
Y-282400D01*
X-3063000D01*
Y-276467D01*
Y-270533D01*
Y-264600D01*
Y-258667D01*
Y-252733D01*
Y-246800D01*
Y-240867D01*
X-3104533D01*
Y-234933D01*
Y-229000D01*
Y-223067D01*
Y-217133D01*
Y-211200D01*
Y-205267D01*
Y-199333D01*
D02*
G37*
G36*
X-2855333Y-490067D02*
X-2979933D01*
Y-496000D01*
Y-501933D01*
Y-507867D01*
Y-513800D01*
Y-519733D01*
Y-525667D01*
Y-531600D01*
Y-537533D01*
Y-543467D01*
Y-549400D01*
Y-555333D01*
Y-561267D01*
Y-567200D01*
Y-573133D01*
Y-579067D01*
Y-585000D01*
Y-590933D01*
Y-596867D01*
Y-602800D01*
Y-608733D01*
Y-614667D01*
X-2855333D01*
Y-608733D01*
Y-602800D01*
Y-596867D01*
Y-590933D01*
Y-585000D01*
Y-579067D01*
Y-573133D01*
Y-567200D01*
Y-561267D01*
Y-555333D01*
Y-549400D01*
Y-543467D01*
Y-537533D01*
Y-531600D01*
Y-525667D01*
Y-519733D01*
Y-513800D01*
Y-507867D01*
Y-501933D01*
Y-496000D01*
Y-490067D01*
D02*
G37*
G36*
X-3063000Y-739267D02*
X-3104533D01*
Y-745200D01*
Y-751133D01*
Y-757067D01*
Y-763000D01*
Y-768933D01*
Y-774867D01*
Y-780800D01*
X-3063000D01*
Y-774867D01*
Y-768933D01*
Y-763000D01*
Y-757067D01*
Y-751133D01*
Y-745200D01*
Y-739267D01*
D02*
G37*
%LPD*%
G36*
X-3270667Y-205267D02*
Y-211200D01*
Y-217133D01*
Y-223067D01*
Y-229000D01*
Y-234933D01*
Y-240867D01*
X-3229133D01*
Y-246800D01*
Y-252733D01*
Y-258667D01*
Y-264600D01*
Y-270533D01*
Y-276467D01*
Y-282400D01*
X-3270667D01*
Y-276467D01*
Y-270533D01*
Y-264600D01*
Y-258667D01*
Y-252733D01*
Y-246800D01*
Y-240867D01*
X-3312200D01*
Y-234933D01*
Y-229000D01*
Y-223067D01*
Y-217133D01*
Y-211200D01*
Y-205267D01*
Y-199333D01*
X-3270667D01*
Y-205267D01*
D02*
G37*
G36*
X-2896867Y-537533D02*
Y-543467D01*
Y-549400D01*
Y-555333D01*
Y-561267D01*
Y-567200D01*
Y-573133D01*
X-2938400D01*
Y-567200D01*
Y-561267D01*
Y-555333D01*
Y-549400D01*
Y-543467D01*
Y-537533D01*
Y-531600D01*
X-2896867D01*
Y-537533D01*
D02*
G37*
%LPC*%
G36*
X-2689200Y506733D02*
X-2896867D01*
Y500800D01*
Y494867D01*
Y488933D01*
Y483000D01*
Y477067D01*
Y471133D01*
Y465200D01*
Y459267D01*
Y453333D01*
Y447400D01*
Y441467D01*
Y435533D01*
Y429600D01*
Y423667D01*
Y417733D01*
Y411800D01*
Y405867D01*
Y399933D01*
Y394000D01*
Y388067D01*
Y382133D01*
Y376200D01*
Y370267D01*
Y364333D01*
Y358400D01*
Y352467D01*
Y346533D01*
Y340600D01*
Y334667D01*
Y328733D01*
Y322800D01*
Y316867D01*
Y310933D01*
Y305000D01*
Y299067D01*
X-2689200D01*
Y305000D01*
Y310933D01*
Y316867D01*
Y322800D01*
Y328733D01*
Y334667D01*
Y340600D01*
Y346533D01*
Y352467D01*
Y358400D01*
Y364333D01*
Y370267D01*
Y376200D01*
Y382133D01*
Y388067D01*
Y394000D01*
Y399933D01*
Y405867D01*
Y411800D01*
Y417733D01*
Y423667D01*
Y429600D01*
Y435533D01*
Y441467D01*
Y447400D01*
Y453333D01*
Y459267D01*
Y465200D01*
Y471133D01*
Y477067D01*
Y483000D01*
Y488933D01*
Y494867D01*
Y500800D01*
Y506733D01*
D02*
G37*
%LPD*%
G36*
X-2730733Y459267D02*
Y453333D01*
Y447400D01*
Y441467D01*
Y435533D01*
Y429600D01*
Y423667D01*
Y417733D01*
Y411800D01*
Y405867D01*
Y399933D01*
Y394000D01*
Y388067D01*
Y382133D01*
Y376200D01*
Y370267D01*
Y364333D01*
Y358400D01*
Y352467D01*
Y346533D01*
Y340600D01*
X-2855333D01*
Y346533D01*
Y352467D01*
Y358400D01*
Y364333D01*
Y370267D01*
Y376200D01*
Y382133D01*
Y388067D01*
Y394000D01*
Y399933D01*
Y405867D01*
Y411800D01*
Y417733D01*
Y423667D01*
Y429600D01*
Y435533D01*
Y441467D01*
Y447400D01*
Y453333D01*
Y459267D01*
Y465200D01*
X-2730733D01*
Y459267D01*
D02*
G37*
%LPC*%
G36*
X-3769067Y506733D02*
X-3976733D01*
Y500800D01*
Y494867D01*
Y488933D01*
Y483000D01*
Y477067D01*
Y471133D01*
Y465200D01*
Y459267D01*
Y453333D01*
Y447400D01*
Y441467D01*
Y435533D01*
Y429600D01*
Y423667D01*
Y417733D01*
Y411800D01*
Y405867D01*
Y399933D01*
Y394000D01*
Y388067D01*
Y382133D01*
Y376200D01*
Y370267D01*
Y364333D01*
Y358400D01*
Y352467D01*
Y346533D01*
Y340600D01*
Y334667D01*
Y328733D01*
Y322800D01*
Y316867D01*
Y310933D01*
Y305000D01*
Y299067D01*
X-3769067D01*
Y305000D01*
Y310933D01*
Y316867D01*
Y322800D01*
Y328733D01*
Y334667D01*
Y340600D01*
Y346533D01*
Y352467D01*
Y358400D01*
Y364333D01*
Y370267D01*
Y376200D01*
Y382133D01*
Y388067D01*
Y394000D01*
Y399933D01*
Y405867D01*
Y411800D01*
Y417733D01*
Y423667D01*
Y429600D01*
Y435533D01*
Y441467D01*
Y447400D01*
Y453333D01*
Y459267D01*
Y465200D01*
Y471133D01*
Y477067D01*
Y483000D01*
Y488933D01*
Y494867D01*
Y500800D01*
Y506733D01*
D02*
G37*
%LPD*%
G36*
X-3810600Y459267D02*
Y453333D01*
Y447400D01*
Y441467D01*
Y435533D01*
Y429600D01*
Y423667D01*
Y417733D01*
Y411800D01*
Y405867D01*
Y399933D01*
Y394000D01*
Y388067D01*
Y382133D01*
Y376200D01*
Y370267D01*
Y364333D01*
Y358400D01*
Y352467D01*
Y346533D01*
Y340600D01*
X-3935200D01*
Y346533D01*
Y352467D01*
Y358400D01*
Y364333D01*
Y370267D01*
Y376200D01*
Y382133D01*
Y388067D01*
Y394000D01*
Y399933D01*
Y405867D01*
Y411800D01*
Y417733D01*
Y423667D01*
Y429600D01*
Y435533D01*
Y441467D01*
Y447400D01*
Y453333D01*
Y459267D01*
Y465200D01*
X-3810600D01*
Y459267D01*
D02*
G37*
%LPC*%
G36*
X-2730733Y132933D02*
X-2772266D01*
Y127000D01*
Y121067D01*
Y115133D01*
Y109200D01*
Y103267D01*
Y97333D01*
Y91400D01*
X-2730733D01*
Y97333D01*
Y103267D01*
Y109200D01*
Y115133D01*
Y121067D01*
Y127000D01*
Y132933D01*
D02*
G37*
G36*
Y-33200D02*
X-2772266D01*
Y-39133D01*
Y-45067D01*
Y-51000D01*
Y-56933D01*
Y-62867D01*
Y-68800D01*
Y-74733D01*
X-2730733D01*
Y-68800D01*
Y-62867D01*
Y-56933D01*
Y-51000D01*
Y-45067D01*
Y-39133D01*
Y-33200D01*
D02*
G37*
G36*
X-3769067Y-573133D02*
X-3976733D01*
Y-579067D01*
Y-585000D01*
Y-590933D01*
Y-596867D01*
Y-602800D01*
Y-608733D01*
Y-614667D01*
Y-620600D01*
Y-626533D01*
Y-632467D01*
Y-638400D01*
Y-644333D01*
Y-650267D01*
Y-656200D01*
Y-662133D01*
Y-668067D01*
Y-674000D01*
Y-679933D01*
Y-685867D01*
Y-691800D01*
Y-697733D01*
Y-703667D01*
Y-709600D01*
Y-715533D01*
Y-721467D01*
Y-727400D01*
Y-733333D01*
Y-739267D01*
Y-745200D01*
Y-751133D01*
Y-757067D01*
Y-763000D01*
Y-768933D01*
Y-774867D01*
Y-780800D01*
X-3769067D01*
Y-774867D01*
Y-768933D01*
Y-763000D01*
Y-757067D01*
Y-751133D01*
Y-745200D01*
Y-739267D01*
Y-733333D01*
Y-727400D01*
Y-721467D01*
Y-715533D01*
Y-709600D01*
Y-703667D01*
Y-697733D01*
Y-691800D01*
Y-685867D01*
Y-679933D01*
Y-674000D01*
Y-668067D01*
Y-662133D01*
Y-656200D01*
Y-650267D01*
Y-644333D01*
Y-638400D01*
Y-632467D01*
Y-626533D01*
Y-620600D01*
Y-614667D01*
Y-608733D01*
Y-602800D01*
Y-596867D01*
Y-590933D01*
Y-585000D01*
Y-579067D01*
Y-573133D01*
D02*
G37*
%LPD*%
G36*
X-3810600Y-620600D02*
Y-626533D01*
Y-632467D01*
Y-638400D01*
Y-644333D01*
Y-650267D01*
Y-656200D01*
Y-662133D01*
Y-668067D01*
Y-674000D01*
Y-679933D01*
Y-685867D01*
Y-691800D01*
Y-697733D01*
Y-703667D01*
Y-709600D01*
Y-715533D01*
Y-721467D01*
Y-727400D01*
Y-733333D01*
Y-739267D01*
X-3935200D01*
Y-733333D01*
Y-727400D01*
Y-721467D01*
Y-715533D01*
Y-709600D01*
Y-703667D01*
Y-697733D01*
Y-691800D01*
Y-685867D01*
Y-679933D01*
Y-674000D01*
Y-668067D01*
Y-662133D01*
Y-656200D01*
Y-650267D01*
Y-644333D01*
Y-638400D01*
Y-632467D01*
Y-626533D01*
Y-620600D01*
Y-614667D01*
X-3810600D01*
Y-620600D01*
D02*
G37*
D15*
X5743379Y-8420D02*
G03*
X5743379Y-8420I-5758472J0D01*
G01*
X1900000Y0D02*
G03*
X1900000Y0I-1900000J0D01*
G01*
D16*
X-330000Y3430000D02*
X-30000Y3230000D01*
X-230000Y4130000D02*
X-30000Y3230000D01*
X-205000Y4110000D02*
X-115000Y4010000D01*
X-45000Y2640000D02*
X45000Y2540000D01*
X-60000Y2610000D02*
X30000Y2510000D01*
X-130000Y4130000D02*
X70000D01*
X-230000D02*
X-130000D01*
X-330000Y3430000D02*
X-30000Y2630000D01*
X-230000Y3330000D02*
X-30000Y2630000D01*
X-230000Y3330000D02*
X70000Y3130000D01*
Y4130000D01*
X-100000Y4700000D02*
X1200000Y2300000D01*
X-1200000D02*
X1200000D01*
X-1200000D02*
X-100000Y4700000D01*
D17*
X4005000Y-50000D02*
X5250000D01*
D18*
X-130000Y2630000D02*
X-30000Y2630000D01*
X70000Y2430000D02*
X70000Y2630000D01*
X-30000D02*
X70000D01*
X-130000Y2630000D02*
X70000Y2430000D01*
D19*
X4186179Y-2349160D02*
Y-2799014D01*
X3961252D01*
X3886276Y-2724039D01*
Y-2649063D01*
X3961252Y-2574087D01*
X4186179D01*
X3961252D01*
X3886276Y-2499111D01*
Y-2424136D01*
X3961252Y-2349160D01*
X4186179D01*
X3436421Y-2424136D02*
X3511397Y-2349160D01*
X3661349D01*
X3736325Y-2424136D01*
Y-2724039D01*
X3661349Y-2799014D01*
X3511397D01*
X3436421Y-2724039D01*
X3286470Y-2349160D02*
X3136518D01*
X3211494D01*
Y-2799014D01*
X3286470D01*
X3136518D01*
X2461737Y-2349160D02*
X2311785D01*
X2386761D01*
Y-2799014D01*
X2461737D01*
X2311785D01*
X2086858D02*
Y-2349160D01*
X1786955Y-2799014D01*
Y-2349160D01*
X1337100D02*
X1487052D01*
X1412076D01*
Y-2724039D01*
X1487052Y-2799014D01*
X1562027D01*
X1637003Y-2724039D01*
X887245Y-2349160D02*
X1187149D01*
Y-2799014D01*
X887245D01*
X1187149Y-2574087D02*
X1037197D01*
X437391Y-2424136D02*
X512367Y-2349160D01*
X662318D01*
X737294Y-2424136D01*
Y-2724039D01*
X662318Y-2799014D01*
X512367D01*
X437391Y-2724039D01*
X287439Y-2349160D02*
X-12464D01*
X137488D01*
Y-2799014D01*
X-162415Y-2349160D02*
X-312367D01*
X-237391D01*
Y-2799014D01*
X-162415D01*
X-312367D01*
X-762221Y-2349160D02*
X-612270D01*
X-537294Y-2424136D01*
Y-2724039D01*
X-612270Y-2799014D01*
X-762221D01*
X-837197Y-2724039D01*
Y-2424136D01*
X-762221Y-2349160D01*
X-987149Y-2799014D02*
Y-2349160D01*
X-1287052Y-2799014D01*
Y-2349160D01*
X-1886858Y-2799014D02*
Y-2349160D01*
X-2111785D01*
X-2186761Y-2424136D01*
Y-2574087D01*
X-2111785Y-2649063D01*
X-1886858D01*
X-2336712Y-2799014D02*
Y-2349160D01*
X-2561640D01*
X-2636616Y-2424136D01*
Y-2574087D01*
X-2561640Y-2649063D01*
X-2336712D01*
X-2486664D02*
X-2636616Y-2799014D01*
X-3011494Y-2349160D02*
X-2861543D01*
X-2786567Y-2424136D01*
Y-2724039D01*
X-2861543Y-2799014D01*
X-3011494D01*
X-3086470Y-2724039D01*
Y-2424136D01*
X-3011494Y-2349160D01*
X-3236422D02*
Y-2799014D01*
X-3461349D01*
X-3536325Y-2724039D01*
Y-2649063D01*
X-3461349Y-2574087D01*
X-3236422D01*
X-3461349D01*
X-3536325Y-2499111D01*
Y-2424136D01*
X-3461349Y-2349160D01*
X-3236422D01*
X-3986179D02*
X-3686276D01*
Y-2799014D01*
X-3986179D01*
X-3686276Y-2574087D02*
X-3836228D01*
X2649176Y-3155961D02*
X2724152Y-3080985D01*
X2874103D01*
X2949079Y-3155961D01*
Y-3455864D01*
X2874103Y-3530840D01*
X2724152D01*
X2649176Y-3455864D01*
X2499224Y-3080985D02*
Y-3455864D01*
X2424249Y-3530840D01*
X2274297D01*
X2199321Y-3455864D01*
Y-3080985D01*
X2049370Y-3530840D02*
Y-3080985D01*
X1824442D01*
X1749467Y-3155961D01*
Y-3305912D01*
X1824442Y-3380888D01*
X2049370D01*
X1899418D02*
X1749467Y-3530840D01*
X1599515D02*
Y-3080985D01*
X1374588D01*
X1299612Y-3155961D01*
Y-3305912D01*
X1374588Y-3380888D01*
X1599515D01*
X1449564D02*
X1299612Y-3530840D01*
X849758Y-3080985D02*
X1149661D01*
Y-3530840D01*
X849758D01*
X1149661Y-3305912D02*
X999709D01*
X699806Y-3530840D02*
Y-3080985D01*
X399903Y-3530840D01*
Y-3080985D01*
X249951D02*
X-49952D01*
X100000D01*
Y-3530840D01*
X-649758D02*
Y-3080985D01*
X-874685D01*
X-949661Y-3155961D01*
Y-3305912D01*
X-874685Y-3380888D01*
X-649758D01*
X-1099612Y-3530840D02*
Y-3080985D01*
X-1324540D01*
X-1399515Y-3155961D01*
Y-3305912D01*
X-1324540Y-3380888D01*
X-1099612D01*
X-1249564D02*
X-1399515Y-3530840D01*
X-1774394Y-3080985D02*
X-1624443D01*
X-1549467Y-3155961D01*
Y-3455864D01*
X-1624443Y-3530840D01*
X-1774394D01*
X-1849370Y-3455864D01*
Y-3155961D01*
X-1774394Y-3080985D01*
X-1999321D02*
Y-3530840D01*
X-2224249D01*
X-2299225Y-3455864D01*
Y-3380888D01*
X-2224249Y-3305912D01*
X-1999321D01*
X-2224249D01*
X-2299225Y-3230936D01*
Y-3155961D01*
X-2224249Y-3080985D01*
X-1999321D01*
X-2749079D02*
X-2449176D01*
Y-3530840D01*
X-2749079D01*
X-2449176Y-3305912D02*
X-2599127D01*
D20*
X4101582Y-3920697D02*
D03*
X1584894Y-5451377D02*
D03*
X-1359107Y-5516614D02*
D03*
X-3935328Y-4097974D02*
D03*
X-5454211Y-1577279D02*
D03*
X-5506367Y1355736D02*
D03*
X-4097974Y3935328D02*
D03*
X-1581286Y5457081D02*
D03*
X1359107Y5516614D02*
D03*
X3935328Y4097975D02*
D03*
X5441988Y1572866D02*
D03*
X5516614Y-1359107D02*
D03*
X2763397Y4986345D02*
D03*
X4905943Y2943615D02*
D03*
X5005943Y-2756385D02*
D03*
X2956201Y-4879332D02*
D03*
X100000Y-5700000D02*
D03*
X-2763397Y-4986345D02*
D03*
X-4866747Y-2951611D02*
D03*
X-5680402Y-115008D02*
D03*
X-4966747Y2748389D02*
D03*
X-2917005Y4871337D02*
D03*
X-100000Y5700000D02*
D03*
D21*
X3982500Y-46000D02*
D03*
D22*
Y-554000D02*
D03*
D23*
X5810000Y-510000D02*
D03*
Y510000D02*
D03*
X4790000D02*
D03*
Y-510000D02*
D03*
X5300000Y0D02*
D03*
%TF.MD5,e3334a8a004f9145df64b8242d55bd66*%
M02*
