%TF.GenerationSoftware,Altium Limited,Altium Designer,21.0.9 (235)*%
G04 Layer_Color=8388736*
%FSLAX45Y45*%
%MOMM*%
%TF.SameCoordinates,F7A25A3E-D5AF-42C8-93B9-E033C83BC228*%
%TF.FilePolarity,Negative*%
%TF.FileFunction,Soldermask,Top*%
%TF.Part,Single*%
G01*
G75*
%TA.AperFunction,NonConductor*%
%ADD17C,3.00000*%
%TA.AperFunction,ViaPad*%
%ADD20C,8.20320*%
%ADD21C,3.20320*%
%ADD22R,3.20320X3.20320*%
%TA.AperFunction,ComponentPad*%
%ADD23C,2.75320*%
D17*
X3990000Y-30000D02*
X5297500Y-24000D01*
D20*
X4101582Y-3920697D02*
D03*
X1584894Y-5451377D02*
D03*
X-1359107Y-5516614D02*
D03*
X-3935328Y-4097974D02*
D03*
X-5454211Y-1577279D02*
D03*
X-5506367Y1355736D02*
D03*
X-4097974Y3935328D02*
D03*
X-1581286Y5457081D02*
D03*
X1359107Y5516614D02*
D03*
X3935328Y4097975D02*
D03*
X5441988Y1572866D02*
D03*
X5516614Y-1359107D02*
D03*
X2763397Y4986345D02*
D03*
X4905943Y2943615D02*
D03*
X5005943Y-2756385D02*
D03*
X2956201Y-4879332D02*
D03*
X100000Y-5700000D02*
D03*
X-2763397Y-4986345D02*
D03*
X-4866747Y-2951611D02*
D03*
X-5680402Y-115008D02*
D03*
X-4966747Y2748389D02*
D03*
X-2917005Y4871337D02*
D03*
X-100000Y5700000D02*
D03*
D21*
X3982500Y-46000D02*
D03*
D22*
Y-554000D02*
D03*
D23*
X5810000Y-510000D02*
D03*
Y510000D02*
D03*
X4790000D02*
D03*
Y-510000D02*
D03*
X5300000Y0D02*
D03*
%TF.MD5,8f95a4785172607a5d00e1e3796be89a*%
M02*
